<svg width="261" height="232" viewBox="0 0 261 232" fill="none" xmlns="http://www.w3.org/2000/svg">
<g filter="url(#filter0_d_3982_17230)">
<rect x="24" y="16" width="213" height="184" rx="8" fill="white" shape-rendering="crispEdges"/>
<g clip-path="url(#clip0_3982_17230)">
<path d="M137.165 90.5003H126.499C122.824 90.5003 119.832 87.5083 119.832 83.8337V78.5003C119.832 77.7643 120.429 77.167 121.165 77.167C121.901 77.167 122.499 77.7643 122.499 78.5003V83.8337C122.499 86.039 124.293 87.8337 126.499 87.8337H137.165C137.901 87.8337 138.499 88.431 138.499 89.167C138.499 89.903 137.901 90.5003 137.165 90.5003Z" fill="#646AEC"/>
<path d="M126.5 63.8337H99.8333C99.0973 63.8337 98.5 63.2363 98.5 62.5003C98.5 61.7643 99.0973 61.167 99.8333 61.167H126.5C127.236 61.167 127.833 61.7643 127.833 62.5003C127.833 63.2363 127.236 63.8337 126.5 63.8337Z" fill="#646AEC"/>
<path d="M141.165 98.5C138.224 98.5 135.832 96.108 135.832 93.1667V45.1667C135.832 42.8733 137.304 40.844 139.493 40.1133L155.493 34.78C156 34.5987 156.573 34.5 157.165 34.5C160.107 34.5 162.499 36.892 162.499 39.8333V87.8333C162.499 90.124 161.029 92.156 158.84 92.884L142.84 98.2173C142.325 98.4013 141.752 98.5 141.165 98.5ZM157.165 37.1667C156.888 37.1667 156.611 37.2147 156.365 37.3L140.336 42.644C139.235 43.0093 138.499 44.0227 138.499 45.1667V93.1667C138.499 94.636 139.696 95.8333 141.165 95.8333C141.443 95.8333 141.72 95.7853 141.971 95.6973L157.997 90.356C159.093 89.988 159.832 88.9747 159.832 87.8333V39.8333C159.832 38.364 158.635 37.1667 157.165 37.1667Z" fill="#646AEC"/>
<path d="M121.165 47.8333C120.429 47.8333 119.832 47.236 119.832 46.5V41.1667C119.832 37.492 122.824 34.5 126.499 34.5H157.165C157.901 34.5 158.499 35.0973 158.499 35.8333C158.499 36.5693 157.901 37.1667 157.165 37.1667H126.499C124.293 37.1667 122.499 38.9613 122.499 41.1667V46.5C122.499 47.236 121.901 47.8333 121.165 47.8333Z" fill="#646AEC"/>
<path d="M115.834 74.5C115.493 74.5 115.151 74.3693 114.89 74.1106C114.37 73.5906 114.37 72.7453 114.89 72.2253L124.615 62.5L114.89 52.7773C114.37 52.2573 114.37 51.412 114.89 50.892C115.41 50.372 116.255 50.372 116.775 50.892L127.442 61.5586C127.962 62.0786 127.962 62.924 127.442 63.444L116.775 74.1106C116.517 74.3693 116.175 74.5 115.834 74.5Z" fill="#646AEC"/>
</g>
<path d="M102.654 141.5L98.8943 131.96V141.5H96.1343V127.14H99.7743L103.934 137.78L108.114 127.14H111.754V141.5H108.994V131.88L105.194 141.5H102.654ZM121.309 141.5V140.18C120.609 141.18 119.549 141.7 118.089 141.7C115.869 141.7 114.389 140.4 114.389 138.4C114.389 136.32 116.069 135.2 119.189 135.2C119.789 135.2 120.309 135.24 120.969 135.32V134.68C120.969 133.48 120.289 132.78 119.129 132.78C117.929 132.78 117.209 133.48 117.109 134.68H114.609C114.769 132.22 116.549 130.62 119.129 130.62C121.929 130.62 123.569 132.16 123.569 134.78V141.5H121.309ZM117.009 138.32C117.009 139.22 117.649 139.78 118.689 139.78C120.109 139.78 120.969 139 120.969 137.76V137C120.309 136.9 119.849 136.86 119.369 136.86C117.789 136.86 117.009 137.36 117.009 138.32ZM129.245 136.32V141.5H126.465V130.82H129.025V132.88C129.805 131.52 131.465 130.7 133.185 130.7V133.58C130.825 133.4 129.245 133.96 129.245 136.32ZM137.909 141.5H135.129V127.14H137.909V135.34L141.809 130.82H145.009L140.589 135.94L145.529 141.5H141.989L137.909 136.54V141.5ZM151.284 141.68C148.084 141.68 145.944 139.46 145.944 136.12C145.944 132.94 148.164 130.62 151.244 130.62C154.624 130.62 156.864 133.36 156.364 136.84H148.784C148.964 138.58 149.804 139.54 151.224 139.54C152.444 139.54 153.264 138.94 153.584 137.88H156.344C155.744 140.3 153.884 141.68 151.284 141.68ZM151.184 132.66C149.884 132.66 149.064 133.5 148.824 135.08H153.424C153.344 133.6 152.504 132.66 151.184 132.66ZM165.288 138.8V141.22C164.608 141.56 163.968 141.7 163.148 141.7C160.948 141.7 159.568 140.44 159.568 138.04V133.2H157.408V130.82H159.568V127.66H162.328V130.82H165.388V133.2H162.328V137.4C162.328 138.64 162.888 139.14 163.888 139.14C164.408 139.14 164.888 139.02 165.288 138.8ZM114.927 170.86V173.5H105.267V159.14H114.787V161.78H108.307V164.8H114.187V167.42H108.307V170.86H114.927ZM120.319 167.68V173.5H117.539V162.82H120.099V164.34C120.879 163.28 121.979 162.62 123.379 162.62C125.519 162.62 126.999 164.02 126.999 166.6V173.5H124.239V167.54C124.239 165.96 123.619 165.08 122.359 165.08C121.259 165.08 120.319 165.96 120.319 167.68ZM136.456 170.8V173.22C135.776 173.56 135.136 173.7 134.316 173.7C132.116 173.7 130.736 172.44 130.736 170.04V165.2H128.576V162.82H130.736V159.66H133.496V162.82H136.556V165.2H133.496V169.4C133.496 170.64 134.056 171.14 135.056 171.14C135.576 171.14 136.056 171.02 136.456 170.8ZM141.534 168.32V173.5H138.754V162.82H141.314V164.88C142.094 163.52 143.754 162.7 145.474 162.7V165.58C143.114 165.4 141.534 165.96 141.534 168.32ZM157.233 162.82L152.033 177.36H149.013L150.533 173.38L146.333 162.82H149.333L152.013 170.14L154.453 162.82H157.233Z" fill="#4D4D4D"/>
</g>
<defs>
<filter id="filter0_d_3982_17230" x="0" y="0" width="261" height="232" filterUnits="userSpaceOnUse" color-interpolation-filters="sRGB">
<feFlood flood-opacity="0" result="BackgroundImageFix"/>
<feColorMatrix in="SourceAlpha" type="matrix" values="0 0 0 0 0 0 0 0 0 0 0 0 0 0 0 0 0 0 127 0" result="hardAlpha"/>
<feOffset dy="8"/>
<feGaussianBlur stdDeviation="12"/>
<feComposite in2="hardAlpha" operator="out"/>
<feColorMatrix type="matrix" values="0 0 0 0 0.760784 0 0 0 0 0.760784 0 0 0 0 0.760784 0 0 0 0.2 0"/>
<feBlend mode="normal" in2="BackgroundImageFix" result="effect1_dropShadow_3982_17230"/>
<feBlend mode="normal" in="SourceGraphic" in2="effect1_dropShadow_3982_17230" result="shape"/>
</filter>
<clipPath id="clip0_3982_17230">
<rect width="64" height="64" fill="white" transform="translate(98.5 34.5)"/>
</clipPath>
</defs>
</svg>
