<svg width="261" height="232" viewBox="0 0 261 232" fill="none" xmlns="http://www.w3.org/2000/svg">
<g filter="url(#filter0_d_3982_17223)">
<rect x="24" y="16" width="213" height="184" rx="8" fill="white" shape-rendering="crispEdges"/>
<path d="M80.2009 137.277H77.1609V122.917H86.4409V125.557H80.2009V129.177H85.4609V131.797H80.2009V137.277ZM92.0081 124.117C92.0081 125.057 91.2481 125.757 90.1481 125.757C89.0681 125.757 88.3081 125.057 88.3081 124.117C88.3081 123.137 89.0681 122.437 90.1481 122.437C91.2481 122.437 92.0081 123.137 92.0081 124.117ZM91.5681 137.277H88.7881V126.597H91.5681V137.277ZM99.182 137.457C95.982 137.457 93.842 135.237 93.842 131.897C93.842 128.717 96.062 126.397 99.142 126.397C102.522 126.397 104.762 129.137 104.262 132.617H96.682C96.862 134.357 97.702 135.317 99.122 135.317C100.342 135.317 101.162 134.717 101.482 133.657H104.242C103.642 136.077 101.782 137.457 99.182 137.457ZM99.082 128.437C97.782 128.437 96.962 129.277 96.722 130.857H101.322C101.242 129.377 100.402 128.437 99.082 128.437ZM109.424 137.277H106.624V122.917H109.424V137.277ZM111.717 131.937C111.717 128.777 113.577 126.397 116.457 126.397C117.737 126.397 118.817 126.957 119.617 127.977V122.917H122.377V137.277H119.837V135.737C118.997 136.857 117.837 137.477 116.457 137.477C113.577 137.477 111.717 135.057 111.717 131.937ZM114.577 131.937C114.577 133.937 115.717 134.997 117.077 134.997C118.457 134.997 119.597 133.917 119.597 131.897C119.597 129.877 118.437 128.857 117.077 128.857C115.717 128.857 114.577 129.897 114.577 131.937ZM133.318 137.277H130.278V122.917H139.558V125.557H133.318V129.177H138.578V131.797H133.318V137.277ZM146.274 137.477C143.174 137.477 140.854 135.037 140.854 131.937C140.854 128.817 143.174 126.397 146.274 126.397C149.374 126.397 151.694 128.817 151.694 131.937C151.694 135.037 149.374 137.477 146.274 137.477ZM146.274 135.017C147.654 135.017 148.834 133.917 148.834 131.937C148.834 129.957 147.654 128.877 146.274 128.877C144.894 128.877 143.714 129.957 143.714 131.937C143.714 133.917 144.894 135.017 146.274 135.017ZM156.748 132.097V137.277H153.968V126.597H156.528V128.657C157.308 127.297 158.968 126.477 160.688 126.477V129.357C158.328 129.177 156.748 129.737 156.748 132.097ZM167.054 137.477C163.974 137.477 161.854 135.197 161.854 131.937C161.854 128.737 164.054 126.397 167.054 126.397C169.834 126.397 171.894 128.277 172.234 131.157H169.314C169.174 129.737 168.314 128.857 167.054 128.857C165.614 128.857 164.694 130.037 164.694 131.937C164.694 133.857 165.594 135.017 167.054 135.017C168.334 135.017 169.154 134.177 169.314 132.717H172.234C171.914 135.657 169.914 137.477 167.054 137.477ZM179.119 137.457C175.919 137.457 173.779 135.237 173.779 131.897C173.779 128.717 175.999 126.397 179.079 126.397C182.459 126.397 184.699 129.137 184.199 132.617H176.619C176.799 134.357 177.639 135.317 179.059 135.317C180.279 135.317 181.099 134.717 181.419 133.657H184.179C183.579 136.077 181.719 137.457 179.119 137.457ZM179.019 128.437C177.719 128.437 176.899 129.277 176.659 130.857H181.259C181.179 129.377 180.339 128.437 179.019 128.437ZM94.3788 164.597H92.1188V169.277H89.0788V154.917H94.3788C97.8788 154.917 100.059 156.577 100.059 159.697C100.059 162.817 97.8788 164.597 94.3788 164.597ZM94.3588 157.477H92.1188V162.037H94.3588C96.0788 162.037 97.0388 161.137 97.0388 159.717C97.0388 158.297 96.0788 157.477 94.3588 157.477ZM105.186 169.277H102.386V154.917H105.186V169.277ZM114.539 169.277V167.957C113.839 168.957 112.779 169.477 111.319 169.477C109.099 169.477 107.619 168.177 107.619 166.177C107.619 164.097 109.299 162.977 112.419 162.977C113.019 162.977 113.539 163.017 114.199 163.097V162.457C114.199 161.257 113.519 160.557 112.359 160.557C111.159 160.557 110.439 161.257 110.339 162.457H107.839C107.999 159.997 109.779 158.397 112.359 158.397C115.159 158.397 116.799 159.937 116.799 162.557V169.277H114.539ZM110.239 166.097C110.239 166.997 110.879 167.557 111.919 167.557C113.339 167.557 114.199 166.777 114.199 165.537V164.777C113.539 164.677 113.079 164.637 112.599 164.637C111.019 164.637 110.239 165.137 110.239 166.097ZM122.474 163.457V169.277H119.694V158.597H122.254V160.117C123.034 159.057 124.134 158.397 125.534 158.397C127.674 158.397 129.154 159.797 129.154 162.377V169.277H126.394V163.317C126.394 161.737 125.774 160.857 124.514 160.857C123.414 160.857 122.474 161.737 122.474 163.457ZM134.83 163.457V169.277H132.05V158.597H134.61V160.117C135.39 159.057 136.49 158.397 137.89 158.397C140.03 158.397 141.51 159.797 141.51 162.377V169.277H138.75V163.317C138.75 161.737 138.13 160.857 136.87 160.857C135.77 160.857 134.83 161.737 134.83 163.457ZM147.625 156.117C147.625 157.057 146.865 157.757 145.765 157.757C144.685 157.757 143.925 157.057 143.925 156.117C143.925 155.137 144.685 154.437 145.765 154.437C146.865 154.437 147.625 155.137 147.625 156.117ZM147.185 169.277H144.405V158.597H147.185V169.277ZM152.939 163.457V169.277H150.159V158.597H152.719V160.117C153.499 159.057 154.599 158.397 155.999 158.397C158.139 158.397 159.619 159.797 159.619 162.377V169.277H156.859V163.317C156.859 161.737 156.239 160.857 154.979 160.857C153.879 160.857 152.939 161.737 152.939 163.457ZM167.055 173.337C164.175 173.337 162.255 171.777 162.135 169.317H164.815C164.935 170.537 165.715 171.177 167.035 171.177C168.575 171.177 169.375 170.357 169.375 168.817V167.257C168.795 168.277 167.695 168.877 166.395 168.877C163.775 168.877 161.815 166.657 161.815 163.637C161.815 160.537 163.655 158.397 166.295 158.397C167.735 158.397 168.815 158.957 169.595 160.057V158.597H172.135V168.777C172.135 171.617 170.215 173.337 167.055 173.337ZM164.595 163.637C164.595 165.377 165.495 166.477 166.935 166.477C168.395 166.477 169.355 165.337 169.355 163.657C169.355 161.917 168.395 160.797 166.935 160.797C165.515 160.797 164.595 161.897 164.595 163.637Z" fill="#4D4D4D"/>
<g clip-path="url(#clip0_3982_17223)">
<path d="M156.983 90.5748C158.006 89.6313 158.659 88.2916 158.659 86.7937V84.7292C158.659 81.8835 156.343 79.568 153.497 79.568C151.006 79.568 148.92 81.3447 148.44 83.697H145.05C144.622 82.4984 143.487 81.6325 142.143 81.6325C140.799 81.6325 139.663 82.4984 139.236 83.697H135.845C135.433 81.6778 133.839 80.0841 131.821 79.6724V77.3569C133.597 76.8957 134.917 75.2934 134.917 73.3746H135.949C136.52 73.3746 136.982 72.9134 136.982 72.3424V69.2457H139.046V67.1812H136.982V67.1701C136.982 65.1954 137.918 63.2544 139.55 61.8487C142.509 59.2958 144.207 55.5963 144.207 51.6977C144.207 48.0108 142.742 44.5734 140.082 42.0185C137.424 39.4636 133.911 38.13 130.235 38.2903C123.267 38.571 117.496 44.4761 117.371 51.4533C117.3 55.4023 118.965 59.1638 121.94 61.7736C123.577 63.208 124.528 65.1707 124.584 67.1812H122.53V69.2457H124.595V72.3424C124.595 72.9134 125.056 73.3746 125.627 73.3746H126.659C126.659 75.2934 127.979 76.8957 129.756 77.3569V79.6724C127.737 80.0841 126.143 81.6778 125.731 83.697H122.34C121.913 82.4984 120.777 81.6325 119.434 81.6325C118.09 81.6325 116.954 82.4984 116.527 83.697H113.136C112.656 81.3447 110.572 79.568 108.079 79.568C105.233 79.568 102.918 81.8835 102.918 84.7292V86.7937C102.918 88.2916 103.57 89.6313 104.593 90.5748C101.194 91.9568 98.7891 95.2909 98.7891 99.1805V101.245C98.7891 101.816 99.2502 102.277 99.8213 102.277H116.337C116.908 102.277 117.369 101.816 117.369 101.245V99.1805C117.369 95.2909 114.964 91.9568 111.565 90.5748C112.588 89.6313 113.24 88.2916 113.24 86.7937V85.7614H116.527C116.954 86.96 118.09 87.8259 119.434 87.8259C120.777 87.8259 121.913 86.96 122.34 85.7614H125.627V86.7937C125.627 88.2916 126.279 89.6313 127.302 90.5748C123.903 91.9568 121.498 95.2909 121.498 99.1805V101.245C121.498 101.816 121.959 102.277 122.53 102.277H139.046C139.617 102.277 140.078 101.816 140.078 101.245V99.1805C140.078 95.2909 137.673 91.9568 134.274 90.5748C135.297 89.6313 135.949 88.2916 135.949 86.7937V85.7614H139.236C139.663 86.96 140.799 87.8259 142.143 87.8259C143.487 87.8259 144.622 86.96 145.05 85.7614H148.336V86.7937C148.336 88.2916 148.988 89.6313 150.011 90.5748C146.612 91.9568 144.207 95.2909 144.207 99.1805V101.245C144.207 101.816 144.669 102.277 145.24 102.277H161.755C162.326 102.277 162.788 101.816 162.788 101.245V99.1805C162.788 95.2909 160.382 91.9568 156.983 90.5748ZM115.305 99.1805V100.213H113.24V98.1482H111.176V100.213H104.982V98.1482H102.918V100.213H100.854V99.1805C100.854 95.1972 104.095 91.9548 108.079 91.9548C112.062 91.9548 115.305 95.1972 115.305 99.1805ZM104.982 86.7937V84.7292C104.982 83.0221 106.372 81.6325 108.079 81.6325C109.786 81.6325 111.176 83.0221 111.176 84.7292V86.7937C111.176 88.5008 109.786 89.8904 108.079 89.8904C106.372 89.8904 104.982 88.5008 104.982 86.7937ZM119.434 85.7614C118.864 85.7614 118.402 85.2992 118.402 84.7292C118.402 84.1596 118.864 83.697 119.434 83.697C120.003 83.697 120.466 84.1596 120.466 84.7292C120.466 85.2992 120.003 85.7614 119.434 85.7614ZM123.3 60.2207C120.784 58.0131 119.375 54.8307 119.436 51.4891C119.542 45.586 124.424 40.5901 130.318 40.3522C133.467 40.2378 136.404 41.3477 138.652 43.5079C140.903 45.6686 142.143 48.5783 142.143 51.6977C142.143 54.9955 140.706 58.1255 138.201 60.2837C136.114 62.0841 134.917 64.5936 134.917 67.1701V67.1812H126.649C126.593 64.5769 125.385 62.0478 123.3 60.2207ZM134.917 69.2457V71.3102H126.659V69.2457H134.917ZM128.724 73.3746H132.853C132.853 74.5132 131.926 75.4391 130.788 75.4391C129.65 75.4391 128.724 74.5132 128.724 73.3746ZM138.014 99.1805V100.213H135.949V98.1482H133.885V100.213H127.692V98.1482H125.627V100.213H123.563V99.1805C123.563 95.1972 126.805 91.9548 130.788 91.9548C134.772 91.9548 138.014 95.1972 138.014 99.1805ZM127.692 86.7937V84.7292C127.692 83.0221 129.081 81.6325 130.788 81.6325C132.495 81.6325 133.885 83.0221 133.885 84.7292V86.7937C133.885 88.5008 132.495 89.8904 130.788 89.8904C129.081 89.8904 127.692 88.5008 127.692 86.7937ZM142.143 85.7614C141.573 85.7614 141.111 85.2992 141.111 84.7292C141.111 84.1596 141.573 83.697 142.143 83.697C142.712 83.697 143.175 84.1596 143.175 84.7292C143.175 85.2992 142.712 85.7614 142.143 85.7614ZM150.401 86.7937V84.7292C150.401 83.0221 151.79 81.6325 153.497 81.6325C155.205 81.6325 156.594 83.0221 156.594 84.7292V86.7937C156.594 88.5008 155.205 89.8904 153.497 89.8904C151.79 89.8904 150.401 88.5008 150.401 86.7937ZM160.723 100.213H158.659V98.1482H156.594V100.213H150.401V98.1482H148.336V100.213H146.272V99.1805C146.272 95.1972 149.514 91.9548 153.497 91.9548C157.481 91.9548 160.723 95.1972 160.723 99.1805V100.213Z" fill="#646AEC"/>
<path d="M128.727 63.0527H132.856V65.1173H128.727V63.0527Z" fill="#646AEC"/>
<path d="M129.76 56.7541V58.9229H131.824V56.7541C132.482 56.6201 133.093 56.358 133.634 55.9986L135.223 57.5883L136.683 56.1287L135.093 54.539C135.452 53.9982 135.714 53.3873 135.849 52.7295H138.018V50.6651H135.849C135.714 50.0073 135.452 49.3965 135.093 48.8556L136.683 47.266L135.223 45.8063L133.634 47.396C133.093 47.0366 132.482 46.7745 131.824 46.6405V44.4717H129.76V46.6405C129.102 46.7745 128.491 47.0366 127.95 47.396L126.36 45.8063L124.901 47.266L126.491 48.8556C126.131 49.3965 125.869 50.0073 125.735 50.6651H123.566V52.7295H125.735C125.869 53.3873 126.131 53.9982 126.491 54.539L124.901 56.1287L126.36 57.5883L127.95 55.9986C128.491 56.358 129.102 56.6201 129.76 56.7541ZM130.792 48.6006C132.499 48.6006 133.889 49.9902 133.889 51.6973C133.889 53.4044 132.499 54.794 130.792 54.794C129.084 54.794 127.695 53.4044 127.695 51.6973C127.695 49.9902 129.084 48.6006 130.792 48.6006Z" fill="#646AEC"/>
</g>
</g>
<defs>
<filter id="filter0_d_3982_17223" x="0" y="0" width="261" height="232" filterUnits="userSpaceOnUse" color-interpolation-filters="sRGB">
<feFlood flood-opacity="0" result="BackgroundImageFix"/>
<feColorMatrix in="SourceAlpha" type="matrix" values="0 0 0 0 0 0 0 0 0 0 0 0 0 0 0 0 0 0 127 0" result="hardAlpha"/>
<feOffset dy="8"/>
<feGaussianBlur stdDeviation="12"/>
<feComposite in2="hardAlpha" operator="out"/>
<feColorMatrix type="matrix" values="0 0 0 0 0.760784 0 0 0 0 0.760784 0 0 0 0 0.760784 0 0 0 0.2 0"/>
<feBlend mode="normal" in2="BackgroundImageFix" result="effect1_dropShadow_3982_17223"/>
<feBlend mode="normal" in="SourceGraphic" in2="effect1_dropShadow_3982_17223" result="shape"/>
</filter>
<clipPath id="clip0_3982_17223">
<rect width="64" height="64" fill="white" transform="translate(98.7891 38.2773)"/>
</clipPath>
</defs>
</svg>
