<svg width="270" height="230" viewBox="0 0 270 230" fill="none" xmlns="http://www.w3.org/2000/svg">
<g filter="url(#filter0_d_3982_17179)">
<rect x="24" y="16.5" width="222" height="181" rx="8" fill="white" shape-rendering="crispEdges"/>
<g clip-path="url(#clip0_3982_17179)">
<path d="M143.829 51.632C145.552 51.632 146.954 50.2301 146.954 48.507C146.954 46.7838 145.552 45.3818 143.829 45.3818C142.106 45.3818 140.704 46.7838 140.704 48.507C140.704 49.2107 140.938 49.8607 141.332 50.3837L136.197 57.5588C135.891 57.4582 135.564 57.403 135.224 57.403C134.403 57.403 133.656 57.7218 133.097 58.2416L129.675 56.2996C129.72 56.0876 129.745 55.8678 129.745 55.6425C129.745 53.9193 128.343 52.5175 126.62 52.5175C124.897 52.5175 123.495 53.9193 123.495 55.6425C123.495 55.8678 123.52 56.0876 123.565 56.2996L120.143 58.2416C119.584 57.7218 118.837 57.4031 118.016 57.4031C116.293 57.4031 114.891 58.8051 114.891 60.5282C114.891 62.2513 116.293 63.6533 118.016 63.6533C119.739 63.6533 121.141 62.2513 121.141 60.5282C121.141 60.3028 121.116 60.0831 121.071 59.8711L124.493 57.9291C125.051 58.4488 125.799 58.7677 126.62 58.7677C127.441 58.7677 128.189 58.4488 128.747 57.9292L132.17 59.8712C132.124 60.0832 132.099 60.303 132.099 60.5283C132.099 62.2515 133.501 63.6535 135.224 63.6535C136.948 63.6535 138.35 62.2515 138.35 60.5283C138.35 59.8245 138.115 59.1743 137.721 58.6513L142.856 51.4762C143.162 51.5767 143.489 51.632 143.829 51.632ZM143.829 47.2568C144.518 47.2568 145.079 47.8176 145.079 48.507C145.079 49.1962 144.518 49.757 143.829 49.757C143.139 49.757 142.579 49.1962 142.579 48.507C142.579 47.8176 143.139 47.2568 143.829 47.2568ZM118.015 61.7781C117.326 61.7781 116.765 61.2173 116.765 60.528C116.765 59.8386 117.326 59.2778 118.015 59.2778C118.705 59.2778 119.265 59.8386 119.265 60.528C119.265 61.2173 118.705 61.7781 118.015 61.7781ZM126.62 56.8925C125.931 56.8925 125.37 56.3317 125.37 55.6423C125.37 54.9531 125.931 54.3923 126.62 54.3923C127.309 54.3923 127.87 54.9531 127.87 55.6423C127.87 56.3317 127.309 56.8925 126.62 56.8925ZM135.224 61.7781C134.535 61.7781 133.974 61.2173 133.974 60.528C133.974 59.8386 134.535 59.2778 135.224 59.2778C135.914 59.2778 136.474 59.8386 136.474 60.528C136.474 61.2173 135.913 61.7781 135.224 61.7781Z" fill="#646AEC"/>
<path d="M155.349 82.1198H148.789H113.054H105.652C105.224 82.1198 104.875 81.7713 104.875 81.3429V42.6655C104.875 42.2372 105.224 41.8887 105.652 41.8887H110.071C110.589 41.8887 111.009 41.469 111.009 40.9512C111.009 40.4333 110.589 40.0137 110.071 40.0137H105.652C104.19 40.0137 103 41.2033 103 42.6655V81.3429C103 82.8052 104.19 83.9948 105.652 83.9948H112.116V86.058C112.116 87.2334 113.072 88.1897 114.248 88.1897H123.632L119.214 96.8144C118.978 97.2753 119.16 97.8402 119.621 98.0763C119.758 98.1464 119.904 98.1795 120.048 98.1795C120.389 98.1795 120.717 97.9933 120.883 97.6692L125.739 88.1897H136.104L140.959 97.6692C141.125 97.9933 141.454 98.1795 141.794 98.1795C141.938 98.1795 142.084 98.1462 142.221 98.0763C142.682 97.8402 142.864 97.2753 142.628 96.8144L138.21 88.1897H147.595C148.77 88.1897 149.726 87.2335 149.726 86.058V83.9948H155.349C155.867 83.9948 156.287 83.5752 156.287 83.0573C156.287 82.5394 155.867 82.1198 155.349 82.1198ZM147.851 86.058C147.851 86.1995 147.736 86.3147 147.595 86.3147H114.248C114.106 86.3147 113.991 86.1995 113.991 86.058V83.9948H147.851V86.058Z" fill="#646AEC"/>
<path d="M113.82 41.8891H126.654H135.186H156.189C156.618 41.8891 156.966 42.2376 156.966 42.666V51.5798C156.966 52.0977 157.386 52.5173 157.904 52.5173C158.421 52.5173 158.841 52.0977 158.841 51.5798V42.666C158.841 41.2037 157.651 40.0141 156.189 40.0141H136.123V38.1713C136.123 36.8745 135.068 35.8193 133.771 35.8193H128.069C126.772 35.8193 125.717 36.8745 125.717 38.1713V40.0141H113.82C113.303 40.0141 112.883 40.4337 112.883 40.9516C112.883 41.4695 113.303 41.8891 113.82 41.8891ZM127.592 38.1713C127.592 37.9083 127.806 37.6943 128.069 37.6943H133.771C134.034 37.6943 134.248 37.9083 134.248 38.1713V40.0141H127.592V38.1713H127.592Z" fill="#646AEC"/>
<path d="M116.113 68.4463C115.596 68.4463 115.176 68.8659 115.176 69.3838V77.6678C115.176 78.1857 115.596 78.6053 116.113 78.6053H119.917C120.434 78.6053 120.854 78.1857 120.854 77.6678V69.3838C120.854 68.8659 120.434 68.4463 119.917 68.4463H116.113ZM118.979 76.7304H117.051V70.3214H118.979V76.7304Z" fill="#646AEC"/>
<path d="M124.719 63.6553C124.201 63.6553 123.781 64.0749 123.781 64.5928V77.6679C123.781 78.1858 124.201 78.6054 124.719 78.6054H128.522C129.04 78.6054 129.46 78.1858 129.46 77.6679V64.5928C129.46 64.0749 129.04 63.6553 128.522 63.6553H124.719ZM127.585 76.7304H125.656V65.5303H127.585V76.7304Z" fill="#646AEC"/>
<path d="M133.32 68.4463C132.803 68.4463 132.383 68.8659 132.383 69.3838V77.6678C132.383 78.1857 132.803 78.6053 133.32 78.6053H137.124C137.641 78.6053 138.061 78.1857 138.061 77.6678V69.3838C138.061 68.8659 137.641 68.4463 137.124 68.4463H133.32ZM136.186 76.7304H134.258V70.3214H136.186V76.7304Z" fill="#646AEC"/>
<path d="M141.926 73.9785C141.408 73.9785 140.988 74.3981 140.988 74.916V77.6681C140.988 78.186 141.408 78.6056 141.926 78.6056H145.729C146.247 78.6056 146.667 78.186 146.667 77.6681C146.667 77.1503 146.247 76.7306 145.729 76.7306H142.863V74.916C142.863 74.3981 142.444 73.9785 141.926 73.9785Z" fill="#646AEC"/>
<path d="M166.522 83.0017L161.143 73.6859C162.506 72.2336 163.498 70.4589 164.028 68.4809C164.875 65.3196 164.441 62.0174 162.804 59.1829C159.426 53.3313 151.917 51.3197 146.066 54.6978C140.214 58.0759 138.202 65.5848 141.581 71.4362C143.217 74.2707 145.86 76.2982 149.021 77.1454C150.077 77.4283 151.148 77.5682 152.212 77.5682C153.142 77.5682 154.067 77.4612 154.972 77.2494L160.349 86.5654C161.008 87.7076 162.208 88.3467 163.441 88.3466C164.045 88.3466 164.657 88.1929 165.217 87.8699C166.317 87.2353 167 86.0519 167 84.7817C167 84.1593 166.835 83.5439 166.522 83.0017ZM149.506 75.3343C146.829 74.6168 144.59 72.8994 143.204 70.4987C140.343 65.5427 142.047 59.1829 147.003 56.3216C148.633 55.3803 150.415 54.9333 152.175 54.9333C155.764 54.9333 159.26 56.7949 161.18 60.1204C162.566 62.5212 162.934 65.3179 162.217 67.9957C161.499 70.6734 159.782 72.9113 157.381 74.2974C154.981 75.6836 152.184 76.0516 149.506 75.3343ZM164.28 86.2459C163.473 86.7117 162.438 86.4344 161.973 85.6282L156.8 76.6652C157.318 76.4536 157.826 76.2061 158.319 75.9213C158.813 75.6363 159.28 75.3191 159.723 74.9756L164.898 83.9389C165.046 84.1966 165.125 84.4881 165.125 84.7818C165.125 85.3841 164.801 85.9452 164.28 86.2459Z" fill="#646AEC"/>
<path d="M160.694 67.9514C161.356 65.8194 161.199 63.5369 160.25 61.5244C160.03 61.0559 159.471 60.8552 159.003 61.0758C158.534 61.2966 158.334 61.8551 158.554 62.3234C159.302 63.9109 159.426 65.7121 158.904 67.3953C158.378 69.0878 157.243 70.5082 155.707 71.3949C154.082 72.3334 152.188 72.5824 150.376 72.0968C148.563 71.6111 147.048 70.4484 146.109 68.8232C144.172 65.4681 145.326 61.1626 148.681 59.2254C151.134 57.8093 154.179 57.9986 156.437 59.7076C156.85 60.0201 157.438 59.9387 157.751 59.5257C158.063 59.1128 157.982 58.5248 157.569 58.2124C154.707 56.0473 150.851 55.8077 147.743 57.6016C145.684 58.7903 144.212 60.7098 143.596 63.0063C142.981 65.3028 143.297 67.7016 144.485 69.7606C145.674 71.8197 147.594 73.2924 149.89 73.9079C150.657 74.1134 151.435 74.2151 152.208 74.2151C153.751 74.2151 155.273 73.8106 156.644 73.0187C158.59 71.8954 160.029 70.0959 160.694 67.9514Z" fill="#646AEC"/>
</g>
<path d="M91.7852 139L88.0252 129.46V139H85.2652V124.64H88.9052L93.0652 135.28L97.2452 124.64H100.885V139H98.1252V129.38L94.3252 139H91.7852ZM110.44 139V137.68C109.74 138.68 108.68 139.2 107.22 139.2C105 139.2 103.52 137.9 103.52 135.9C103.52 133.82 105.2 132.7 108.32 132.7C108.92 132.7 109.44 132.74 110.1 132.82V132.18C110.1 130.98 109.42 130.28 108.26 130.28C107.06 130.28 106.34 130.98 106.24 132.18H103.74C103.9 129.72 105.68 128.12 108.26 128.12C111.06 128.12 112.7 129.66 112.7 132.28V139H110.44ZM106.14 135.82C106.14 136.72 106.78 137.28 107.82 137.28C109.24 137.28 110.1 136.5 110.1 135.26V134.5C109.44 134.4 108.98 134.36 108.5 134.36C106.92 134.36 106.14 134.86 106.14 135.82ZM118.375 133.82V139H115.595V128.32H118.155V130.38C118.935 129.02 120.595 128.2 122.315 128.2V131.08C119.955 130.9 118.375 131.46 118.375 133.82ZM127.04 139H124.26V124.64H127.04V132.84L130.94 128.32H134.14L129.72 133.44L134.66 139H131.12L127.04 134.04V139ZM140.415 139.18C137.215 139.18 135.075 136.96 135.075 133.62C135.075 130.44 137.295 128.12 140.375 128.12C143.755 128.12 145.995 130.86 145.495 134.34H137.915C138.095 136.08 138.935 137.04 140.355 137.04C141.575 137.04 142.395 136.44 142.715 135.38H145.475C144.875 137.8 143.015 139.18 140.415 139.18ZM140.315 130.16C139.015 130.16 138.195 131 137.955 132.58H142.555C142.475 131.1 141.635 130.16 140.315 130.16ZM154.419 136.3V138.72C153.739 139.06 153.099 139.2 152.279 139.2C150.079 139.2 148.699 137.94 148.699 135.54V130.7H146.539V128.32H148.699V125.16H151.459V128.32H154.519V130.7H151.459V134.9C151.459 136.14 152.019 136.64 153.019 136.64C153.539 136.64 154.019 136.52 154.419 136.3ZM159.937 125.84C159.937 126.78 159.177 127.48 158.077 127.48C156.997 127.48 156.237 126.78 156.237 125.84C156.237 124.86 156.997 124.16 158.077 124.16C159.177 124.16 159.937 124.86 159.937 125.84ZM159.497 139H156.717V128.32H159.497V139ZM165.25 133.18V139H162.47V128.32H165.03V129.84C165.81 128.78 166.91 128.12 168.31 128.12C170.45 128.12 171.93 129.52 171.93 132.1V139H169.17V133.04C169.17 131.46 168.55 130.58 167.29 130.58C166.19 130.58 165.25 131.46 165.25 133.18ZM179.366 143.06C176.486 143.06 174.566 141.5 174.446 139.04H177.126C177.246 140.26 178.026 140.9 179.346 140.9C180.886 140.9 181.686 140.08 181.686 138.54V136.98C181.106 138 180.006 138.6 178.706 138.6C176.086 138.6 174.126 136.38 174.126 133.36C174.126 130.26 175.966 128.12 178.606 128.12C180.046 128.12 181.126 128.68 181.906 129.78V128.32H184.446V138.5C184.446 141.34 182.526 143.06 179.366 143.06ZM176.906 133.36C176.906 135.1 177.806 136.2 179.246 136.2C180.706 136.2 181.666 135.06 181.666 133.38C181.666 131.64 180.706 130.52 179.246 130.52C177.826 130.52 176.906 131.62 176.906 133.36ZM104.07 166.54C104.07 169.28 101.87 171.2 98.2703 171.2C94.6503 171.2 92.3903 169.26 92.1703 166.22H95.2503C95.3303 167.8 96.3503 168.82 98.2103 168.82C99.7503 168.82 100.85 168.14 100.85 166.98C100.85 166.08 100.15 165.54 98.9303 165.3L96.5703 164.84C94.3903 164.42 92.7103 163.24 92.7103 160.86C92.7103 158.3 94.9703 156.46 98.0703 156.46C101.29 156.46 103.65 158.34 103.85 161.34H100.77C100.67 159.84 99.6303 158.82 98.1103 158.82C96.6303 158.82 95.7903 159.66 95.7903 160.66C95.7903 161.64 96.6903 162.06 97.7303 162.26L100.19 162.76C102.71 163.26 104.07 164.42 104.07 166.54ZM113.29 168.3V170.72C112.61 171.06 111.97 171.2 111.15 171.2C108.95 171.2 107.57 169.94 107.57 167.54V162.7H105.41V160.32H107.57V157.16H110.33V160.32H113.39V162.7H110.33V166.9C110.33 168.14 110.89 168.64 111.89 168.64C112.41 168.64 112.89 168.52 113.29 168.3ZM118.368 165.82V171H115.588V160.32H118.148V162.38C118.928 161.02 120.588 160.2 122.308 160.2V163.08C119.948 162.9 118.368 163.46 118.368 165.82ZM130.612 171V169.68C129.912 170.68 128.852 171.2 127.392 171.2C125.172 171.2 123.692 169.9 123.692 167.9C123.692 165.82 125.372 164.7 128.492 164.7C129.092 164.7 129.612 164.74 130.272 164.82V164.18C130.272 162.98 129.592 162.28 128.432 162.28C127.232 162.28 126.512 162.98 126.412 164.18H123.912C124.072 161.72 125.852 160.12 128.432 160.12C131.232 160.12 132.872 161.66 132.872 164.28V171H130.612ZM126.312 167.82C126.312 168.72 126.952 169.28 127.992 169.28C129.412 169.28 130.272 168.5 130.272 167.26V166.5C129.612 166.4 129.152 166.36 128.672 166.36C127.092 166.36 126.312 166.86 126.312 167.82ZM142.251 168.3V170.72C141.571 171.06 140.931 171.2 140.111 171.2C137.911 171.2 136.531 169.94 136.531 167.54V162.7H134.371V160.32H136.531V157.16H139.291V160.32H142.351V162.7H139.291V166.9C139.291 168.14 139.851 168.64 140.851 168.64C141.371 168.64 141.851 168.52 142.251 168.3ZM148.954 171.18C145.754 171.18 143.614 168.96 143.614 165.62C143.614 162.44 145.834 160.12 148.914 160.12C152.294 160.12 154.534 162.86 154.034 166.34H146.454C146.634 168.08 147.474 169.04 148.894 169.04C150.114 169.04 150.934 168.44 151.254 167.38H154.014C153.414 169.8 151.554 171.18 148.954 171.18ZM148.854 162.16C147.554 162.16 146.734 163 146.494 164.58H151.094C151.014 163.1 150.174 162.16 148.854 162.16ZM160.741 175.06C157.861 175.06 155.941 173.5 155.821 171.04H158.501C158.621 172.26 159.401 172.9 160.721 172.9C162.261 172.9 163.061 172.08 163.061 170.54V168.98C162.481 170 161.381 170.6 160.081 170.6C157.461 170.6 155.501 168.38 155.501 165.36C155.501 162.26 157.341 160.12 159.981 160.12C161.421 160.12 162.501 160.68 163.281 161.78V160.32H165.821V170.5C165.821 173.34 163.901 175.06 160.741 175.06ZM158.281 165.36C158.281 167.1 159.181 168.2 160.621 168.2C162.081 168.2 163.041 167.06 163.041 165.38C163.041 163.64 162.081 162.52 160.621 162.52C159.201 162.52 158.281 163.62 158.281 165.36ZM178.45 160.32L173.25 174.86H170.23L171.75 170.88L167.55 160.32H170.55L173.23 167.64L175.67 160.32H178.45Z" fill="#4D4D4D"/>
</g>
<defs>
<filter id="filter0_d_3982_17179" x="0" y="0.5" width="270" height="229" filterUnits="userSpaceOnUse" color-interpolation-filters="sRGB">
<feFlood flood-opacity="0" result="BackgroundImageFix"/>
<feColorMatrix in="SourceAlpha" type="matrix" values="0 0 0 0 0 0 0 0 0 0 0 0 0 0 0 0 0 0 127 0" result="hardAlpha"/>
<feOffset dy="8"/>
<feGaussianBlur stdDeviation="12"/>
<feComposite in2="hardAlpha" operator="out"/>
<feColorMatrix type="matrix" values="0 0 0 0 0.760784 0 0 0 0 0.760784 0 0 0 0 0.760784 0 0 0 0.2 0"/>
<feBlend mode="normal" in2="BackgroundImageFix" result="effect1_dropShadow_3982_17179"/>
<feBlend mode="normal" in="SourceGraphic" in2="effect1_dropShadow_3982_17179" result="shape"/>
</filter>
<clipPath id="clip0_3982_17179">
<rect width="64" height="64" fill="white" transform="translate(103 35)"/>
</clipPath>
</defs>
</svg>
