<svg width="328" height="232" viewBox="0 0 328 232" fill="none" xmlns="http://www.w3.org/2000/svg">
<g filter="url(#filter0_d_3982_17120)">
<rect x="24" y="16" width="280" height="184" rx="8" fill="white" shape-rendering="crispEdges"/>
<g clip-path="url(#clip0_3982_17120)">
<path d="M183.219 73.1611H144.781L140.652 81.4192H144.387V99.9998H183.613V81.4192H187.348L183.219 73.1611ZM181.943 75.2256L184.007 79.3547H167.735L165.67 75.2256H181.943ZM146.058 75.2256H162.33L160.265 79.3547H143.993L146.058 75.2256ZM181.549 97.9353H165.032V90.7095H162.968V97.9353H146.452V81.4192H161.541L162.968 78.5659V87.6127H165.032V78.5659L166.459 81.4192H181.549V97.9353Z" fill="#373EE7"/>
<path d="M148.516 89.6777H154.709V91.7423H148.516V89.6777Z" fill="#373EE7"/>
<path d="M148.516 93.8066H154.709V95.8712H148.516V93.8066Z" fill="#373EE7"/>
<path d="M156.773 93.8066H158.838V95.8712H156.773V93.8066Z" fill="#373EE7"/>
<path d="M159.231 52.7892L163.998 51.574L168.765 52.7882L169.139 47.6693L171.671 43.3437L167.192 41.4051L163.998 37.4561L160.803 41.4051L156.324 43.3437L158.856 47.6693L159.231 52.7892ZM162.089 43.0972L163.998 40.7383L165.907 43.0982L168.712 44.3134L167.116 47.0412L166.886 50.1803L163.998 49.4445L161.11 50.1793L160.881 47.0402L159.284 44.3119L162.089 43.0972Z" fill="#373EE7"/>
<path d="M143.336 54.8957L144.836 52.3347L142.179 51.1835L140.26 48.8105L138.341 51.1825L135.684 52.3337L137.184 54.8947L137.405 57.9492L140.26 57.2233L143.115 57.9502L143.336 54.8957ZM141.313 54.2657L141.234 55.3403L140.26 55.0928L139.286 55.3403L139.207 54.2657L138.642 53.3005L139.626 52.8746L140.26 52.0928L140.892 52.8756L141.876 53.302L141.313 54.2657Z" fill="#373EE7"/>
<path d="M190.816 54.8957L192.316 52.3347L189.659 51.1835L187.74 48.8105L185.821 51.1825L183.164 52.3337L184.664 54.8947L184.886 57.9492L187.74 57.2233L190.596 57.9502L190.816 54.8957ZM188.793 54.2657L188.714 55.3403L187.74 55.0928L186.767 55.3403L186.688 54.2657L186.124 53.3005L187.108 52.8746L187.74 52.0928L188.373 52.8756L189.357 53.302L188.793 54.2657Z" fill="#373EE7"/>
<path d="M144.845 60.6009C146.81 61.9119 148.557 63.5117 150.032 65.3574L154.121 70.4663L153.275 63.7027C152.833 60.1714 150.947 56.9209 148.101 54.7864L147.112 54.0449L144.086 60.0948L144.845 60.6009ZM147.82 57.246C149.565 58.8977 150.749 61.0963 151.155 63.4749C149.851 61.9436 148.372 60.5792 146.741 59.4033L147.82 57.246Z" fill="#373EE7"/>
<path d="M174.725 63.7027L173.879 70.4663L177.968 65.3564C179.444 63.5107 181.189 61.9109 183.155 60.5999L183.913 60.0938L180.887 54.0439L179.898 54.7874C177.052 56.922 175.165 60.1715 174.725 63.7027ZM181.258 59.4033C179.628 60.5792 178.148 61.9426 176.845 63.4749C177.251 61.0964 178.434 58.8978 180.18 57.2461L181.258 59.4033Z" fill="#373EE7"/>
<path d="M168.129 71.0969H170.193V66.7718C170.193 61.8136 171.941 56.987 175.116 53.177L173.53 51.8555C170.047 56.0354 168.129 61.3328 168.129 66.7718V71.0969Z" fill="#373EE7"/>
<path d="M175.355 48.3867H177.42V50.4512H175.355V48.3867Z" fill="#373EE7"/>
<path d="M178.453 44.2578H180.518V46.3223H178.453V44.2578Z" fill="#373EE7"/>
<path d="M157.805 71.0969H159.869V66.7718C159.869 61.3318 157.951 56.0354 154.47 51.8555L152.883 53.177C156.057 56.987 157.805 61.8136 157.805 66.7718V71.0969Z" fill="#373EE7"/>
<path d="M150.582 48.3867H152.647V50.4512H150.582V48.3867Z" fill="#373EE7"/>
<path d="M147.484 44.2578H149.549V46.3223H147.484V44.2578Z" fill="#373EE7"/>
<path d="M162.969 53.5488H165.033V55.6133H162.969V53.5488Z" fill="#373EE7"/>
<path d="M162.969 57.6777H165.033V71.0971H162.969V57.6777Z" fill="#373EE7"/>
<path d="M191.871 63.8711H193.936V65.9356H191.871V63.8711Z" fill="#373EE7"/>
<path d="M191.871 68H193.936V70.0645H191.871V68Z" fill="#373EE7"/>
<path d="M193.934 65.9355H195.998V68.0001H193.934V65.9355Z" fill="#373EE7"/>
<path d="M189.805 65.9355H191.869V68.0001H189.805V65.9355Z" fill="#373EE7"/>
<path d="M188.773 36H190.838V38.0645H188.773V36Z" fill="#373EE7"/>
<path d="M188.773 40.1289H190.838V42.1934H188.773V40.1289Z" fill="#373EE7"/>
<path d="M190.84 38.0645H192.904V40.129H190.84V38.0645Z" fill="#373EE7"/>
<path d="M186.711 38.0645H188.775V40.129H186.711V38.0645Z" fill="#373EE7"/>
<path d="M134.066 68H136.131V70.0645H134.066V68Z" fill="#373EE7"/>
<path d="M134.066 72.1289H136.131V74.1934H134.066V72.1289Z" fill="#373EE7"/>
<path d="M136.129 70.0645H138.193V72.129H136.129V70.0645Z" fill="#373EE7"/>
<path d="M132 70.0645H134.065V72.129H132V70.0645Z" fill="#373EE7"/>
<path d="M134.066 36H136.131V38.0645H134.066V36Z" fill="#373EE7"/>
<path d="M134.066 40.1289H136.131V42.1934H134.066V40.1289Z" fill="#373EE7"/>
<path d="M136.129 38.0645H138.193V40.129H136.129V38.0645Z" fill="#373EE7"/>
<path d="M132 38.0645H134.065V40.129H132V38.0645Z" fill="#373EE7"/>
</g>
<path d="M72.2129 140L68.4529 130.46V140H65.6929V125.64H69.3329L73.4929 136.28L77.6729 125.64H81.3129V140H78.5529V130.38L74.7529 140H72.2129ZM90.8676 140V138.68C90.1676 139.68 89.1076 140.2 87.6476 140.2C85.4276 140.2 83.9476 138.9 83.9476 136.9C83.9476 134.82 85.6276 133.7 88.7476 133.7C89.3476 133.7 89.8676 133.74 90.5276 133.82V133.18C90.5276 131.98 89.8476 131.28 88.6876 131.28C87.4876 131.28 86.7676 131.98 86.6676 133.18H84.1676C84.3276 130.72 86.1076 129.12 88.6876 129.12C91.4876 129.12 93.1276 130.66 93.1276 133.28V140H90.8676ZM86.5676 136.82C86.5676 137.72 87.2076 138.28 88.2476 138.28C89.6676 138.28 90.5276 137.5 90.5276 136.26V135.5C89.8676 135.4 89.4076 135.36 88.9276 135.36C87.3476 135.36 86.5676 135.86 86.5676 136.82ZM98.8032 134.82V140H96.0232V129.32H98.5832V131.38C99.3632 130.02 101.023 129.2 102.743 129.2V132.08C100.383 131.9 98.8032 132.46 98.8032 134.82ZM107.467 140H104.687V125.64H107.467V133.84L111.367 129.32H114.567L110.147 134.44L115.087 140H111.547L107.467 135.04V140ZM120.843 140.18C117.643 140.18 115.503 137.96 115.503 134.62C115.503 131.44 117.723 129.12 120.803 129.12C124.183 129.12 126.423 131.86 125.923 135.34H118.343C118.523 137.08 119.363 138.04 120.783 138.04C122.003 138.04 122.823 137.44 123.143 136.38H125.903C125.303 138.8 123.443 140.18 120.843 140.18ZM120.743 131.16C119.443 131.16 118.623 132 118.383 133.58H122.983C122.903 132.1 122.063 131.16 120.743 131.16ZM134.847 137.3V139.72C134.167 140.06 133.527 140.2 132.707 140.2C130.507 140.2 129.127 138.94 129.127 136.54V131.7H126.967V129.32H129.127V126.16H131.887V129.32H134.947V131.7H131.887V135.9C131.887 137.14 132.447 137.64 133.447 137.64C133.967 137.64 134.447 137.52 134.847 137.3ZM148.564 140.3C144.424 140.3 141.224 137.1 141.224 132.8C141.224 128.5 144.424 125.34 148.564 125.34C152.724 125.34 155.944 128.5 155.944 132.8C155.944 137.1 152.724 140.3 148.564 140.3ZM148.564 137.58C151.204 137.58 152.804 135.44 152.804 132.8C152.804 130.16 151.204 128.06 148.564 128.06C145.944 128.06 144.344 130.16 144.344 132.8C144.344 135.44 145.944 137.58 148.564 137.58ZM168.961 134.66C168.961 137.82 167.101 140.2 164.221 140.2C162.961 140.2 161.881 139.66 161.081 138.62V143.86H158.301V129.32H160.861V130.88C161.681 129.74 162.861 129.12 164.221 129.12C167.101 129.12 168.961 131.52 168.961 134.66ZM166.101 134.66C166.101 132.66 164.961 131.58 163.601 131.58C162.241 131.58 161.101 132.64 161.101 134.66C161.101 136.68 162.241 137.72 163.601 137.72C164.961 137.72 166.101 136.7 166.101 134.66ZM181.902 134.66C181.902 137.82 180.042 140.2 177.162 140.2C175.902 140.2 174.822 139.66 174.022 138.62V143.86H171.242V129.32H173.802V130.88C174.622 129.74 175.802 129.12 177.162 129.12C180.042 129.12 181.902 131.52 181.902 134.66ZM179.042 134.66C179.042 132.66 177.902 131.58 176.542 131.58C175.182 131.58 174.042 132.64 174.042 134.66C174.042 136.68 175.182 137.72 176.542 137.72C177.902 137.72 179.042 136.7 179.042 134.66ZM188.903 140.2C185.803 140.2 183.483 137.76 183.483 134.66C183.483 131.54 185.803 129.12 188.903 129.12C192.003 129.12 194.323 131.54 194.323 134.66C194.323 137.76 192.003 140.2 188.903 140.2ZM188.903 137.74C190.283 137.74 191.463 136.64 191.463 134.66C191.463 132.68 190.283 131.6 188.903 131.6C187.523 131.6 186.343 132.68 186.343 134.66C186.343 136.64 187.523 137.74 188.903 137.74ZM199.377 134.82V140H196.597V129.32H199.157V131.38C199.937 130.02 201.597 129.2 203.317 129.2V132.08C200.957 131.9 199.377 132.46 199.377 134.82ZM212.585 137.3V139.72C211.905 140.06 211.265 140.2 210.445 140.2C208.245 140.2 206.865 138.94 206.865 136.54V131.7H204.705V129.32H206.865V126.16H209.625V129.32H212.685V131.7H209.625V135.9C209.625 137.14 210.185 137.64 211.185 137.64C211.705 137.64 212.185 137.52 212.585 137.3ZM221.383 135.5V129.32H224.143V140H221.603V138.6C221.023 139.54 219.843 140.2 218.483 140.2C216.343 140.2 214.783 138.9 214.783 136.12V129.32H217.563V135.58C217.563 137.08 218.303 137.74 219.423 137.74C220.423 137.74 221.383 136.94 221.383 135.5ZM229.92 134.18V140H227.14V129.32H229.7V130.84C230.48 129.78 231.58 129.12 232.98 129.12C235.12 129.12 236.6 130.52 236.6 133.1V140H233.84V134.04C233.84 132.46 233.22 131.58 231.96 131.58C230.86 131.58 229.92 132.46 229.92 134.18ZM242.716 126.84C242.716 127.78 241.956 128.48 240.856 128.48C239.776 128.48 239.016 127.78 239.016 126.84C239.016 125.86 239.776 125.16 240.856 125.16C241.956 125.16 242.716 125.86 242.716 126.84ZM242.276 140H239.496V129.32H242.276V140ZM251.89 137.3V139.72C251.21 140.06 250.57 140.2 249.75 140.2C247.55 140.2 246.17 138.94 246.17 136.54V131.7H244.01V129.32H246.17V126.16H248.93V129.32H251.99V131.7H248.93V135.9C248.93 137.14 249.49 137.64 250.49 137.64C251.01 137.64 251.49 137.52 251.89 137.3ZM263.807 129.32L258.607 143.86H255.587L257.107 139.88L252.907 129.32H255.907L258.587 136.64L261.027 129.32H263.807ZM101.272 172H98.232V157.64H101.272V172ZM103.769 166.66C103.769 163.5 105.629 161.12 108.509 161.12C109.789 161.12 110.869 161.68 111.669 162.7V157.64H114.429V172H111.889V170.46C111.049 171.58 109.889 172.2 108.509 172.2C105.629 172.2 103.769 169.78 103.769 166.66ZM106.629 166.66C106.629 168.66 107.769 169.72 109.129 169.72C110.509 169.72 111.649 168.64 111.649 166.62C111.649 164.6 110.489 163.58 109.129 163.58C107.769 163.58 106.629 164.62 106.629 166.66ZM122.05 172.18C118.85 172.18 116.71 169.96 116.71 166.62C116.71 163.44 118.93 161.12 122.01 161.12C125.39 161.12 127.63 163.86 127.13 167.34H119.55C119.73 169.08 120.57 170.04 121.99 170.04C123.21 170.04 124.03 169.44 124.35 168.38H127.11C126.51 170.8 124.65 172.18 122.05 172.18ZM121.95 163.16C120.65 163.16 119.83 164 119.59 165.58H124.19C124.11 164.1 123.27 163.16 121.95 163.16ZM132.272 166.18V172H129.492V161.32H132.052V162.84C132.832 161.78 133.932 161.12 135.332 161.12C137.472 161.12 138.952 162.52 138.952 165.1V172H136.192V166.04C136.192 164.46 135.572 163.58 134.312 163.58C133.212 163.58 132.272 164.46 132.272 166.18ZM148.409 169.3V171.72C147.729 172.06 147.089 172.2 146.269 172.2C144.069 172.2 142.689 170.94 142.689 168.54V163.7H140.529V161.32H142.689V158.16H145.449V161.32H148.509V163.7H145.449V167.9C145.449 169.14 146.009 169.64 147.009 169.64C147.529 169.64 148.009 169.52 148.409 169.3ZM153.927 158.84C153.927 159.78 153.167 160.48 152.067 160.48C150.987 160.48 150.227 159.78 150.227 158.84C150.227 157.86 150.987 157.16 152.067 157.16C153.167 157.16 153.927 157.86 153.927 158.84ZM153.487 172H150.707V161.32H153.487V172ZM167.661 158.84C167.661 159.78 166.901 160.48 165.801 160.48C164.701 160.48 163.941 159.78 163.941 158.84C163.941 157.86 164.701 157.16 165.801 157.16C166.901 157.16 167.661 157.86 167.661 158.84ZM160.241 172H157.481V163.7H155.321V161.32H157.481V160.74C157.481 158.62 158.621 157.42 160.841 157.42C161.521 157.42 162.101 157.54 162.561 157.74V159.94C162.261 159.82 161.861 159.76 161.501 159.76C160.741 159.76 160.241 160.06 160.241 160.8V161.32H163.021V163.7H160.241V172ZM167.201 172H164.441V161.32H167.201V172ZM174.703 172.2C171.623 172.2 169.503 169.92 169.503 166.66C169.503 163.46 171.703 161.12 174.703 161.12C177.483 161.12 179.543 163 179.883 165.88H176.963C176.823 164.46 175.963 163.58 174.703 163.58C173.263 163.58 172.343 164.76 172.343 166.66C172.343 168.58 173.243 169.74 174.703 169.74C175.983 169.74 176.803 168.9 176.963 167.44H179.883C179.563 170.38 177.563 172.2 174.703 172.2ZM188.528 172V170.68C187.828 171.68 186.768 172.2 185.308 172.2C183.088 172.2 181.608 170.9 181.608 168.9C181.608 166.82 183.288 165.7 186.408 165.7C187.008 165.7 187.528 165.74 188.188 165.82V165.18C188.188 163.98 187.508 163.28 186.348 163.28C185.148 163.28 184.428 163.98 184.328 165.18H181.828C181.988 162.72 183.768 161.12 186.348 161.12C189.148 161.12 190.788 162.66 190.788 165.28V172H188.528ZM184.228 168.82C184.228 169.72 184.868 170.28 185.908 170.28C187.328 170.28 188.188 169.5 188.188 168.26V167.5C187.528 167.4 187.068 167.36 186.588 167.36C185.008 167.36 184.228 167.86 184.228 168.82ZM200.167 169.3V171.72C199.487 172.06 198.847 172.2 198.027 172.2C195.827 172.2 194.447 170.94 194.447 168.54V163.7H192.287V161.32H194.447V158.16H197.207V161.32H200.267V163.7H197.207V167.9C197.207 169.14 197.767 169.64 198.767 169.64C199.287 169.64 199.767 169.52 200.167 169.3ZM205.685 158.84C205.685 159.78 204.925 160.48 203.825 160.48C202.745 160.48 201.985 159.78 201.985 158.84C201.985 157.86 202.745 157.16 203.825 157.16C204.925 157.16 205.685 157.86 205.685 158.84ZM205.245 172H202.465V161.32H205.245V172ZM212.939 172.2C209.839 172.2 207.519 169.76 207.519 166.66C207.519 163.54 209.839 161.12 212.939 161.12C216.039 161.12 218.359 163.54 218.359 166.66C218.359 169.76 216.039 172.2 212.939 172.2ZM212.939 169.74C214.319 169.74 215.499 168.64 215.499 166.66C215.499 164.68 214.319 163.6 212.939 163.6C211.559 163.6 210.379 164.68 210.379 166.66C210.379 168.64 211.559 169.74 212.939 169.74ZM223.413 166.18V172H220.633V161.32H223.193V162.84C223.973 161.78 225.073 161.12 226.473 161.12C228.613 161.12 230.093 162.52 230.093 165.1V172H227.333V166.04C227.333 164.46 226.713 163.58 225.453 163.58C224.353 163.58 223.413 164.46 223.413 166.18Z" fill="#333333"/>
</g>
<defs>
<filter id="filter0_d_3982_17120" x="0" y="0" width="328" height="232" filterUnits="userSpaceOnUse" color-interpolation-filters="sRGB">
<feFlood flood-opacity="0" result="BackgroundImageFix"/>
<feColorMatrix in="SourceAlpha" type="matrix" values="0 0 0 0 0 0 0 0 0 0 0 0 0 0 0 0 0 0 127 0" result="hardAlpha"/>
<feOffset dy="8"/>
<feGaussianBlur stdDeviation="12"/>
<feComposite in2="hardAlpha" operator="out"/>
<feColorMatrix type="matrix" values="0 0 0 0 0.760784 0 0 0 0 0.760784 0 0 0 0 0.760784 0 0 0 0.2 0"/>
<feBlend mode="normal" in2="BackgroundImageFix" result="effect1_dropShadow_3982_17120"/>
<feBlend mode="normal" in="SourceGraphic" in2="effect1_dropShadow_3982_17120" result="shape"/>
</filter>
<clipPath id="clip0_3982_17120">
<rect width="64" height="64" fill="white" transform="translate(132 36)"/>
</clipPath>
</defs>
</svg>
