<svg width="261" height="232" viewBox="0 0 261 232" fill="none" xmlns="http://www.w3.org/2000/svg">
<g filter="url(#filter0_d_3982_17206)">
<rect x="24" y="16" width="213" height="184" rx="8" fill="white" shape-rendering="crispEdges"/>
<path d="M96.9575 132.597H94.6975V137.277H91.6575V122.917H96.9575C100.457 122.917 102.637 124.577 102.637 127.697C102.637 130.817 100.457 132.597 96.9575 132.597ZM96.9375 125.477H94.6975V130.037H96.9375C98.6575 130.037 99.6175 129.137 99.6175 127.717C99.6175 126.297 98.6575 125.477 96.9375 125.477ZM107.744 132.097V137.277H104.964V126.597H107.524V128.657C108.304 127.297 109.964 126.477 111.684 126.477V129.357C109.324 129.177 107.744 129.737 107.744 132.097ZM118.27 137.477C115.17 137.477 112.85 135.037 112.85 131.937C112.85 128.817 115.17 126.397 118.27 126.397C121.37 126.397 123.69 128.817 123.69 131.937C123.69 135.037 121.37 137.477 118.27 137.477ZM118.27 135.017C119.65 135.017 120.83 133.917 120.83 131.937C120.83 129.957 119.65 128.877 118.27 128.877C116.89 128.877 115.71 129.957 115.71 131.937C115.71 133.917 116.89 135.017 118.27 135.017ZM125.264 131.937C125.264 128.777 127.124 126.397 130.004 126.397C131.284 126.397 132.364 126.957 133.164 127.977V122.917H135.924V137.277H133.384V135.737C132.544 136.857 131.384 137.477 130.004 137.477C127.124 137.477 125.264 135.057 125.264 131.937ZM128.124 131.937C128.124 133.937 129.264 134.997 130.624 134.997C132.004 134.997 133.144 133.917 133.144 131.897C133.144 129.877 131.984 128.857 130.624 128.857C129.264 128.857 128.124 129.897 128.124 131.937ZM145.406 132.777V126.597H148.166V137.277H145.626V135.877C145.046 136.817 143.866 137.477 142.506 137.477C140.366 137.477 138.806 136.177 138.806 133.397V126.597H141.586V132.857C141.586 134.357 142.326 135.017 143.446 135.017C144.446 135.017 145.406 134.217 145.406 132.777ZM155.664 137.477C152.584 137.477 150.464 135.197 150.464 131.937C150.464 128.737 152.664 126.397 155.664 126.397C158.444 126.397 160.504 128.277 160.844 131.157H157.924C157.784 129.737 156.924 128.857 155.664 128.857C154.224 128.857 153.304 130.037 153.304 131.937C153.304 133.857 154.204 135.017 155.664 135.017C156.944 135.017 157.764 134.177 157.924 132.717H160.844C160.524 135.657 158.524 137.477 155.664 137.477ZM169.768 134.577V136.997C169.088 137.337 168.448 137.477 167.628 137.477C165.428 137.477 164.048 136.217 164.048 133.817V128.977H161.888V126.597H164.048V123.437H166.808V126.597H169.868V128.977H166.808V133.177C166.808 134.417 167.368 134.917 168.368 134.917C168.888 134.917 169.368 134.797 169.768 134.577ZM102.198 164.597H99.9377V169.277H96.8977V154.917H102.198C105.698 154.917 107.878 156.577 107.878 159.697C107.878 162.817 105.698 164.597 102.198 164.597ZM102.178 157.477H99.9377V162.037H102.178C103.898 162.037 104.858 161.137 104.858 159.717C104.858 158.297 103.898 157.477 102.178 157.477ZM112.985 164.097V169.277H110.205V158.597H112.765V160.657C113.545 159.297 115.205 158.477 116.925 158.477V161.357C114.565 161.177 112.985 161.737 112.985 164.097ZM122.089 156.117C122.089 157.057 121.329 157.757 120.229 157.757C119.149 157.757 118.389 157.057 118.389 156.117C118.389 155.137 119.149 154.437 120.229 154.437C121.329 154.437 122.089 155.137 122.089 156.117ZM121.649 169.277H118.869V158.597H121.649V169.277ZM129.123 169.477C126.043 169.477 123.923 167.197 123.923 163.937C123.923 160.737 126.123 158.397 129.123 158.397C131.903 158.397 133.963 160.277 134.303 163.157H131.383C131.243 161.737 130.383 160.857 129.123 160.857C127.683 160.857 126.763 162.037 126.763 163.937C126.763 165.857 127.663 167.017 129.123 167.017C130.403 167.017 131.223 166.177 131.383 164.717H134.303C133.983 167.657 131.983 169.477 129.123 169.477ZM139.807 156.117C139.807 157.057 139.047 157.757 137.947 157.757C136.867 157.757 136.107 157.057 136.107 156.117C136.107 155.137 136.867 154.437 137.947 154.437C139.047 154.437 139.807 155.137 139.807 156.117ZM139.367 169.277H136.587V158.597H139.367V169.277ZM145.121 163.457V169.277H142.341V158.597H144.901V160.117C145.681 159.057 146.781 158.397 148.181 158.397C150.321 158.397 151.801 159.797 151.801 162.377V169.277H149.041V163.317C149.041 161.737 148.421 160.857 147.161 160.857C146.061 160.857 145.121 161.737 145.121 163.457ZM159.237 173.337C156.357 173.337 154.437 171.777 154.317 169.317H156.997C157.117 170.537 157.897 171.177 159.217 171.177C160.757 171.177 161.557 170.357 161.557 168.817V167.257C160.977 168.277 159.877 168.877 158.577 168.877C155.957 168.877 153.997 166.657 153.997 163.637C153.997 160.537 155.837 158.397 158.477 158.397C159.917 158.397 160.997 158.957 161.777 160.057V158.597H164.317V168.777C164.317 171.617 162.397 173.337 159.237 173.337ZM156.777 163.637C156.777 165.377 157.677 166.477 159.117 166.477C160.577 166.477 161.537 165.337 161.537 163.657C161.537 161.917 160.577 160.797 159.117 160.797C157.697 160.797 156.777 161.897 156.777 163.637Z" fill="#4D4D4D"/>
<g clip-path="url(#clip0_3982_17206)">
<path d="M114.008 54.0264C113.318 54.0264 112.758 54.5864 112.758 55.2764C112.758 55.9664 113.318 56.5264 114.008 56.5264C114.698 56.5264 115.258 55.9664 115.258 55.2764C115.258 54.5864 114.698 54.0264 114.008 54.0264Z" fill="#646AEC"/>
<path d="M125.257 77.4001H121.507V73.6504C121.507 72.9601 120.948 72.4004 120.257 72.4004C119.567 72.4004 119.008 72.9601 119.008 73.6504V77.4001H115.258C114.568 77.4001 114.008 77.9599 114.008 78.65C114.008 79.3401 114.568 79.9 115.258 79.9H119.008V83.6498C119.008 84.34 119.567 84.8998 120.257 84.8998C120.948 84.8998 121.507 84.34 121.507 83.6498V79.9H125.257C125.947 79.9 126.507 79.3403 126.507 78.65C126.507 77.9598 125.948 77.4001 125.257 77.4001Z" fill="#646AEC"/>
<path d="M158.992 78.5253C156.229 73.7396 150.12 72.1017 145.333 74.8655L140.256 77.7967V66.9422C140.256 65.6003 139.812 64.2687 139.006 63.1925L132.756 54.8598V51.3116C134.211 50.7956 135.256 49.4063 135.256 47.7767V42.0271C135.256 39.9595 133.574 38.2773 131.506 38.2773H109.007C106.94 38.2773 105.258 39.9595 105.258 42.0271V47.7768C105.258 49.4062 106.303 50.7957 107.757 51.3117V54.86L101.507 63.1931C100.702 64.2688 100.258 65.6003 100.258 66.9422V91.1497C100.258 94.5958 103.061 97.3993 106.507 97.3993H126.595C129.398 102.097 135.441 103.669 140.178 100.934L155.333 92.1846C160.077 89.4448 161.769 83.3372 158.992 78.5253ZM107.757 42.0271C107.757 41.3378 108.318 40.7771 109.007 40.7771H131.506C132.195 40.7771 132.756 41.3378 132.756 42.0271V47.7768C132.756 48.4661 132.195 49.0267 131.506 49.0267H109.007C108.318 49.0267 107.758 48.466 107.758 47.7768V42.0271H107.757ZM103.508 64.6922L110.007 56.0265C110.17 55.8102 110.257 55.547 110.257 55.2765V51.5267H130.256V54.0266H119.007C118.317 54.0266 117.757 54.5863 117.757 55.2766C117.757 55.9668 118.317 56.5266 119.007 56.5266H130.881L137.005 64.6918C137.406 65.2262 137.654 65.8656 137.729 66.5261H102.784C102.859 65.8655 103.108 65.2261 103.508 64.6922ZM106.508 94.8995C104.44 94.8995 102.758 93.2173 102.758 91.1497V89.8873H125.467C125.071 91.508 125.073 93.239 125.527 94.8996H106.508V94.8995ZM126.448 87.3998H102.758V69.0257H137.756V79.2398L130.179 83.6151C128.599 84.5277 127.322 85.8268 126.448 87.3998ZM138.928 98.7692C135.341 100.841 130.758 99.6156 128.685 96.026C126.602 92.4017 127.864 87.8387 131.429 85.7798L138.213 81.8626L145.713 94.852L138.928 98.7692ZM154.083 90.0197L147.878 93.6021L140.378 80.6125L146.583 77.0305C150.173 74.9582 154.755 76.1853 156.827 79.7751C158.909 83.3828 157.643 87.9636 154.083 90.0197Z" fill="#646AEC"/>
<g clip-path="url(#clip1_3982_17206)">
<path d="M132.456 40.2773H145.648C145.956 40.2773 146.251 40.3995 146.468 40.617L162.957 57.1066C163.41 57.5593 163.41 58.2935 162.957 58.7461L149.766 71.9377C149.539 72.164 149.242 72.2773 148.946 72.2773C148.649 72.2773 148.352 72.1642 148.126 71.9377L131.636 55.4481C131.419 55.2308 131.297 54.9358 131.297 54.6284V41.4368C131.297 40.7964 131.816 40.2773 132.456 40.2773ZM133.616 54.1482L148.946 69.4784L160.498 57.9263L145.168 42.5962H133.616V54.1482H133.616Z" fill="#646AEC"/>
<path d="M139.053 51.5236C138.121 51.5236 137.244 51.1605 136.584 50.501C135.223 49.1397 135.223 46.9248 136.585 45.5635C137.244 44.9041 138.121 44.541 139.053 44.541C139.986 44.541 140.863 44.9041 141.522 45.5636C142.883 46.9249 142.883 49.1398 141.522 50.5011C140.863 51.1605 139.986 51.5236 139.053 51.5236ZM139.882 47.203C139.661 46.9816 139.366 46.8597 139.053 46.8597C138.74 46.8597 138.446 46.9816 138.224 47.203C137.767 47.6603 137.767 48.4042 138.224 48.8613C138.446 49.0828 138.74 49.2048 139.053 49.2048C139.366 49.2048 139.661 49.0828 139.882 48.8614C140.339 48.4042 140.339 47.6603 139.882 47.203Z" fill="#646AEC"/>
</g>
</g>
</g>
<defs>
<filter id="filter0_d_3982_17206" x="0" y="0" width="261" height="232" filterUnits="userSpaceOnUse" color-interpolation-filters="sRGB">
<feFlood flood-opacity="0" result="BackgroundImageFix"/>
<feColorMatrix in="SourceAlpha" type="matrix" values="0 0 0 0 0 0 0 0 0 0 0 0 0 0 0 0 0 0 127 0" result="hardAlpha"/>
<feOffset dy="8"/>
<feGaussianBlur stdDeviation="12"/>
<feComposite in2="hardAlpha" operator="out"/>
<feColorMatrix type="matrix" values="0 0 0 0 0.760784 0 0 0 0 0.760784 0 0 0 0 0.760784 0 0 0 0.2 0"/>
<feBlend mode="normal" in2="BackgroundImageFix" result="effect1_dropShadow_3982_17206"/>
<feBlend mode="normal" in="SourceGraphic" in2="effect1_dropShadow_3982_17206" result="shape"/>
</filter>
<clipPath id="clip0_3982_17206">
<rect width="64" height="64" fill="white" transform="translate(98.2969 38.2773)"/>
</clipPath>
<clipPath id="clip1_3982_17206">
<rect width="32" height="32" fill="white" transform="matrix(-1 0 0 1 163.297 40.2773)"/>
</clipPath>
</defs>
</svg>
