<svg width="261" height="232" viewBox="0 0 261 232" fill="none" xmlns="http://www.w3.org/2000/svg">
<g filter="url(#filter0_d_3982_17157)">
<rect x="24" y="16" width="213" height="184" rx="8" fill="white" shape-rendering="crispEdges"/>
<g clip-path="url(#clip0_3982_17157)">
<path fill-rule="evenodd" clip-rule="evenodd" d="M138.74 83.8377L138.175 85.8185C136.545 91.5186 131.267 95.5 125.339 95.5H124.169L125.961 81.1658L122.086 83.3443L121.033 82.2913L116.878 84.3689L109.631 77.1225L111.709 72.9667L110.696 71.9541L112.516 68.0832L98.5 69.8523V68.682C98.5 62.7535 102.48 57.4758 108.181 55.8468L110.171 55.2792L112.192 54.7011L114.164 54.1376L116.211 53.5529L118.248 52.9708L120.387 52.3599L121.437 52.0595C122.745 50.377 124.158 48.7686 125.677 47.25C126.364 46.5635 127.073 45.9042 127.793 45.2611L129.365 43.9098C129.901 43.4682 130.443 43.0363 130.995 42.6174L132.668 41.4002C133.836 40.5872 135.041 39.8281 136.271 39.1149L138.154 38.0776C142.082 36.0171 146.276 34.4577 150.652 33.4632L158.977 31.5711C159.184 31.5237 159.396 31.5 159.606 31.5C161.225 31.5 162.5 32.7757 162.5 34.3427C162.5 34.6084 162.463 34.8715 162.391 35.1245L159.856 43.9975C158.745 47.881 157.161 51.6053 155.186 55.1089L154.28 57.126L153.803 57.4118C153.122 58.4864 152.405 59.5363 151.646 60.558L150.38 62.188C149.949 62.7228 149.521 63.2616 149.068 63.7787L147.65 65.3004C147.354 65.6119 147.073 65.936 146.768 66.2394L144.391 68.6169C143.818 69.191 143.214 69.7308 142.615 70.2757L141.658 73.6285L141.047 75.7641L140.466 77.7989L139.881 79.8448L139.318 81.8175L138.74 83.8377ZM157.596 44.2833C153.683 42.9965 150.645 39.8191 149.54 35.8614C150.06 35.7263 150.583 35.5958 151.108 35.4763L159.431 33.5842C159.489 33.5706 159.549 33.5645 159.657 33.5645C160.087 33.5645 160.435 33.9133 160.435 34.3427C160.435 34.4163 160.425 34.4884 160.405 34.5554L157.869 43.4299C157.822 43.5939 157.769 43.7552 157.715 43.9166C157.674 44.0384 157.634 44.1603 157.596 44.2833ZM115.496 61.7439L113.556 65.871L100.628 67.503C101.107 62.9829 104.311 59.0993 108.748 57.8317L119.479 54.7661C117.979 56.9793 116.642 59.3049 115.496 61.7439ZM113.248 74.506L119.494 80.752L117.284 81.8569L112.143 76.7162L113.248 74.506ZM125.985 69.7349L119.12 77.4582L116.542 74.8785L124.265 68.0141L125.985 69.7349ZM132.206 75.2883L122.438 80.7767L120.583 78.9209L128.823 69.6522L124.349 65.1794L115.08 73.4188L113.183 71.5217L117.365 62.6235C119.8 57.4415 123.087 52.7606 127.138 48.7107C132.86 42.9889 139.862 38.7888 147.556 36.4279C148.849 41.0464 152.398 44.752 156.967 46.251C154.519 53.2011 150.529 59.562 145.309 64.7812L142.931 67.1583C139.746 70.3438 136.137 73.0791 132.206 75.2883ZM139.782 72.6769L136.189 85.2505C134.92 89.6895 131.037 92.8947 126.518 93.3735L128.2 79.9088L133.22 77.0877C135.524 75.7923 137.708 74.3054 139.782 72.6769Z" fill="#373EE7"/>
<path d="M133.766 78.7001L135.752 79.2676L135.163 81.3322L133.176 80.7646L133.766 78.7001Z" fill="#373EE7"/>
<path fill-rule="evenodd" clip-rule="evenodd" d="M98.8024 93.7379L100.262 95.1976L102.327 93.1331L100.867 91.6734L98.8024 93.7379ZM101.899 90.6411L103.359 92.1008L112.649 82.8105L111.19 81.3508L101.899 90.6411ZM107.06 91.6734L108.52 93.1331L110.585 91.0685L109.125 89.6089L107.06 91.6734ZM115.746 85.9073L114.286 84.4476L110.157 88.5766L111.617 90.0363L115.746 85.9073ZM100.867 85.4798L102.327 86.9395L104.391 84.875L102.931 83.4153L100.867 85.4798ZM103.964 82.3831L105.423 83.8427L109.552 79.7137L108.093 78.254L103.964 82.3831ZM127.929 72.9546L128.942 74.7535L131.006 73.5932L129.994 71.7944L127.929 72.9546ZM139.719 67.3629L138.336 65.8306C136.379 67.5958 134.255 69.2011 132.018 70.6008L133.112 72.3508C135.451 70.8881 137.673 69.2092 139.719 67.3629ZM123.774 55.815L125.443 57.0287C125.839 56.4849 126.247 55.9491 126.666 55.4224L125.052 54.1376C124.613 54.6865 124.186 55.246 123.774 55.815ZM119.448 63.0519L121.307 63.9481C121.6 63.3422 121.904 62.7434 122.224 62.1527L120.408 61.1714C120.073 61.7893 119.753 62.4163 119.448 63.0519ZM121.448 59.3367L123.221 60.3952C123.566 59.817 123.923 59.248 124.293 58.6875L122.571 57.5489C122.183 58.1366 121.809 58.7319 121.448 59.3367ZM138.758 62.4677C143.311 62.4677 147.016 58.7631 147.016 54.2097C147.016 49.6562 143.311 45.9516 138.758 45.9516C134.205 45.9516 130.5 49.6562 130.5 54.2097C130.5 58.7631 134.205 62.4677 138.758 62.4677ZM138.758 60.4032C135.342 60.4032 132.565 57.6255 132.565 54.2097C132.565 50.7938 135.342 48.0161 138.758 48.0161C142.174 48.0161 144.952 50.7938 144.952 54.2097C144.952 57.6255 142.174 60.4032 138.758 60.4032ZM138.758 58.3387C141.035 58.3387 142.887 56.4869 142.887 54.2097C142.887 51.9325 141.035 50.0806 138.758 50.0806C136.481 50.0806 134.629 51.9325 134.629 54.2097C134.629 56.4869 136.481 58.3387 138.758 58.3387ZM102.364 63.5353L102.894 65.5302L104.89 65.001L104.359 63.0055L102.364 63.5353ZM106.354 62.4758L106.885 64.4713L108.881 63.942L108.35 61.9466L106.354 62.4758ZM110.346 61.4158L110.877 63.4123L112.872 62.8826L112.342 60.8861L110.346 61.4158ZM130.078 87.5C131.105 86.5927 131.846 85.4229 132.219 84.1164L132.586 82.8281L134.572 83.3957L134.205 84.683C133.722 86.3695 132.768 87.879 131.445 89.0474L130.078 87.5Z" fill="#373EE7"/>
</g>
<path d="M58.4577 139.82H56.1977V144.5H53.1577V130.14H58.4577C61.9577 130.14 64.1377 131.8 64.1377 134.92C64.1377 138.04 61.9577 139.82 58.4577 139.82ZM58.4377 132.7H56.1977V137.26H58.4377C60.1577 137.26 61.1177 136.36 61.1177 134.94C61.1177 133.52 60.1577 132.7 58.4377 132.7ZM69.2446 139.32V144.5H66.4646V133.82H69.0246V135.88C69.8046 134.52 71.4646 133.7 73.1846 133.7V136.58C70.8246 136.4 69.2446 136.96 69.2446 139.32ZM79.7705 144.7C76.6705 144.7 74.3505 142.26 74.3505 139.16C74.3505 136.04 76.6705 133.62 79.7705 133.62C82.8705 133.62 85.1905 136.04 85.1905 139.16C85.1905 142.26 82.8705 144.7 79.7705 144.7ZM79.7705 142.24C81.1505 142.24 82.3305 141.14 82.3305 139.16C82.3305 137.18 81.1505 136.1 79.7705 136.1C78.3905 136.1 77.2105 137.18 77.2105 139.16C77.2105 141.14 78.3905 142.24 79.7705 142.24ZM86.7646 139.16C86.7646 136 88.6246 133.62 91.5046 133.62C92.7846 133.62 93.8646 134.18 94.6646 135.2V130.14H97.4246V144.5H94.8846V142.96C94.0446 144.08 92.8846 144.7 91.5046 144.7C88.6246 144.7 86.7646 142.28 86.7646 139.16ZM89.6246 139.16C89.6246 141.16 90.7646 142.22 92.1246 142.22C93.5046 142.22 94.6446 141.14 94.6446 139.12C94.6446 137.1 93.4846 136.08 92.1246 136.08C90.7646 136.08 89.6246 137.12 89.6246 139.16ZM106.906 140V133.82H109.666V144.5H107.126V143.1C106.546 144.04 105.366 144.7 104.006 144.7C101.866 144.7 100.306 143.4 100.306 140.62V133.82H103.086V140.08C103.086 141.58 103.826 142.24 104.946 142.24C105.946 142.24 106.906 141.44 106.906 140ZM117.164 144.7C114.084 144.7 111.964 142.42 111.964 139.16C111.964 135.96 114.164 133.62 117.164 133.62C119.944 133.62 122.004 135.5 122.344 138.38H119.424C119.284 136.96 118.424 136.08 117.164 136.08C115.724 136.08 114.804 137.26 114.804 139.16C114.804 141.08 115.704 142.24 117.164 142.24C118.444 142.24 119.264 141.4 119.424 139.94H122.344C122.024 142.88 120.024 144.7 117.164 144.7ZM131.269 141.8V144.22C130.589 144.56 129.949 144.7 129.129 144.7C126.929 144.7 125.549 143.44 125.549 141.04V136.2H123.389V133.82H125.549V130.66H128.309V133.82H131.369V136.2H128.309V140.4C128.309 141.64 128.869 142.14 129.869 142.14C130.389 142.14 130.869 142.02 131.269 141.8ZM147.766 144.5H138.486V130.14H141.526V141.76H147.766V144.5ZM156.473 144.5V143.18C155.773 144.18 154.713 144.7 153.253 144.7C151.033 144.7 149.553 143.4 149.553 141.4C149.553 139.32 151.233 138.2 154.353 138.2C154.953 138.2 155.473 138.24 156.133 138.32V137.68C156.133 136.48 155.453 135.78 154.293 135.78C153.093 135.78 152.373 136.48 152.273 137.68H149.773C149.933 135.22 151.713 133.62 154.293 133.62C157.093 133.62 158.733 135.16 158.733 137.78V144.5H156.473ZM152.173 141.32C152.173 142.22 152.813 142.78 153.853 142.78C155.273 142.78 156.133 142 156.133 140.76V140C155.473 139.9 155.013 139.86 154.533 139.86C152.953 139.86 152.173 140.36 152.173 141.32ZM168.129 140V133.82H170.889V144.5H168.349V143.1C167.769 144.04 166.589 144.7 165.229 144.7C163.089 144.7 161.529 143.4 161.529 140.62V133.82H164.309V140.08C164.309 141.58 165.049 142.24 166.169 142.24C167.169 142.24 168.129 141.44 168.129 140ZM176.666 138.68V144.5H173.886V133.82H176.446V135.34C177.226 134.28 178.326 133.62 179.726 133.62C181.866 133.62 183.346 135.02 183.346 137.6V144.5H180.586V138.54C180.586 136.96 179.966 136.08 178.706 136.08C177.606 136.08 176.666 136.96 176.666 138.68ZM190.742 144.7C187.662 144.7 185.542 142.42 185.542 139.16C185.542 135.96 187.742 133.62 190.742 133.62C193.522 133.62 195.582 135.5 195.922 138.38H193.002C192.862 136.96 192.002 136.08 190.742 136.08C189.302 136.08 188.382 137.26 188.382 139.16C188.382 141.08 189.282 142.24 190.742 142.24C192.022 142.24 192.842 141.4 193.002 139.94H195.922C195.602 142.88 193.602 144.7 190.742 144.7ZM200.987 138.68V144.5H198.207V130.14H200.987V135.22C201.727 134.24 202.647 133.62 204.047 133.62C206.187 133.62 207.667 135.02 207.667 137.6V144.5H204.907V138.54C204.907 136.96 204.287 136.08 203.027 136.08C201.927 136.08 200.987 136.96 200.987 138.68ZM94.3777 171.82H92.1177V176.5H89.0777V162.14H94.3777C97.8777 162.14 100.058 163.8 100.058 166.92C100.058 170.04 97.8777 171.82 94.3777 171.82ZM94.3577 164.7H92.1177V169.26H94.3577C96.0777 169.26 97.0377 168.36 97.0377 166.94C97.0377 165.52 96.0777 164.7 94.3577 164.7ZM105.185 176.5H102.385V162.14H105.185V176.5ZM114.538 176.5V175.18C113.838 176.18 112.778 176.7 111.318 176.7C109.098 176.7 107.618 175.4 107.618 173.4C107.618 171.32 109.298 170.2 112.418 170.2C113.018 170.2 113.538 170.24 114.198 170.32V169.68C114.198 168.48 113.518 167.78 112.358 167.78C111.158 167.78 110.438 168.48 110.338 169.68H107.838C107.998 167.22 109.778 165.62 112.358 165.62C115.158 165.62 116.798 167.16 116.798 169.78V176.5H114.538ZM110.238 173.32C110.238 174.22 110.878 174.78 111.918 174.78C113.338 174.78 114.198 174 114.198 172.76V172C113.538 171.9 113.078 171.86 112.598 171.86C111.018 171.86 110.238 172.36 110.238 173.32ZM122.473 170.68V176.5H119.693V165.82H122.253V167.34C123.033 166.28 124.133 165.62 125.533 165.62C127.673 165.62 129.153 167.02 129.153 169.6V176.5H126.393V170.54C126.393 168.96 125.773 168.08 124.513 168.08C123.413 168.08 122.473 168.96 122.473 170.68ZM134.829 170.68V176.5H132.049V165.82H134.609V167.34C135.389 166.28 136.489 165.62 137.889 165.62C140.029 165.62 141.509 167.02 141.509 169.6V176.5H138.749V170.54C138.749 168.96 138.129 168.08 136.869 168.08C135.769 168.08 134.829 168.96 134.829 170.68ZM147.624 163.34C147.624 164.28 146.864 164.98 145.764 164.98C144.684 164.98 143.924 164.28 143.924 163.34C143.924 162.36 144.684 161.66 145.764 161.66C146.864 161.66 147.624 162.36 147.624 163.34ZM147.184 176.5H144.404V165.82H147.184V176.5ZM152.938 170.68V176.5H150.158V165.82H152.718V167.34C153.498 166.28 154.598 165.62 155.998 165.62C158.138 165.62 159.618 167.02 159.618 169.6V176.5H156.858V170.54C156.858 168.96 156.238 168.08 154.978 168.08C153.878 168.08 152.938 168.96 152.938 170.68ZM167.053 180.56C164.173 180.56 162.253 179 162.133 176.54H164.813C164.933 177.76 165.713 178.4 167.033 178.4C168.573 178.4 169.373 177.58 169.373 176.04V174.48C168.793 175.5 167.693 176.1 166.393 176.1C163.773 176.1 161.813 173.88 161.813 170.86C161.813 167.76 163.653 165.62 166.293 165.62C167.733 165.62 168.813 166.18 169.593 167.28V165.82H172.133V176C172.133 178.84 170.213 180.56 167.053 180.56ZM164.593 170.86C164.593 172.6 165.493 173.7 166.933 173.7C168.393 173.7 169.353 172.56 169.353 170.88C169.353 169.14 168.393 168.02 166.933 168.02C165.513 168.02 164.593 169.12 164.593 170.86Z" fill="#4D4D4D"/>
</g>
<defs>
<filter id="filter0_d_3982_17157" x="0" y="0" width="261" height="232" filterUnits="userSpaceOnUse" color-interpolation-filters="sRGB">
<feFlood flood-opacity="0" result="BackgroundImageFix"/>
<feColorMatrix in="SourceAlpha" type="matrix" values="0 0 0 0 0 0 0 0 0 0 0 0 0 0 0 0 0 0 127 0" result="hardAlpha"/>
<feOffset dy="8"/>
<feGaussianBlur stdDeviation="12"/>
<feComposite in2="hardAlpha" operator="out"/>
<feColorMatrix type="matrix" values="0 0 0 0 0.760784 0 0 0 0 0.760784 0 0 0 0 0.760784 0 0 0 0.2 0"/>
<feBlend mode="normal" in2="BackgroundImageFix" result="effect1_dropShadow_3982_17157"/>
<feBlend mode="normal" in="SourceGraphic" in2="effect1_dropShadow_3982_17157" result="shape"/>
</filter>
<clipPath id="clip0_3982_17157">
<rect width="64" height="64" fill="white" transform="translate(98.5 31.5)"/>
</clipPath>
</defs>
</svg>
