<svg width="270" height="230" viewBox="0 0 270 230" fill="none" xmlns="http://www.w3.org/2000/svg">
<g filter="url(#filter0_d_3982_17162)">
<rect x="24" y="16.5" width="222" height="181" rx="8" fill="white" shape-rendering="crispEdges"/>
<path d="M118 68H121V70H118V68Z" fill="#646AEC"/>
<path d="M125 73H128V75H125V73Z" fill="#646AEC"/>
<path d="M118 73H123V75H118V73Z" fill="#646AEC"/>
<path d="M110 73H116V75H110V73Z" fill="#646AEC"/>
<path d="M116 78H128V80H116V78Z" fill="#646AEC"/>
<path d="M110 78H114V80H110V78Z" fill="#646AEC"/>
<path d="M122 83H128V85H122V83Z" fill="#646AEC"/>
<path d="M110 83H120V85H110V83Z" fill="#646AEC"/>
<path d="M116 88H122V90H116V88Z" fill="#646AEC"/>
<path d="M110 88H114V90H110V88Z" fill="#646AEC"/>
<path d="M163 65C163 64.7348 162.895 64.4804 162.707 64.2929C162.52 64.1054 162.265 64 162 64H156C155.735 64 155.48 64.1054 155.293 64.2929C155.105 64.4804 155 64.7348 155 65V70H150C149.735 70 149.48 70.1054 149.293 70.2929C149.105 70.4804 149 70.7348 149 71V76H144C143.735 76 143.48 76.1054 143.293 76.2929C143.105 76.4804 143 76.7348 143 77V82H138C137.735 82 137.48 82.1054 137.293 82.2929C137.105 82.4804 137 82.7348 137 83V89H129.828C129.592 88.3328 129.128 87.7705 128.518 87.4124C127.907 87.0543 127.19 86.9235 126.492 87.0432C125.795 87.1629 125.162 87.5253 124.706 88.0664C124.25 88.6074 124 89.2923 124 90C124 90.7077 124.25 91.3926 124.706 91.9337C125.162 92.4747 125.795 92.8371 126.492 92.9568C127.19 93.0765 127.907 92.9457 128.518 92.5876C129.128 92.2296 129.592 91.6672 129.828 91H131V94C131 94.2651 130.894 94.5193 130.707 94.7068C130.519 94.8943 130.265 94.9997 130 95H108C107.735 94.9997 107.481 94.8943 107.293 94.7068C107.106 94.5193 107 94.2651 107 94V71H112C112.795 70.9991 113.558 70.6827 114.12 70.1203C114.683 69.5579 114.999 68.7954 115 68V63H130C130.265 63.0003 130.519 63.1058 130.707 63.2932C130.894 63.4807 131 63.7349 131 64V65H133V64C132.999 63.2046 132.683 62.4421 132.12 61.8797C131.558 61.3173 130.795 61.0009 130 61H114.828C114.434 60.9989 114.044 61.0761 113.68 61.2269C113.316 61.3777 112.985 61.5993 112.707 61.8787L105.879 68.7071C105.599 68.985 105.378 69.3156 105.227 69.6798C105.076 70.0439 104.999 70.4343 105 70.8284V94C105.001 94.7954 105.317 95.5579 105.88 96.1203C106.442 96.6827 107.205 96.9991 108 97H130C130.795 96.9991 131.558 96.6827 132.12 96.1203C132.683 95.5579 132.999 94.7954 133 94V91H165V89H163V65ZM113 64.4143V68C113 68.2651 112.894 68.5193 112.707 68.7068C112.519 68.8943 112.265 68.9997 112 69H108.414L113 64.4143ZM127 91C126.802 91 126.609 90.9414 126.444 90.8315C126.28 90.7216 126.152 90.5654 126.076 90.3827C126 90.2 125.981 89.9989 126.019 89.8049C126.058 89.6109 126.153 89.4328 126.293 89.2929C126.433 89.1531 126.611 89.0578 126.805 89.0192C126.999 88.9806 127.2 89.0004 127.383 89.0761C127.565 89.1518 127.722 89.28 127.831 89.4444C127.941 89.6089 128 89.8022 128 90C128 90.2651 127.894 90.5193 127.707 90.7068C127.519 90.8943 127.265 90.9997 127 91ZM139 84H143V89H139V84ZM145 78H149V89H145V78ZM151 72H155V89H151V72ZM157 89V66H161V89H157Z" fill="#646AEC"/>
<path d="M108 62.0004C108.507 62.0005 109.005 61.8722 109.449 61.6275C109.893 61.3827 110.267 61.0295 110.538 60.6009C110.808 60.1722 110.965 59.682 110.995 59.1761C111.024 58.6702 110.925 58.165 110.707 57.7078L113.707 54.7072C114.087 54.8886 114.5 54.9881 114.921 54.9993C115.341 55.0105 115.759 54.9331 116.148 54.7721C116.537 54.6111 116.887 54.3702 117.177 54.065C117.466 53.7597 117.688 53.397 117.828 53.0004H122.172C122.394 53.6273 122.817 54.1628 123.376 54.5228C123.935 54.8828 124.598 55.0468 125.26 54.989C125.923 54.9313 126.547 54.6551 127.036 54.2038C127.524 53.7526 127.849 53.1518 127.958 52.496L133.606 47.6554C134.232 47.9843 134.955 48.0812 135.646 47.9288C136.337 47.7765 136.952 47.3848 137.382 46.8229C137.812 46.261 138.03 45.5652 137.997 44.8583C137.964 44.1515 137.682 43.4791 137.201 42.96C136.72 42.441 136.071 42.1086 135.368 42.0217C134.666 41.9348 133.956 42.099 133.363 42.4852C132.77 42.8714 132.332 43.4547 132.128 44.1322C131.924 44.8096 131.965 45.5375 132.245 46.1873L127.461 50.288C127.146 49.8347 126.712 49.4772 126.207 49.2547C125.702 49.0323 125.146 48.9535 124.599 49.0272C124.052 49.1009 123.536 49.3241 123.108 49.6722C122.68 50.0204 122.356 50.48 122.172 51.0004H117.828C117.692 50.6163 117.48 50.2639 117.203 49.9647C116.927 49.6654 116.593 49.4256 116.221 49.2597C115.849 49.0939 115.447 49.0056 115.039 49.0002C114.632 48.9948 114.228 49.0724 113.852 49.2283C113.475 49.3842 113.135 49.6151 112.851 49.9069C112.566 50.1987 112.345 50.5453 112.199 50.9256C112.053 51.306 111.986 51.712 112.002 52.119C112.019 52.526 112.118 52.9254 112.293 53.293L109.293 56.2935C108.886 56.0995 108.442 55.9994 107.991 56.0007C107.541 56.002 107.097 56.1046 106.692 56.301C106.286 56.4973 105.931 56.7824 105.651 57.135C105.371 57.4876 105.174 57.8987 105.074 58.3378C104.975 58.777 104.975 59.2329 105.076 59.6717C105.177 60.1106 105.375 60.5211 105.656 60.8729C105.937 61.2247 106.294 61.5087 106.699 61.7039C107.105 61.8991 107.55 62.0004 108 62.0004ZM135 44.0004C135.198 44.0004 135.391 44.059 135.556 44.1689C135.72 44.2788 135.848 44.435 135.924 44.6177C136 44.8004 136.019 45.0015 135.981 45.1955C135.942 45.3894 135.847 45.5676 135.707 45.7075C135.567 45.8473 135.389 45.9426 135.195 45.9812C135.001 46.0197 134.8 45.9999 134.617 45.9242C134.435 45.8486 134.278 45.7204 134.169 45.5559C134.059 45.3915 134 45.1981 134 45.0004C134 44.7352 134.106 44.4811 134.293 44.2936C134.481 44.1061 134.735 44.0007 135 44.0004ZM125 51.0004C125.198 51.0004 125.391 51.059 125.556 51.1689C125.72 51.2788 125.848 51.435 125.924 51.6177C126 51.8004 126.019 52.0015 125.981 52.1955C125.942 52.3894 125.847 52.5676 125.707 52.7075C125.567 52.8473 125.389 52.9426 125.195 52.9812C125.001 53.0197 124.8 52.9999 124.617 52.9242C124.435 52.8486 124.278 52.7204 124.169 52.5559C124.059 52.3915 124 52.1981 124 52.0004C124 51.7352 124.106 51.4811 124.293 51.2936C124.481 51.1061 124.735 51.0007 125 51.0004ZM115 51.0004C115.198 51.0004 115.391 51.059 115.556 51.1689C115.72 51.2788 115.848 51.435 115.924 51.6177C116 51.8004 116.019 52.0015 115.981 52.1955C115.942 52.3894 115.847 52.5676 115.707 52.7075C115.567 52.8473 115.389 52.9426 115.195 52.9812C115.001 53.0197 114.8 52.9999 114.617 52.9242C114.435 52.8486 114.278 52.7204 114.169 52.5559C114.059 52.3915 114 52.1981 114 52.0004C114 51.7352 114.106 51.4811 114.293 51.2936C114.481 51.1061 114.735 51.0007 115 51.0004ZM108 58.0004C108.198 58.0004 108.391 58.059 108.556 58.1689C108.72 58.2788 108.848 58.435 108.924 58.6177C109 58.8004 109.019 59.0015 108.981 59.1955C108.942 59.3894 108.847 59.5676 108.707 59.7075C108.567 59.8473 108.389 59.9426 108.195 59.9812C108.001 60.0197 107.8 59.9999 107.617 59.9242C107.435 59.8486 107.278 59.7204 107.169 59.5559C107.059 59.3915 107 59.1981 107 59.0004C107 58.7352 107.106 58.4811 107.293 58.2936C107.481 58.1061 107.735 58.0007 108 58.0004Z" fill="#646AEC"/>
<path d="M144.196 60.3905L137.586 67.0004H128.828C128.593 66.3332 128.128 65.7709 127.518 65.4128C126.908 65.0547 126.19 64.9239 125.493 65.0436C124.795 65.1633 124.162 65.5257 123.706 66.0668C123.25 66.6078 123 67.2927 123 68.0004C123 68.7081 123.25 69.393 123.706 69.9341C124.162 70.4751 124.795 70.8375 125.493 70.9572C126.19 71.0769 126.908 70.9461 127.518 70.588C128.128 70.23 128.593 69.6676 128.828 69.0004H131V87.0004H133V69.0004H138C138.266 69.0004 138.52 68.8951 138.708 68.7075L145.925 61.4903C148.9 63.0695 152.371 63.4355 155.611 62.5118C158.85 61.588 161.606 59.4462 163.301 56.5352C164.996 53.6242 165.498 50.1701 164.703 46.8969C163.907 43.6238 161.875 40.7857 159.033 38.9776C156.191 37.1695 152.759 36.5317 149.457 37.1981C146.155 37.8644 143.24 39.783 141.321 42.5518C139.403 45.3206 138.631 48.7245 139.166 52.0501C139.702 55.3756 141.505 58.3646 144.196 60.3905L144.196 60.3905ZM126 69.0004C125.803 69.0004 125.609 68.9418 125.445 68.8319C125.28 68.722 125.152 68.5658 125.077 68.3831C125.001 68.2004 124.981 67.9993 125.02 67.8053C125.058 67.6113 125.153 67.4332 125.293 67.2933C125.433 67.1535 125.611 67.0582 125.805 67.0196C125.999 66.981 126.2 67.0008 126.383 67.0765C126.566 67.1522 126.722 67.2804 126.832 67.4448C126.942 67.6093 127 67.8026 127 68.0004C127 68.2655 126.895 68.5197 126.707 68.7072C126.52 68.8947 126.266 69.0001 126 69.0004ZM160.022 57.5191L154.227 51.0004H162.954C162.733 53.4399 161.7 55.7349 160.022 57.5191ZM162.954 49.0004H153V39.0464C155.56 39.2836 157.957 40.4086 159.774 42.2264C161.592 44.0443 162.717 46.4406 162.954 49.0004ZM151 39.0464V50.0004C151 50.2453 151.091 50.4816 151.254 50.6641L151.253 50.6648L158.528 58.8488C157.162 59.8562 155.582 60.5339 153.911 60.8291C152.241 61.1242 150.524 61.0288 148.896 60.5502C147.268 60.0715 145.773 59.2228 144.528 58.0702C143.283 56.9177 142.321 55.4926 141.718 53.9066C141.115 52.3205 140.887 50.6165 141.053 48.9277C141.218 47.239 141.772 45.6115 142.671 44.1724C143.57 42.7333 144.789 41.5217 146.234 40.6324C147.679 39.7432 149.311 39.2003 151 39.0464Z" fill="#646AEC"/>
<path d="M85.0278 139H81.9878V124.64H87.6078C91.2278 124.64 93.3278 126.32 93.3278 129.3C93.3278 131.24 92.1278 132.78 90.0878 133.46L93.7878 139H90.1678L86.9278 133.92H85.0278V139ZM85.0278 127.16V131.42H87.4678C89.3078 131.42 90.2878 130.7 90.2878 129.3C90.2878 127.88 89.3078 127.16 87.4678 127.16H85.0278ZM100.13 139.18C96.93 139.18 94.79 136.96 94.79 133.62C94.79 130.44 97.01 128.12 100.09 128.12C103.47 128.12 105.71 130.86 105.21 134.34H97.63C97.81 136.08 98.65 137.04 100.07 137.04C101.29 137.04 102.11 136.44 102.43 135.38H105.19C104.59 137.8 102.73 139.18 100.13 139.18ZM100.03 130.16C98.73 130.16 97.91 131 97.67 132.58H102.27C102.19 131.1 101.35 130.16 100.03 130.16ZM111.917 143.06C109.037 143.06 107.117 141.5 106.997 139.04H109.677C109.797 140.26 110.577 140.9 111.897 140.9C113.437 140.9 114.237 140.08 114.237 138.54V136.98C113.657 138 112.557 138.6 111.257 138.6C108.637 138.6 106.677 136.38 106.677 133.36C106.677 130.26 108.517 128.12 111.157 128.12C112.597 128.12 113.677 128.68 114.457 129.78V128.32H116.997V138.5C116.997 141.34 115.077 143.06 111.917 143.06ZM109.457 133.36C109.457 135.1 110.357 136.2 111.797 136.2C113.257 136.2 114.217 135.06 114.217 133.38C114.217 131.64 113.257 130.52 111.797 130.52C110.377 130.52 109.457 131.62 109.457 133.36ZM126.506 134.5V128.32H129.266V139H126.726V137.6C126.146 138.54 124.966 139.2 123.606 139.2C121.466 139.2 119.906 137.9 119.906 135.12V128.32H122.686V134.58C122.686 136.08 123.426 136.74 124.546 136.74C125.546 136.74 126.506 135.94 126.506 134.5ZM135.063 139H132.263V124.64H135.063V139ZM144.416 139V137.68C143.716 138.68 142.656 139.2 141.196 139.2C138.976 139.2 137.496 137.9 137.496 135.9C137.496 133.82 139.176 132.7 142.296 132.7C142.896 132.7 143.416 132.74 144.076 132.82V132.18C144.076 130.98 143.396 130.28 142.236 130.28C141.036 130.28 140.316 130.98 140.216 132.18H137.716C137.876 129.72 139.656 128.12 142.236 128.12C145.036 128.12 146.676 129.66 146.676 132.28V139H144.416ZM140.116 135.82C140.116 136.72 140.756 137.28 141.796 137.28C143.216 137.28 144.076 136.5 144.076 135.26V134.5C143.416 134.4 142.956 134.36 142.476 134.36C140.896 134.36 140.116 134.86 140.116 135.82ZM156.056 136.3V138.72C155.376 139.06 154.736 139.2 153.916 139.2C151.716 139.2 150.336 137.94 150.336 135.54V130.7H148.176V128.32H150.336V125.16H153.096V128.32H156.156V130.7H153.096V134.9C153.096 136.14 153.656 136.64 154.656 136.64C155.176 136.64 155.656 136.52 156.056 136.3ZM162.839 139.2C159.739 139.2 157.419 136.76 157.419 133.66C157.419 130.54 159.739 128.12 162.839 128.12C165.939 128.12 168.259 130.54 168.259 133.66C168.259 136.76 165.939 139.2 162.839 139.2ZM162.839 136.74C164.219 136.74 165.399 135.64 165.399 133.66C165.399 131.68 164.219 130.6 162.839 130.6C161.459 130.6 160.279 131.68 160.279 133.66C160.279 135.64 161.459 136.74 162.839 136.74ZM173.313 133.82V139H170.533V128.32H173.093V130.38C173.873 129.02 175.533 128.2 177.253 128.2V131.08C174.893 130.9 173.313 131.46 173.313 133.82ZM189.012 128.32L183.812 142.86H180.792L182.312 138.88L178.112 128.32H181.112L183.792 135.64L186.232 128.32H189.012ZM102.045 171L100.965 167.92H95.3848L94.2848 171H91.2248L96.6248 156.64H99.9448L105.305 171H102.045ZM98.2048 159.96L96.2448 165.5H100.125L98.2048 159.96ZM106.009 165.66C106.009 162.5 107.869 160.12 110.749 160.12C112.029 160.12 113.109 160.68 113.909 161.7V156.64H116.669V171H114.129V169.46C113.289 170.58 112.129 171.2 110.749 171.2C107.869 171.2 106.009 168.78 106.009 165.66ZM108.869 165.66C108.869 167.66 110.009 168.72 111.369 168.72C112.749 168.72 113.889 167.64 113.889 165.62C113.889 163.6 112.729 162.58 111.369 162.58C110.009 162.58 108.869 163.62 108.869 165.66ZM129.27 160.32L125.35 171H122.31L118.37 160.32H121.37L123.91 167.84L126.47 160.32H129.27ZM134.21 157.84C134.21 158.78 133.45 159.48 132.35 159.48C131.27 159.48 130.51 158.78 130.51 157.84C130.51 156.86 131.27 156.16 132.35 156.16C133.45 156.16 134.21 156.86 134.21 157.84ZM133.77 171H130.99V160.32H133.77V171ZM145.764 167.58C145.764 169.82 144.064 171.2 141.024 171.2C137.984 171.2 136.284 169.74 136.064 167.36H138.724C138.744 168.46 139.684 169.16 141.064 169.16C142.144 169.16 142.964 168.82 142.964 168.06C142.964 167.38 142.524 167.1 141.504 166.9L139.584 166.54C137.664 166.2 136.504 165.14 136.504 163.48C136.504 161.5 138.204 160.12 140.864 160.12C143.544 160.12 145.384 161.54 145.584 163.84H142.924C142.824 162.8 142.044 162.16 140.864 162.16C139.844 162.16 139.164 162.54 139.164 163.22C139.164 163.86 139.604 164.12 140.564 164.3L142.624 164.68C144.704 165.08 145.764 166.04 145.764 167.58ZM152.882 171.2C149.782 171.2 147.462 168.76 147.462 165.66C147.462 162.54 149.782 160.12 152.882 160.12C155.982 160.12 158.302 162.54 158.302 165.66C158.302 168.76 155.982 171.2 152.882 171.2ZM152.882 168.74C154.262 168.74 155.442 167.64 155.442 165.66C155.442 163.68 154.262 162.6 152.882 162.6C151.502 162.6 150.322 163.68 150.322 165.66C150.322 167.64 151.502 168.74 152.882 168.74ZM163.356 165.82V171H160.576V160.32H163.136V162.38C163.916 161.02 165.576 160.2 167.296 160.2V163.08C164.936 162.9 163.356 163.46 163.356 165.82ZM179.055 160.32L173.855 174.86H170.835L172.355 170.88L168.155 160.32H171.155L173.835 167.64L176.275 160.32H179.055Z" fill="#4D4D4D"/>
</g>
<defs>
<filter id="filter0_d_3982_17162" x="0" y="0.5" width="270" height="229" filterUnits="userSpaceOnUse" color-interpolation-filters="sRGB">
<feFlood flood-opacity="0" result="BackgroundImageFix"/>
<feColorMatrix in="SourceAlpha" type="matrix" values="0 0 0 0 0 0 0 0 0 0 0 0 0 0 0 0 0 0 127 0" result="hardAlpha"/>
<feOffset dy="8"/>
<feGaussianBlur stdDeviation="12"/>
<feComposite in2="hardAlpha" operator="out"/>
<feColorMatrix type="matrix" values="0 0 0 0 0.760784 0 0 0 0 0.760784 0 0 0 0 0.760784 0 0 0 0.2 0"/>
<feBlend mode="normal" in2="BackgroundImageFix" result="effect1_dropShadow_3982_17162"/>
<feBlend mode="normal" in="SourceGraphic" in2="effect1_dropShadow_3982_17162" result="shape"/>
</filter>
</defs>
</svg>
