<svg width="263" height="234" viewBox="0 0 263 234" fill="none" xmlns="http://www.w3.org/2000/svg">
<g filter="url(#filter0_d_3982_17194)">
<rect x="25" y="17" width="213" height="184" rx="8" fill="white" shape-rendering="crispEdges"/>
<path d="M161.1 86.4773C162.003 85.2733 162.5 83.7823 162.5 82.2773V69.2773C162.5 67.6233 161.154 66.2773 159.5 66.2773C159.105 66.2773 158.73 66.3583 158.384 66.4973C158.039 65.2223 156.883 64.2773 155.5 64.2773C154.729 64.2773 154.032 64.5783 153.5 65.0573C152.968 64.5773 152.271 64.2773 151.5 64.2773C151.148 64.2773 150.814 64.3493 150.5 64.4613V55.2773C150.5 54.8153 150.387 54.3833 150.199 53.9923L154.5 49.6913L158.042 53.2333L160.875 41.9023L149.544 44.7353L153.086 48.2773L148.785 52.5783C148.394 52.3903 147.962 52.2773 147.5 52.2773C146.198 52.2773 145.098 53.1163 144.684 54.2773H135.086L100.793 88.5703L102.207 89.9843L135.914 56.2773H144.5V74.2913C144.5 74.7463 144.395 75.2013 144.195 75.6103L143.356 71.4163C142.755 68.4153 140.097 66.2363 137.036 66.2363C135.639 66.2363 134.502 67.3733 134.501 68.7713C134.501 69.2733 134.648 69.7593 134.927 70.1773L135.956 71.7203C136.337 72.2913 136.583 72.9543 136.669 73.6353L137.36 79.1693C137.475 80.0903 137.767 80.9673 138.197 81.7153L141.5 88.5073V90.2773H139.5V102.277H161.5V90.2773H159.5V88.6103L161.1 86.4773ZM158.125 44.6523L156.958 49.3213L153.456 45.8193L158.125 44.6523ZM159.5 92.2773V94.2773H141.5V92.2773H159.5ZM141.5 100.277V96.2773H159.5V100.277H141.5ZM143.5 90.2773V88.0473L139.963 80.7813C139.634 80.2053 139.425 79.5793 139.343 78.9213L138.652 73.3873C138.528 72.3993 138.171 71.4393 137.619 70.6113L136.59 69.0673C136.531 68.9793 136.5 68.8763 136.5 68.7703C136.5 68.4753 136.74 68.2353 137.035 68.2353C139.147 68.2353 140.98 69.7373 141.394 71.8083L142.68 78.2353H145.118L145.972 76.5273C146.317 75.8363 146.5 75.0633 146.5 74.2913V55.2773C146.5 54.7263 146.949 54.2773 147.5 54.2773C148.051 54.2773 148.5 54.7263 148.5 55.2773V67.2773V71.2773H150.5V67.2773C150.5 66.7263 150.949 66.2773 151.5 66.2773C152.051 66.2773 152.5 66.7263 152.5 67.2773V71.2773H154.5V67.2773C154.5 66.7263 154.949 66.2773 155.5 66.2773C156.051 66.2773 156.5 66.7263 156.5 67.2773V69.2773V71.2773H158.5V69.2773C158.5 68.7263 158.949 68.2773 159.5 68.2773C160.051 68.2773 160.5 68.7263 160.5 69.2773V82.2773C160.5 83.3523 160.145 84.4183 159.5 85.2773L157.5 87.9443V90.2773H143.5Z" fill="#646AEC"/>
<path d="M113.5 66.2773C120.668 66.2773 126.5 60.4453 126.5 53.2773C126.5 46.1093 120.668 40.2773 113.5 40.2773C106.332 40.2773 100.5 46.1093 100.5 53.2773C100.5 60.4453 106.332 66.2773 113.5 66.2773ZM113.5 42.2773C119.565 42.2773 124.5 47.2123 124.5 53.2773C124.5 59.3423 119.565 64.2773 113.5 64.2773C107.435 64.2773 102.5 59.3423 102.5 53.2773C102.5 47.2123 107.435 42.2773 113.5 42.2773Z" fill="#646AEC"/>
<path d="M113.5 58.2773C112.397 58.2773 111.5 57.3803 111.5 56.2773H109.5C109.5 58.1353 110.78 59.6883 112.5 60.1353V62.2773H114.5V60.2773H117.5V56.2773C117.5 54.0713 115.706 52.2773 113.5 52.2773C112.397 52.2773 111.5 51.3803 111.5 50.2773V48.2773H113.5C114.603 48.2773 115.5 49.1743 115.5 50.2773H117.5C117.5 48.4193 116.22 46.8663 114.5 46.4193V44.2773H112.5V46.2773H109.5V50.2773C109.5 52.4833 111.294 54.2773 113.5 54.2773C114.603 54.2773 115.5 55.1743 115.5 56.2773V58.2773H113.5Z" fill="#646AEC"/>
<path d="M120.5 52.2773H122.5V54.2773H120.5V52.2773Z" fill="#646AEC"/>
<path d="M104.5 52.2773H106.5V54.2773H104.5V52.2773Z" fill="#646AEC"/>
<path d="M102.5 102.277H110.5V90.2773H102.5V102.277ZM104.5 92.2773H108.5V100.277H104.5V92.2773Z" fill="#646AEC"/>
<path d="M114.5 102.277H122.5V80.2773H114.5V102.277ZM116.5 82.2773H120.5V100.277H116.5V82.2773Z" fill="#646AEC"/>
<path d="M126.5 102.277H134.5V72.2773H126.5V102.277ZM128.5 74.2773H132.5V100.277H128.5V74.2773Z" fill="#646AEC"/>
<path d="M116.713 133.817C116.713 136.557 114.513 138.477 110.913 138.477C107.293 138.477 105.033 136.537 104.813 133.497H107.893C107.973 135.077 108.993 136.097 110.853 136.097C112.393 136.097 113.493 135.417 113.493 134.257C113.493 133.357 112.793 132.817 111.573 132.577L109.213 132.117C107.033 131.697 105.353 130.517 105.353 128.137C105.353 125.577 107.613 123.737 110.713 123.737C113.933 123.737 116.293 125.617 116.493 128.617H113.413C113.313 127.117 112.273 126.097 110.753 126.097C109.273 126.097 108.433 126.937 108.433 127.937C108.433 128.917 109.333 129.337 110.373 129.537L112.833 130.037C115.353 130.537 116.713 131.697 116.713 133.817ZM125.575 138.277V136.957C124.875 137.957 123.815 138.477 122.355 138.477C120.135 138.477 118.655 137.177 118.655 135.177C118.655 133.097 120.335 131.977 123.455 131.977C124.055 131.977 124.575 132.017 125.235 132.097V131.457C125.235 130.257 124.555 129.557 123.395 129.557C122.195 129.557 121.475 130.257 121.375 131.457H118.875C119.035 128.997 120.815 127.397 123.395 127.397C126.195 127.397 127.835 128.937 127.835 131.557V138.277H125.575ZM121.275 135.097C121.275 135.997 121.915 136.557 122.955 136.557C124.375 136.557 125.235 135.777 125.235 134.537V133.777C124.575 133.677 124.115 133.637 123.635 133.637C122.055 133.637 121.275 134.137 121.275 135.097ZM133.531 138.277H130.731V123.917H133.531V138.277ZM141.164 138.457C137.964 138.457 135.824 136.237 135.824 132.897C135.824 129.717 138.044 127.397 141.124 127.397C144.504 127.397 146.744 130.137 146.244 133.617H138.664C138.844 135.357 139.684 136.317 141.104 136.317C142.324 136.317 143.144 135.717 143.464 134.657H146.224C145.624 137.077 143.764 138.457 141.164 138.457ZM141.064 129.437C139.764 129.437 138.944 130.277 138.704 131.857H143.304C143.224 130.377 142.384 129.437 141.064 129.437ZM157.626 134.857C157.626 137.097 155.926 138.477 152.886 138.477C149.846 138.477 148.146 137.017 147.926 134.637H150.586C150.606 135.737 151.546 136.437 152.926 136.437C154.006 136.437 154.826 136.097 154.826 135.337C154.826 134.657 154.386 134.377 153.366 134.177L151.446 133.817C149.526 133.477 148.366 132.417 148.366 130.757C148.366 128.777 150.066 127.397 152.726 127.397C155.406 127.397 157.246 128.817 157.446 131.117H154.786C154.686 130.077 153.906 129.437 152.726 129.437C151.706 129.437 151.026 129.817 151.026 130.497C151.026 131.137 151.466 131.397 152.426 131.577L154.486 131.957C156.566 132.357 157.626 133.317 157.626 134.857ZM76.8878 170.277H73.8478V155.917H83.1278V158.557H76.8878V162.177H82.1478V164.797H76.8878V170.277ZM89.8434 170.477C86.7434 170.477 84.4234 168.037 84.4234 164.937C84.4234 161.817 86.7434 159.397 89.8434 159.397C92.9434 159.397 95.2634 161.817 95.2634 164.937C95.2634 168.037 92.9434 170.477 89.8434 170.477ZM89.8434 168.017C91.2234 168.017 92.4034 166.917 92.4034 164.937C92.4034 162.957 91.2234 161.877 89.8434 161.877C88.4634 161.877 87.2834 162.957 87.2834 164.937C87.2834 166.917 88.4634 168.017 89.8434 168.017ZM100.317 165.097V170.277H97.5375V159.597H100.097V161.657C100.877 160.297 102.537 159.477 104.257 159.477V162.357C101.897 162.177 100.317 162.737 100.317 165.097ZM110.763 170.457C107.563 170.457 105.423 168.237 105.423 164.897C105.423 161.717 107.643 159.397 110.723 159.397C114.103 159.397 116.343 162.137 115.843 165.617H108.263C108.443 167.357 109.283 168.317 110.703 168.317C111.923 168.317 112.743 167.717 113.063 166.657H115.823C115.223 169.077 113.363 170.457 110.763 170.457ZM110.663 161.437C109.363 161.437 108.543 162.277 108.303 163.857H112.903C112.823 162.377 111.983 161.437 110.663 161.437ZM122.51 170.477C119.43 170.477 117.31 168.197 117.31 164.937C117.31 161.737 119.51 159.397 122.51 159.397C125.29 159.397 127.35 161.277 127.69 164.157H124.77C124.63 162.737 123.77 161.857 122.51 161.857C121.07 161.857 120.15 163.037 120.15 164.937C120.15 166.857 121.05 168.017 122.51 168.017C123.79 168.017 124.61 167.177 124.77 165.717H127.69C127.37 168.657 125.37 170.477 122.51 170.477ZM136.335 170.277V168.957C135.635 169.957 134.575 170.477 133.115 170.477C130.895 170.477 129.415 169.177 129.415 167.177C129.415 165.097 131.095 163.977 134.215 163.977C134.815 163.977 135.335 164.017 135.995 164.097V163.457C135.995 162.257 135.315 161.557 134.155 161.557C132.955 161.557 132.235 162.257 132.135 163.457H129.635C129.795 160.997 131.575 159.397 134.155 159.397C136.955 159.397 138.595 160.937 138.595 163.557V170.277H136.335ZM132.035 167.097C132.035 167.997 132.675 168.557 133.715 168.557C135.135 168.557 135.995 167.777 135.995 166.537V165.777C135.335 165.677 134.875 165.637 134.395 165.637C132.815 165.637 132.035 166.137 132.035 167.097ZM150.511 166.857C150.511 169.097 148.811 170.477 145.771 170.477C142.731 170.477 141.031 169.017 140.811 166.637H143.471C143.491 167.737 144.431 168.437 145.811 168.437C146.891 168.437 147.711 168.097 147.711 167.337C147.711 166.657 147.271 166.377 146.251 166.177L144.331 165.817C142.411 165.477 141.251 164.417 141.251 162.757C141.251 160.777 142.951 159.397 145.611 159.397C148.291 159.397 150.131 160.817 150.331 163.117H147.671C147.571 162.077 146.791 161.437 145.611 161.437C144.591 161.437 143.911 161.817 143.911 162.497C143.911 163.137 144.351 163.397 145.311 163.577L147.371 163.957C149.451 164.357 150.511 165.317 150.511 166.857ZM159.334 167.577V169.997C158.654 170.337 158.014 170.477 157.194 170.477C154.994 170.477 153.614 169.217 153.614 166.817V161.977H151.454V159.597H153.614V156.437H156.374V159.597H159.434V161.977H156.374V166.177C156.374 167.417 156.934 167.917 157.934 167.917C158.454 167.917 158.934 167.797 159.334 167.577ZM164.851 157.117C164.851 158.057 164.091 158.757 162.991 158.757C161.911 158.757 161.151 158.057 161.151 157.117C161.151 156.137 161.911 155.437 162.991 155.437C164.091 155.437 164.851 156.137 164.851 157.117ZM164.411 170.277H161.631V159.597H164.411V170.277ZM170.165 164.457V170.277H167.385V159.597H169.945V161.117C170.725 160.057 171.825 159.397 173.225 159.397C175.365 159.397 176.845 160.797 176.845 163.377V170.277H174.085V164.317C174.085 162.737 173.465 161.857 172.205 161.857C171.105 161.857 170.165 162.737 170.165 164.457ZM184.281 174.337C181.401 174.337 179.481 172.777 179.361 170.317H182.041C182.161 171.537 182.941 172.177 184.261 172.177C185.801 172.177 186.601 171.357 186.601 169.817V168.257C186.021 169.277 184.921 169.877 183.621 169.877C181.001 169.877 179.041 167.657 179.041 164.637C179.041 161.537 180.881 159.397 183.521 159.397C184.961 159.397 186.041 159.957 186.821 161.057V159.597H189.361V169.777C189.361 172.617 187.441 174.337 184.281 174.337ZM181.821 164.637C181.821 166.377 182.721 167.477 184.161 167.477C185.621 167.477 186.581 166.337 186.581 164.657C186.581 162.917 185.621 161.797 184.161 161.797C182.741 161.797 181.821 162.897 181.821 164.637Z" fill="#4D4D4D"/>
</g>
<defs>
<filter id="filter0_d_3982_17194" x="0" y="0" width="263" height="234" filterUnits="userSpaceOnUse" color-interpolation-filters="sRGB">
<feFlood flood-opacity="0" result="BackgroundImageFix"/>
<feColorMatrix in="SourceAlpha" type="matrix" values="0 0 0 0 0 0 0 0 0 0 0 0 0 0 0 0 0 0 127 0" result="hardAlpha"/>
<feOffset dy="8"/>
<feGaussianBlur stdDeviation="12.5"/>
<feComposite in2="hardAlpha" operator="out"/>
<feColorMatrix type="matrix" values="0 0 0 0 0.76 0 0 0 0 0.76 0 0 0 0 0.76 0 0 0 0.2 0"/>
<feBlend mode="normal" in2="BackgroundImageFix" result="effect1_dropShadow_3982_17194"/>
<feBlend mode="normal" in="SourceGraphic" in2="effect1_dropShadow_3982_17194" result="shape"/>
</filter>
</defs>
</svg>
