<svg width="65" height="64" viewBox="0 0 65 64" fill="none" xmlns="http://www.w3.org/2000/svg">
<path d="M58.3082 11.3548C58.3082 4.98787 46.973 0 32.5018 0C18.0305 0 6.69531 4.98787 6.69531 11.3548C6.69647 11.7014 6.73105 12.0471 6.79854 12.3871H6.69531V52.6452C6.69531 59.0121 18.0305 64 32.5018 64C46.973 64 58.3082 59.0121 58.3082 52.6452V12.3871H58.205C58.2725 12.0471 58.3071 11.7014 58.3082 11.3548ZM56.2437 52.6452C56.2437 57.1314 46.7036 61.9355 32.5018 61.9355C18.3 61.9355 8.75983 57.1314 8.75983 52.6452V46.849C12.6618 50.9017 21.7085 53.6774 32.5018 53.6774C43.2951 53.6774 52.3418 50.9017 56.2437 46.849V52.6452ZM56.2437 42.3226C56.2437 46.8088 46.7036 51.6129 32.5018 51.6129C18.3 51.6129 8.75983 46.8088 8.75983 42.3226V36.5264C12.6618 40.5791 21.7085 43.3548 32.5018 43.3548C43.2951 43.3548 52.3418 40.5791 56.2437 36.5264V42.3226ZM56.2437 32C56.2437 36.4862 46.7036 41.2903 32.5018 41.2903C18.3 41.2903 8.75983 36.4862 8.75983 32V26.2039C12.6618 30.2565 21.7085 33.0323 32.5018 33.0323C43.2951 33.0323 52.3418 30.2565 56.2437 26.2039V32ZM56.2437 21.6774C56.2437 26.1636 46.7036 30.9677 32.5018 30.9677C18.3 30.9677 8.75983 26.1636 8.75983 21.6774V15.8813C12.6618 19.9339 21.7085 22.7097 32.5018 22.7097C43.2951 22.7097 52.3418 19.9339 56.2437 15.8813V21.6774ZM32.5018 20.6452C18.3 20.6452 8.75983 15.841 8.75983 11.3548C8.75983 6.86864 18.3 2.06452 32.5018 2.06452C46.7036 2.06452 56.2437 6.86864 56.2437 11.3548C56.2437 15.841 46.7036 20.6452 32.5018 20.6452Z" fill="#0223CF"/>
</svg>
