<svg width="65" height="64" viewBox="0 0 65 64" fill="none" xmlns="http://www.w3.org/2000/svg">
<path d="M41.3287 16.632C43.0519 16.632 44.4538 15.2301 44.4538 13.507C44.4538 11.7838 43.0519 10.3818 41.3287 10.3818C39.6056 10.3818 38.2037 11.7838 38.2037 13.507C38.2037 14.2107 38.4378 14.8607 38.8319 15.3837L33.6974 22.5588C33.391 22.4582 33.0641 22.403 32.7244 22.403C31.9032 22.403 31.1555 22.7218 30.5972 23.2416L27.1749 21.2996C27.2205 21.0876 27.245 20.8678 27.245 20.6425C27.245 18.9193 25.8431 17.5175 24.12 17.5175C22.3969 17.5175 20.995 18.9193 20.995 20.6425C20.995 20.8678 21.0195 21.0876 21.0651 21.2996L17.6427 23.2416C17.0845 22.7218 16.3368 22.4031 15.5156 22.4031C13.7925 22.4031 12.3906 23.8051 12.3906 25.5282C12.3906 27.2513 13.7925 28.6533 15.5156 28.6533C17.2387 28.6533 18.6406 27.2513 18.6406 25.5282C18.6406 25.3028 18.6161 25.0831 18.5705 24.8711L21.9929 22.9291C22.5511 23.4488 23.2989 23.7677 24.12 23.7677C24.9411 23.7677 25.6888 23.4488 26.2471 22.9292L29.6695 24.8712C29.6239 25.0832 29.5994 25.303 29.5994 25.5283C29.5994 27.2515 31.0012 28.6535 32.7244 28.6535C34.4476 28.6535 35.8495 27.2515 35.8495 25.5283C35.8495 24.8245 35.6154 24.1743 35.2213 23.6513L40.3557 16.4762C40.662 16.5767 40.989 16.632 41.3287 16.632ZM41.3287 12.2568C42.018 12.2568 42.5787 12.8176 42.5787 13.507C42.5787 14.1962 42.018 14.757 41.3287 14.757C40.6395 14.757 40.0787 14.1962 40.0787 13.507C40.0786 12.8176 40.6394 12.2568 41.3287 12.2568ZM15.5153 26.7781C14.826 26.7781 14.2653 26.2173 14.2653 25.528C14.2653 24.8386 14.826 24.2778 15.5153 24.2778C16.2045 24.2778 16.7653 24.8386 16.7653 25.528C16.7653 26.2173 16.2045 26.7781 15.5153 26.7781ZM24.1198 21.8925C23.4305 21.8925 22.8698 21.3317 22.8698 20.6423C22.8698 19.9531 23.4305 19.3923 24.1198 19.3923C24.809 19.3923 25.3698 19.9531 25.3698 20.6423C25.3699 21.3317 24.809 21.8925 24.1198 21.8925ZM32.7242 26.7781C32.035 26.7781 31.4743 26.2173 31.4743 25.528C31.4743 24.8386 32.035 24.2778 32.7242 24.2778C33.4136 24.2778 33.9744 24.8386 33.9744 25.528C33.9744 26.2173 33.4135 26.7781 32.7242 26.7781Z" fill="#0223CF"/>
<path d="M52.8495 47.1198H46.2887H10.5535H3.15188C2.7235 47.1198 2.375 46.7713 2.375 46.3429V7.66555C2.375 7.23717 2.7235 6.88867 3.15188 6.88867H7.57137C8.08912 6.88867 8.50887 6.46905 8.50887 5.95117C8.50887 5.4333 8.08912 5.01367 7.57137 5.01367H3.15188C1.68963 5.01367 0.5 6.2033 0.5 7.66555V46.3429C0.5 47.8052 1.68963 48.9948 3.15188 48.9948H9.616V51.058C9.616 52.2334 10.5723 53.1897 11.7476 53.1897H21.1319L16.7144 61.8144C16.4784 62.2753 16.6605 62.8402 17.1214 63.0763C17.2581 63.1464 17.4041 63.1795 17.548 63.1795C17.8886 63.1795 18.2173 62.9933 18.3831 62.6692L23.2385 53.1897H33.6037L38.4591 62.6692C38.6251 62.9933 38.9536 63.1795 39.2943 63.1795C39.4381 63.1795 39.5841 63.1462 39.7209 63.0763C40.1818 62.8402 40.364 62.2753 40.1279 61.8144L35.7104 53.1897H45.0946C46.27 53.1897 47.2262 52.2335 47.2262 51.058V48.9948H52.8495C53.3672 48.9948 53.787 48.5752 53.787 48.0573C53.787 47.5394 53.3672 47.1198 52.8495 47.1198ZM45.3512 51.058C45.3512 51.1995 45.2361 51.3147 45.0946 51.3147H11.7476C11.6061 51.3147 11.491 51.1995 11.491 51.058V48.9948H45.3512V51.058Z" fill="#0223CF"/>
<path d="M11.3203 6.88909H24.1543H32.6857H53.6892C54.1176 6.88909 54.4661 7.23759 54.4661 7.66596V16.5798C54.4661 17.0977 54.8858 17.5173 55.4036 17.5173C55.9213 17.5173 56.3411 17.0977 56.3411 16.5798V7.66596C56.3411 6.20371 55.1514 5.01409 53.6892 5.01409H33.6233V3.17134C33.6233 1.87446 32.5682 0.819336 31.2712 0.819336H25.5689C24.2721 0.819336 23.2168 1.87446 23.2168 3.17134V5.01409H11.3203C10.8026 5.01409 10.3828 5.43371 10.3828 5.95159C10.3828 6.46946 10.8026 6.88909 11.3203 6.88909ZM25.0918 3.17134C25.0918 2.90834 25.3058 2.69434 25.5689 2.69434H31.2712C31.5342 2.69434 31.7483 2.90834 31.7483 3.17134V5.01409H25.0919V3.17134H25.0918Z" fill="#0223CF"/>
<path d="M13.6133 33.4463C13.0955 33.4463 12.6758 33.8659 12.6758 34.3838V42.6678C12.6758 43.1857 13.0955 43.6053 13.6133 43.6053H17.4166C17.9344 43.6053 18.3541 43.1857 18.3541 42.6678V34.3838C18.3541 33.8659 17.9344 33.4463 17.4166 33.4463H13.6133ZM16.4792 41.7304H14.5508V35.3214H16.4792V41.7304Z" fill="#0223CF"/>
<path d="M22.2188 28.6553C21.701 28.6553 21.2812 29.0749 21.2812 29.5928V42.6679C21.2812 43.1858 21.701 43.6054 22.2188 43.6054H26.0221C26.5399 43.6054 26.9596 43.1858 26.9596 42.6679V29.5928C26.9596 29.0749 26.5399 28.6553 26.0221 28.6553H22.2188ZM25.0847 41.7304H23.1564V30.5303H25.0847V41.7304Z" fill="#0223CF"/>
<path d="M30.8203 33.4463C30.3026 33.4463 29.8828 33.8659 29.8828 34.3838V42.6678C29.8828 43.1857 30.3026 43.6053 30.8203 43.6053H34.6237C35.1414 43.6053 35.5612 43.1857 35.5612 42.6678V34.3838C35.5612 33.8659 35.1414 33.4463 34.6237 33.4463H30.8203ZM33.6862 41.7304H31.7578V35.3214H33.6862V41.7304Z" fill="#0223CF"/>
<path d="M39.4258 38.9785C38.908 38.9785 38.4883 39.3981 38.4883 39.916V42.6681C38.4883 43.186 38.908 43.6056 39.4258 43.6056H43.2292C43.7469 43.6056 44.1667 43.186 44.1667 42.6681C44.1667 42.1503 43.7469 41.7306 43.2292 41.7306H40.3633V39.916C40.3633 39.3981 39.9435 38.9785 39.4258 38.9785Z" fill="#0223CF"/>
<path d="M64.0217 48.0017L58.6433 38.6859C60.0059 37.2336 60.9982 35.4589 61.5282 33.4809C62.3753 30.3196 61.9405 27.0174 60.304 24.1829C56.9258 18.3313 49.4169 16.3197 43.5657 19.6978C37.7143 23.0759 35.7024 30.5848 39.0807 36.4362C40.7172 39.2707 43.3595 41.2982 46.5209 42.1454C47.5767 42.4283 48.6478 42.5682 49.7122 42.5682C50.6424 42.5682 51.5673 42.4612 52.4718 42.2494L57.849 51.5654C58.5082 52.7076 59.7084 53.3467 60.9412 53.3466C61.5453 53.3466 62.1573 53.1929 62.7172 52.8699C63.8167 52.2353 64.4998 51.0519 64.4998 49.7817C64.4998 49.1593 64.3345 48.5439 64.0217 48.0017ZM47.0062 40.3343C44.3285 39.6168 42.0904 37.8994 40.7043 35.4987C37.843 30.5427 39.5472 24.1829 44.503 21.3216C46.1334 20.3803 47.915 19.9333 49.6748 19.9333C53.2642 19.9333 56.7602 21.7949 58.6802 25.1204C60.0662 27.5212 60.4344 30.3179 59.7169 32.9957C58.9994 35.6734 57.282 37.9113 54.8813 39.2974C52.4807 40.6836 49.6839 41.0516 47.0062 40.3343ZM61.78 51.2459C60.9734 51.7117 59.9384 51.4344 59.473 50.6282L54.2995 41.6652C54.818 41.4536 55.3258 41.2061 55.819 40.9213C56.3127 40.6363 56.7802 40.3191 57.2228 39.9756L62.3978 48.9389C62.5463 49.1966 62.6248 49.4881 62.6248 49.7818C62.6248 50.3841 62.301 50.9452 61.78 51.2459Z" fill="#0223CF"/>
<path d="M58.1943 32.9514C58.8562 30.8194 58.6985 28.5369 57.7504 26.5244C57.5297 26.0559 56.9712 25.8552 56.5028 26.0758C56.0343 26.2966 55.8335 26.8551 56.0543 27.3234C56.8022 28.9109 56.9263 30.7121 56.4037 32.3953C55.8782 34.0878 54.7429 35.5082 53.2071 36.3949C51.5818 37.3334 49.6882 37.5824 47.8756 37.0968C46.0628 36.6111 44.5476 35.4484 43.6093 33.8232C41.6722 30.4681 42.8259 26.1626 46.1811 24.2254C48.6342 22.8093 51.6786 22.9986 53.9374 24.7076C54.3504 25.0201 54.9383 24.9387 55.2507 24.5257C55.563 24.1128 55.4817 23.5248 55.0687 23.2124C52.2073 21.0473 48.3506 20.8077 45.2434 22.6016C43.1844 23.7903 41.7116 25.7098 41.0962 28.0063C40.4808 30.3028 40.7967 32.7016 41.9854 34.7606C43.1742 36.8197 45.0937 38.2924 47.3902 38.9079C48.1571 39.1134 48.9353 39.2151 49.7084 39.2151C51.2507 39.2151 52.7731 38.8106 54.1444 38.0187C56.0903 36.8954 57.5285 35.0959 58.1943 32.9514Z" fill="#0223CF"/>
</svg>
