<svg width="65" height="64" viewBox="0 0 65 64" fill="none" xmlns="http://www.w3.org/2000/svg">
<path d="M32.5 40C36.9183 40 40.5 36.4183 40.5 32C40.5 27.5817 36.9183 24 32.5 24C28.0817 24 24.5 27.5817 24.5 32C24.5 36.4183 28.0817 40 32.5 40Z" stroke="#0223CF" stroke-width="2.5" stroke-miterlimit="10" stroke-linecap="round" stroke-linejoin="round"/>
<path d="M5.83203 34.3481V29.6548C5.83203 26.8815 8.0987 24.5881 10.8987 24.5881C15.7254 24.5881 17.6987 21.1748 15.272 16.9881C13.8854 14.5881 14.712 11.4681 17.1387 10.0815L21.752 7.44146C23.8587 6.18812 26.5787 6.93479 27.832 9.04146L28.1254 9.54812C30.5254 13.7348 34.472 13.7348 36.8987 9.54812L37.192 9.04146C38.4454 6.93479 41.1654 6.18812 43.272 7.44146L47.8854 10.0815C50.312 11.4681 51.1387 14.5881 49.752 16.9881C47.3254 21.1748 49.2987 24.5881 54.1254 24.5881C56.8987 24.5881 59.192 26.8548 59.192 29.6548V34.3481C59.192 37.1215 56.9254 39.4148 54.1254 39.4148C49.2987 39.4148 47.3254 42.8281 49.752 47.0148C51.1387 49.4415 50.312 52.5348 47.8854 53.9215L43.272 56.5615C41.1654 57.8148 38.4454 57.0681 37.192 54.9615L36.8987 54.4548C34.4987 50.2681 30.552 50.2681 28.1254 54.4548L27.832 54.9615C26.5787 57.0681 23.8587 57.8148 21.752 56.5615L17.1387 53.9215C14.712 52.5348 13.8854 49.4148 15.272 47.0148C17.6987 42.8281 15.7254 39.4148 10.8987 39.4148C8.0987 39.4148 5.83203 37.1215 5.83203 34.3481Z" stroke="#0223CF" stroke-width="2.5" stroke-miterlimit="10" stroke-linecap="round" stroke-linejoin="round"/>
</svg>
