<svg width="39" height="39" viewBox="0 0 39 39" fill="none" xmlns="http://www.w3.org/2000/svg">
<rect width="39" height="39" rx="4" fill="#CAFFD2"/>
<g clip-path="url(#clip0_3671_15502)">
<path d="M21.932 12C22.7454 12.0008 23.5253 12.3243 24.1005 12.8995C24.6757 13.4747 24.9992 14.2546 25 15.068C25 15.3332 25.1054 15.5876 25.2929 15.7751C25.4804 15.9626 25.7348 16.068 26 16.068C26.2652 16.068 26.5196 15.9626 26.7071 15.7751C26.8946 15.5876 27 15.3332 27 15.068V15C27 14.981 27 14.964 27 14.945C26.9666 13.6227 26.4181 12.3658 25.4714 11.4421C24.5247 10.5183 23.2547 10.0009 21.932 10H21V9C21 8.73478 20.8946 8.48043 20.7071 8.29289C20.5196 8.10536 20.2652 8 20 8C19.7348 8 19.4804 8.10536 19.2929 8.29289C19.1054 8.48043 19 8.73478 19 9V10H18.068C16.8653 10.0013 15.7023 10.4302 14.7868 11.2102C13.8713 11.9901 13.263 13.0702 13.0707 14.2574C12.8783 15.4446 13.1144 16.6615 13.7368 17.6907C14.3592 18.7198 15.3273 19.494 16.468 19.875L19 20.72V28H18.068C17.2546 27.9992 16.4747 27.6757 15.8995 27.1005C15.3243 26.5253 15.0008 25.7454 15 24.932C15 24.6668 14.8946 24.4124 14.7071 24.2249C14.5196 24.0374 14.2652 23.932 14 23.932C13.7348 23.932 13.4804 24.0374 13.2929 24.2249C13.1054 24.4124 13 24.6668 13 24.932V25C13 25.019 13 25.036 13 25.055C13.0334 26.3773 13.5819 27.6342 14.5286 28.5579C15.4753 29.4817 16.7453 29.9991 18.068 30H19V31C19 31.2652 19.1054 31.5196 19.2929 31.7071C19.4804 31.8946 19.7348 32 20 32C20.2652 32 20.5196 31.8946 20.7071 31.7071C20.8946 31.5196 21 31.2652 21 31V30H21.932C23.1347 29.9987 24.2977 29.5698 25.2132 28.7898C26.1287 28.0099 26.737 26.9298 26.9293 25.7426C27.1217 24.5554 26.8856 23.3385 26.2632 22.3093C25.6408 21.2802 24.6727 20.506 23.532 20.125L21 19.28V12H21.932ZM22.902 22.021C23.5934 22.2511 24.1804 22.7198 24.5577 23.3432C24.9351 23.9666 25.0782 24.704 24.9615 25.4233C24.8448 26.1426 24.4759 26.7969 23.9208 27.269C23.3657 27.7411 22.6607 28.0003 21.932 28H21V21.387L22.902 22.021ZM19 18.613L17.1 17.979C16.4087 17.7489 15.8219 17.2804 15.4445 16.6572C15.0672 16.034 14.9239 15.2969 15.0403 14.5777C15.1567 13.8585 15.5253 13.2042 16.08 12.7319C16.6348 12.2597 17.3395 12.0002 18.068 12H19V18.613Z" fill="#33DF58"/>
</g>
<defs>
<clipPath id="clip0_3671_15502">
<rect width="24" height="24" fill="white" transform="translate(8 8)"/>
</clipPath>
</defs>
</svg>
