<svg width="39" height="39" viewBox="0 0 39 39" fill="none" xmlns="http://www.w3.org/2000/svg">
<rect width="39" height="39" rx="4" fill="#FFEE91"/>
<g clip-path="url(#clip0_3671_15507)">
<path d="M31.9997 30.9996C31.9997 31.2648 31.8943 31.5191 31.7068 31.7067C31.5192 31.8942 31.2649 31.9996 30.9997 31.9996H8.99966C8.73444 31.9996 8.48009 31.8942 8.29255 31.7067C8.10502 31.5191 7.99966 31.2648 7.99966 30.9996C7.99966 30.7344 8.10502 30.48 8.29255 30.2925C8.48009 30.1049 8.73444 29.9996 8.99966 29.9996H30.9997C31.2649 29.9996 31.5192 30.1049 31.7068 30.2925C31.8943 30.48 31.9997 30.7344 31.9997 30.9996ZM8.29066 16.5516C8.07518 16.1519 7.97535 15.7001 8.00238 15.2468C8.0294 14.7936 8.18221 14.3568 8.44366 13.9856C8.87092 13.3587 9.4431 12.8441 10.1117 12.4856L17.6127 8.58157C18.3499 8.1982 19.1687 7.99805 19.9997 7.99805C20.8306 7.99805 21.6494 8.1982 22.3867 8.58157L29.8867 12.4886C30.5552 12.8471 31.1274 13.3617 31.5547 13.9886C31.8161 14.3598 31.9689 14.7966 31.9959 15.2498C32.023 15.7031 31.9231 16.1549 31.7077 16.5546C31.4757 16.9934 31.1277 17.3602 30.7017 17.615C30.2758 17.8697 29.788 18.0028 29.2917 17.9996H28.9997V25.9996H29.9997C30.2649 25.9996 30.5192 26.1049 30.7068 26.2925C30.8943 26.48 30.9997 26.7344 30.9997 26.9996C30.9997 27.2648 30.8943 27.5191 30.7068 27.7067C30.5192 27.8942 30.2649 27.9996 29.9997 27.9996H9.99966C9.73444 27.9996 9.48009 27.8942 9.29255 27.7067C9.10502 27.5191 8.99966 27.2648 8.99966 26.9996C8.99966 26.7344 9.10502 26.48 9.29255 26.2925C9.48009 26.1049 9.73444 25.9996 9.99966 25.9996H10.9997V17.9996H10.7077C10.2108 18.0027 9.72266 17.8693 9.29645 17.6139C8.87023 17.3586 8.52232 16.9911 8.29066 16.5516ZM12.9997 25.9996H15.9997V17.9996H12.9997V25.9996ZM17.9997 17.9996V25.9996H21.9997V17.9996H17.9997ZM26.9997 17.9996H23.9997V25.9996H26.9997V17.9996ZM10.0627 15.6246C10.1254 15.7402 10.2188 15.8364 10.3325 15.9026C10.4463 15.9687 10.5761 16.0023 10.7077 15.9996H29.2917C29.4232 16.0023 29.553 15.9687 29.6668 15.9026C29.7805 15.8364 29.8739 15.7402 29.9367 15.6246C29.9824 15.5481 30.0045 15.4599 30.0002 15.3709C29.9959 15.282 29.9655 15.1963 29.9127 15.1246C29.6704 14.7645 29.3448 14.4681 28.9637 14.2606L21.4637 10.3536C21.0117 10.119 20.5099 9.99654 20.0007 9.99654C19.4914 9.99654 18.9897 10.119 18.5377 10.3536L11.0377 14.2606C10.6566 14.4688 10.3312 14.7654 10.0887 15.1256C10.0357 15.197 10.0051 15.2824 10.0004 15.3711C9.99581 15.4599 10.0175 15.548 10.0627 15.6246Z" fill="#B59F28"/>
</g>
<defs>
<clipPath id="clip0_3671_15507">
<rect width="24" height="24" fill="white" transform="translate(8 8)"/>
</clipPath>
</defs>
</svg>
