<svg width="39" height="39" viewBox="0 0 39 39" fill="none" xmlns="http://www.w3.org/2000/svg">
<rect width="39" height="39" rx="4" fill="#FFABAB"/>
<g clip-path="url(#clip0_3671_15497)">
<path d="M25.7136 19.9998H21.0006C20.4702 19.9998 19.9615 19.7891 19.5864 19.414C19.2114 19.0389 19.0006 18.5302 19.0006 17.9998V13.2738C19.002 12.8138 18.8976 12.3596 18.6954 11.9464C18.4932 11.5332 18.1987 11.172 17.8346 10.8908C17.4897 10.6176 17.0865 10.4274 16.6563 10.3348C16.2262 10.2422 15.7805 10.2497 15.3536 10.3568C12.9293 10.9586 10.783 12.3699 9.26961 14.3572C7.75625 16.3445 6.96652 18.7888 7.031 21.2859C7.09549 23.783 8.01033 26.1832 9.62425 28.0898C11.2382 29.9963 13.4545 31.2949 15.9066 31.7708C18.6637 32.2985 21.5183 31.7522 23.8857 30.2437C26.2531 28.7352 27.9542 26.3787 28.6406 23.6568C28.7481 23.2294 28.7559 22.7831 28.6635 22.3522C28.5711 21.9214 28.3809 21.5175 28.1076 21.1718C27.8231 20.8083 27.4598 20.5139 27.0452 20.3109C26.6306 20.1079 26.1753 20.0016 25.7136 19.9998ZM26.7016 23.1678C26.3188 24.7097 25.5332 26.1222 24.4253 27.2608C23.3174 28.3995 21.927 29.2234 20.3962 29.6484C18.8654 30.0733 17.2492 30.0841 15.7128 29.6795C14.1765 29.2749 12.7753 28.4695 11.6523 27.3456C10.5294 26.2218 9.72519 24.8198 9.32186 23.2832C8.91854 21.7466 8.93061 20.1304 9.35684 18.5999C9.78307 17.0695 10.6082 15.6797 11.7477 14.5727C12.8873 13.4658 14.3005 12.6814 15.8426 12.2998C15.9746 12.2668 16.1124 12.2652 16.2451 12.2951C16.3777 12.325 16.5016 12.3855 16.6066 12.4718C16.7307 12.5664 16.8314 12.6883 16.9007 12.8281C16.9701 12.9679 17.0063 13.1218 17.0066 13.2778V17.9998C17.0066 19.0607 17.4281 20.0781 18.1782 20.8282C18.9284 21.5784 19.9458 21.9998 21.0066 21.9998H25.7186C25.876 22.0004 26.0313 22.0368 26.1726 22.1061C26.3139 22.1753 26.4377 22.2758 26.5346 22.3998C26.6196 22.5063 26.6789 22.6311 26.7077 22.7643C26.7365 22.8976 26.7341 23.0357 26.7006 23.1678H26.7016Z" fill="#CF4141"/>
<path d="M30.6515 15.4459C30.1911 13.7534 29.2968 12.2104 28.0569 10.9697C26.8171 9.72895 25.2747 8.83349 23.5825 8.37189C23.4051 8.3242 23.2222 8.3 23.0385 8.29989C22.7743 8.29738 22.5122 8.34726 22.2673 8.44665C22.0225 8.54603 21.7998 8.69295 21.612 8.87892C21.4243 9.06489 21.2753 9.28622 21.1736 9.53011C21.0719 9.77401 21.0195 10.0356 21.0195 10.2999V14.9999C21.0195 15.7955 21.3356 16.5586 21.8982 17.1212C22.4608 17.6838 23.2239 17.9999 24.0195 17.9999H28.7385C29.0472 17.9969 29.351 17.9228 29.6264 17.7834C29.9018 17.6439 30.1413 17.4428 30.3264 17.1958C30.5114 16.9487 30.637 16.6623 30.6934 16.3588C30.7498 16.0553 30.7355 15.7429 30.6515 15.4459ZM28.1535 15.9999H24.0155C23.7503 15.9999 23.496 15.8945 23.3084 15.707C23.1209 15.5195 23.0155 15.2651 23.0155 14.9999L23.0075 10.3069C23.0149 10.3016 23.0235 10.2985 23.0325 10.2979H23.0585C24.4206 10.669 25.6616 11.3908 26.6576 12.3913C27.6535 13.3919 28.3697 14.6361 28.7345 15.9999H28.1535Z" fill="#CF4141"/>
</g>
<defs>
<clipPath id="clip0_3671_15497">
<rect width="24" height="24" fill="white" transform="translate(7 8)"/>
</clipPath>
</defs>
</svg>
