<svg width="39" height="39" viewBox="0 0 39 39" fill="none" xmlns="http://www.w3.org/2000/svg">
<rect width="39" height="39" rx="4" fill="#70F1EA"/>
<g clip-path="url(#clip0_3671_15492)">
<path d="M31.121 17.0691L23.536 9.48311C22.5973 8.5471 21.3257 8.02148 20 8.02148C18.6744 8.02148 17.4028 8.5471 16.464 9.48311L8.87901 17.0691C8.59944 17.3469 8.37778 17.6774 8.22689 18.0415C8.07601 18.4056 7.99889 18.796 8.00001 19.1901V29.0071C8.00001 29.8028 8.31608 30.5658 8.87869 31.1284C9.4413 31.691 10.2044 32.0071 11 32.0071H29C29.7957 32.0071 30.5587 31.691 31.1213 31.1284C31.6839 30.5658 32 29.8028 32 29.0071V19.1901C32.0011 18.796 31.924 18.4056 31.7731 18.0415C31.6222 17.6774 31.4006 17.3469 31.121 17.0691ZM23 30.0071H17V26.0731C17 25.2775 17.3161 24.5144 17.8787 23.9518C18.4413 23.3892 19.2044 23.0731 20 23.0731C20.7957 23.0731 21.5587 23.3892 22.1213 23.9518C22.6839 24.5144 23 25.2775 23 26.0731V30.0071ZM30 29.0071C30 29.2723 29.8947 29.5267 29.7071 29.7142C29.5196 29.9018 29.2652 30.0071 29 30.0071H25V26.0731C25 24.747 24.4732 23.4753 23.5355 22.5376C22.5979 21.5999 21.3261 21.0731 20 21.0731C18.6739 21.0731 17.4022 21.5999 16.4645 22.5376C15.5268 23.4753 15 24.747 15 26.0731V30.0071H11C10.7348 30.0071 10.4804 29.9018 10.2929 29.7142C10.1054 29.5267 10 29.2723 10 29.0071V19.1901C10.0009 18.9251 10.1062 18.6711 10.293 18.4831L17.878 10.9001C18.4417 10.339 19.2047 10.0241 20 10.0241C20.7953 10.0241 21.5583 10.339 22.122 10.9001L29.707 18.4861C29.8931 18.6734 29.9983 18.9261 30 19.1901V29.0071Z" fill="#27B4AC"/>
</g>
<defs>
<clipPath id="clip0_3671_15492">
<rect width="24" height="24" fill="white" transform="translate(8 8)"/>
</clipPath>
</defs>
</svg>
