<svg width="98" height="98" viewBox="0 0 98 98" fill="none" xmlns="http://www.w3.org/2000/svg">
<rect x="0.5" y="0.5" width="97" height="97" rx="8.5" fill="white"/>
<rect x="0.5" y="0.5" width="97" height="97" rx="8.5" stroke="#0223CF"/>
<path d="M68.3542 33.5161C68.3542 28.7409 59.8528 25 48.9994 25C38.146 25 29.6445 28.7409 29.6445 33.5161C29.6454 33.7761 29.6713 34.0353 29.722 34.2903H29.6445V64.4839C29.6445 69.2591 38.146 73 48.9994 73C59.8528 73 68.3542 69.2591 68.3542 64.4839V34.2903H68.2768C68.3274 34.0353 68.3533 33.7761 68.3542 33.5161ZM66.8058 64.4839C66.8058 67.8485 59.6507 71.4516 48.9994 71.4516C38.348 71.4516 31.1929 67.8485 31.1929 64.4839V60.1368C34.1194 63.1763 40.9044 65.2581 48.9994 65.2581C57.0943 65.2581 63.8794 63.1763 66.8058 60.1368V64.4839ZM66.8058 56.7419C66.8058 60.1066 59.6507 63.7097 48.9994 63.7097C38.348 63.7097 31.1929 60.1066 31.1929 56.7419V52.3948C34.1194 55.4343 40.9044 57.5161 48.9994 57.5161C57.0943 57.5161 63.8794 55.4343 66.8058 52.3948V56.7419ZM66.8058 49C66.8058 52.3646 59.6507 55.9677 48.9994 55.9677C38.348 55.9677 31.1929 52.3646 31.1929 49V44.6529C34.1194 47.6924 40.9044 49.7742 48.9994 49.7742C57.0943 49.7742 63.8794 47.6924 66.8058 44.6529V49ZM66.8058 41.2581C66.8058 44.6227 59.6507 48.2258 48.9994 48.2258C38.348 48.2258 31.1929 44.6227 31.1929 41.2581V36.911C34.1194 39.9505 40.9044 42.0323 48.9994 42.0323C57.0943 42.0323 63.8794 39.9505 66.8058 36.911V41.2581ZM48.9994 40.4839C38.348 40.4839 31.1929 36.8808 31.1929 33.5161C31.1929 30.1515 38.348 26.5484 48.9994 26.5484C59.6507 26.5484 66.8058 30.1515 66.8058 33.5161C66.8058 36.8808 59.6507 40.4839 48.9994 40.4839Z" fill="#0223CF"/>
</svg>
