<svg width="98" height="98" viewBox="0 0 98 98" fill="none" xmlns="http://www.w3.org/2000/svg">
<rect x="0.5" y="0.5" width="97" height="97" rx="8.5" stroke="#0223CF"/>
<g clip-path="url(#clip0_3718_16901)">
<path d="M61.7984 47.3203L51.3984 50.7605V57.3203C51.3984 63.3203 54.5984 68.8402 59.7184 71.8004L61.7984 73.0004L63.8785 71.8004C68.9984 68.9203 72.1984 63.4004 72.1984 57.4004V50.8402L61.7984 47.3203ZM70.5984 57.4004C70.5984 62.8402 67.7184 67.8004 63.0785 70.5203L61.7984 71.2402L60.5184 70.5203C55.8785 67.8004 52.9984 62.7605 52.9984 57.4004V51.9605L61.7984 49.0004L70.5984 51.9605V57.4004Z" fill="#0223CF"/>
<path d="M40.2008 73C46.1207 73 51.3207 72.1199 53.4008 70.7602L52.5207 69.4C51.0809 70.3602 46.6008 71.4 40.2008 71.4C32.2008 71.4 27.5609 69.8 27.4008 69V60.6C30.2008 62.1199 36.2008 62.6 40.2008 62.6C43.2406 62.6 46.2008 62.3602 49.1609 61.8L48.8406 60.2C45.9609 60.6801 43.0809 61 40.2008 60.9199C32.2008 60.9199 27.5609 59.3199 27.4008 58.5199V49.4C30.2008 50.9199 36.2008 51.4 40.2008 51.4C43.4809 51.4801 46.7609 51.1602 49.9609 50.4398L49.5609 48.9199C46.5207 49.5602 43.4008 49.8801 40.2008 49.8C32.2008 49.8 27.5609 48.2 27.4008 47.4V39C30.2008 40.5199 36.2008 41 40.2008 41C44.2008 41 50.2008 40.5199 53.0008 39V48.2H54.6008V41.5602C55.9609 41.7199 57.2406 41.8 58.6008 41.8C62.6008 41.8 66.7609 41.2398 69.0008 39.9602V48.2H70.6008V29C70.6008 26.2801 64.3609 25 58.6008 25C52.8406 25 46.6008 26.2801 46.6008 29V33.4C44.4406 33.1602 42.3609 33 40.2008 33C34.8406 33 25.8008 33.8801 25.8008 37V69C25.8008 72.1199 34.8406 73 40.2008 73ZM58.6008 26.6C65.4809 26.6 69.0008 28.2801 69.0008 29C69.0008 29.7199 65.4809 31.4 58.6008 31.4C51.7207 31.4 48.2008 29.7199 48.2008 29C48.2008 28.2801 51.7207 26.6 58.6008 26.6ZM48.2008 31.1602C50.4406 32.4398 54.6008 33 58.6008 33C62.6008 33 66.7609 32.4398 69.0008 31.1602V37.8C69.0008 38.5199 65.4809 40.2 58.6008 40.2C57.2406 40.2 55.9609 40.1199 54.6008 39.9602V37C54.6008 35.2398 51.7207 34.2 48.2008 33.5602V31.1602ZM40.2008 34.6C48.2008 34.6 52.8406 36.2 53.0008 37C52.8406 37.8 48.2008 39.4 40.2008 39.4C32.2008 39.4 27.5609 37.8 27.4008 37C27.5609 36.2 32.2008 34.6 40.2008 34.6Z" fill="#0223CF"/>
<path d="M61.4016 69.7195C66.4414 66.8395 69.0016 62.1996 69.0016 56.0395V54.5996H67.4016V55.9598C67.4016 61.5598 65.0816 65.6395 60.6016 68.2797L61.4016 69.7195Z" fill="#0223CF"/>
</g>
<defs>
<clipPath id="clip0_3718_16901">
<rect width="48" height="48" fill="white" transform="translate(25 25)"/>
</clipPath>
</defs>
</svg>
