<svg width="96" height="96" viewBox="0 0 96 96" fill="none" xmlns="http://www.w3.org/2000/svg">
<rect x="0.5" y="0.5" width="95" height="95" rx="7.5" stroke="#0223CF"/>
<path d="M44.765 33.0666C44.6365 33.0672 44.5107 33.0296 44.4035 32.9586C44.2964 32.8875 44.2128 32.7863 44.1633 32.6676C44.1138 32.549 44.1007 32.4183 44.1256 32.2922C44.1505 32.1661 44.2123 32.0502 44.3032 31.9593L47.0801 29.1824L44.3032 26.4049C44.185 26.2826 44.1197 26.1187 44.1211 25.9487C44.1226 25.7786 44.1908 25.6159 44.3111 25.4956C44.4314 25.3754 44.5941 25.3072 44.7641 25.3057C44.9342 25.3042 45.0981 25.3696 45.2204 25.4877L48.4559 28.7239C48.5775 28.8455 48.6458 29.0105 48.6458 29.1824C48.6458 29.3544 48.5775 29.5194 48.4559 29.641L45.2204 32.8765C45.0996 32.9974 44.9359 33.0657 44.765 33.0666Z" fill="#0223CF"/>
<path d="M48.0007 70.7028C45.222 70.7182 42.4677 70.1842 39.896 69.1315C37.3244 68.0789 34.9862 66.5282 33.0159 64.5688C31.0456 62.6094 29.482 60.2798 28.415 57.7141C27.3481 55.1483 26.7988 52.3969 26.7988 49.6182C26.7988 46.8394 27.3481 44.0881 28.415 41.5223C29.482 38.9565 31.0456 36.627 33.0159 34.6676C34.9862 32.7081 37.3244 31.1575 39.896 30.1048C42.4677 29.0521 45.222 28.5181 48.0007 28.5335C48.1728 28.5335 48.3378 28.6019 48.4594 28.7235C48.5811 28.8452 48.6494 29.0101 48.6494 29.1822C48.6494 29.3542 48.5811 29.5192 48.4594 29.6408C48.3378 29.7625 48.1728 29.8308 48.0007 29.8308C43.3031 29.8308 38.7587 31.5024 35.1808 34.5465C31.6029 37.5907 29.2249 41.8086 28.4724 46.4456C27.7199 51.0826 28.642 55.8361 31.0737 59.8554C33.5054 63.8747 37.288 66.8976 41.7446 68.3832C46.2012 69.8687 51.041 69.7199 55.3979 67.9635C59.7548 66.207 63.3446 62.9575 65.5248 58.7964C67.705 54.6353 68.3334 49.8342 67.2976 45.2521C66.2617 40.6701 63.6292 36.6062 59.871 33.7876C59.7334 33.6844 59.6424 33.5307 59.6181 33.3604C59.5937 33.1901 59.6381 33.0171 59.7413 32.8795C59.8445 32.7418 59.9982 32.6509 60.1685 32.6265C60.3388 32.6022 60.5118 32.6465 60.6494 32.7497C64.1892 35.405 66.8039 39.1067 68.1232 43.3304C69.4426 47.5542 69.3997 52.0859 68.0006 56.2839C66.6015 60.4819 63.9172 64.1334 60.3278 66.7212C56.7383 69.309 52.4258 70.702 48.0007 70.7028Z" fill="#0223CF"/>
<path d="M47.9994 63.0183C45.3492 63.0183 42.7585 62.2324 40.5549 60.7601C38.3513 59.2877 36.6338 57.1949 35.6196 54.7464C34.6054 52.2979 34.3401 49.6037 34.8571 47.0044C35.3741 44.4051 36.6503 42.0175 38.5243 40.1435C40.3983 38.2695 42.7859 36.9933 45.3852 36.4762C47.9845 35.9592 50.6788 36.2246 53.1273 37.2388C55.5758 38.253 57.6685 39.9704 59.1409 42.174C60.6133 44.3776 61.3992 46.9683 61.3992 49.6185C61.3951 53.1711 59.982 56.577 57.4699 59.0891C54.9579 61.6011 51.552 63.0142 47.9994 63.0183ZM47.9994 37.5161C45.6058 37.5161 43.2659 38.2259 41.2756 39.5557C39.2854 40.8855 37.7342 42.7757 36.8182 44.9871C35.9022 47.1986 35.6625 49.632 36.1295 51.9796C36.5964 54.3273 37.7491 56.4837 39.4416 58.1763C41.1342 59.8689 43.2907 61.0215 45.6383 61.4885C47.986 61.9555 50.4194 61.7158 52.6308 60.7998C54.8423 59.8838 56.7324 58.3326 58.0623 56.3423C59.3921 54.3521 60.1019 52.0122 60.1019 49.6185C60.0983 46.4099 58.822 43.3336 56.5532 41.0648C54.2843 38.7959 51.2081 37.5197 47.9994 37.5161Z" fill="#0223CF"/>
<path d="M47.9993 50.2663C47.2311 50.2663 46.4802 50.0385 45.8414 49.6117C45.2027 49.1849 44.7049 48.5783 44.4109 47.8685C44.1169 47.1588 44.04 46.3779 44.1899 45.6244C44.3397 44.871 44.7097 44.1789 45.2529 43.6357C45.7961 43.0925 46.4881 42.7226 47.2416 42.5727C47.995 42.4228 48.776 42.4997 49.4857 42.7937C50.1955 43.0877 50.8021 43.5855 51.2289 44.2243C51.6556 44.863 51.8834 45.614 51.8834 46.3822C51.8834 46.5542 51.8151 46.7192 51.6935 46.8408C51.5718 46.9625 51.4068 47.0308 51.2348 47.0308C51.0628 47.0308 50.8978 46.9625 50.7761 46.8408C50.6545 46.7192 50.5861 46.5542 50.5861 46.3822C50.5861 45.8705 50.4344 45.3704 50.1502 44.945C49.866 44.5196 49.4619 44.188 48.9893 43.9923C48.5166 43.7965 47.9965 43.7452 47.4947 43.8451C46.9929 43.9449 46.532 44.1912 46.1702 44.553C45.8084 44.9148 45.562 45.3757 45.4622 45.8775C45.3624 46.3793 45.4137 46.8994 45.6094 47.3721C45.8052 47.8448 46.1368 48.2488 46.5622 48.533C46.9876 48.8173 47.4877 48.969 47.9993 48.969C48.1714 48.969 48.3364 49.0373 48.458 49.159C48.5796 49.2806 48.648 49.4456 48.648 49.6176C48.648 49.7897 48.5796 49.9546 48.458 50.0763C48.3364 50.1979 48.1714 50.2663 47.9993 50.2663Z" fill="#0223CF"/>
<path d="M47.9993 56.7376C46.9698 56.7356 45.9831 56.3257 45.2551 55.5977C44.5272 54.8698 44.1173 53.883 44.1152 52.8535C44.1152 52.6815 44.1836 52.5165 44.3052 52.3948C44.4269 52.2732 44.5919 52.2049 44.7639 52.2049C44.9359 52.2049 45.1009 52.2732 45.2225 52.3948C45.3442 52.5165 45.4125 52.6815 45.4125 52.8535C45.4127 53.3651 45.5645 53.8652 45.8488 54.2905C46.1331 54.7158 46.5372 55.0473 47.0099 55.2429C47.4826 55.4386 48.0027 55.4898 48.5044 55.3899C49.0062 55.29 49.467 55.0436 49.8287 54.6818C50.1904 54.32 50.4367 53.8591 50.5365 53.3573C50.6363 52.8555 50.585 52.3354 50.3892 51.8628C50.1934 51.3901 49.8618 50.9862 49.4364 50.702C49.0111 50.4177 48.5109 50.266 47.9993 50.266C47.8273 50.266 47.6623 50.1977 47.5407 50.0761C47.419 49.9544 47.3507 49.7894 47.3507 49.6174C47.3507 49.4454 47.419 49.2804 47.5407 49.1587C47.6623 49.0371 47.8273 48.9688 47.9993 48.9688C49.0209 48.982 49.9961 49.397 50.7138 50.124C51.4315 50.8511 51.8339 51.8316 51.8339 52.8532C51.8339 53.8748 51.4315 54.8553 50.7138 55.5823C49.9961 56.3094 49.0209 56.7244 47.9993 56.7376Z" fill="#0223CF"/>
<path d="M48.0002 58.1567C47.8282 58.1567 47.6632 58.0884 47.5415 57.9667C47.4199 57.8451 47.3516 57.6801 47.3516 57.5081V41.7278C47.3516 41.5557 47.4199 41.3907 47.5415 41.2691C47.6632 41.1474 47.8282 41.0791 48.0002 41.0791C48.1722 41.0791 48.3372 41.1474 48.4589 41.2691C48.5805 41.3907 48.6489 41.5557 48.6489 41.7278V57.5081C48.6489 57.6801 48.5805 57.8451 48.4589 57.9667C48.3372 58.0884 48.1722 58.1567 48.0002 58.1567Z" fill="#0223CF"/>
</svg>
