<svg width="32" height="32" viewBox="0 0 32 32" fill="none" xmlns="http://www.w3.org/2000/svg">
<g clip-path="url(#clip0_3665_15391)">
<path fill-rule="evenodd" clip-rule="evenodd" d="M20.3737 2.66602C20.8969 2.66622 21.4084 2.8203 21.8446 3.10906C22.2808 3.39782 22.6225 3.80852 22.827 4.29002L22.903 4.49002L27.639 18.7007C27.7344 18.9871 27.7637 19.2913 27.7248 19.5906C27.6858 19.8899 27.5796 20.1766 27.4142 20.429C27.2487 20.6814 27.0282 20.8932 26.7693 21.0483C26.5104 21.2034 26.2197 21.2979 25.919 21.3247L25.7417 21.3327H17.3337V26.666H21.3337C21.6736 26.6664 22.0004 26.7965 22.2475 27.0298C22.4947 27.2631 22.6434 27.582 22.6633 27.9212C22.6832 28.2605 22.5728 28.5945 22.3547 28.8551C22.1366 29.1157 21.8272 29.2832 21.4897 29.3233L21.3337 29.3327H10.667C10.3272 29.3323 10.0003 29.2022 9.75322 28.9689C9.50611 28.7356 9.3574 28.4167 9.33748 28.0775C9.31757 27.7382 9.42795 27.4042 9.64607 27.1436C9.86419 26.883 10.1736 26.7155 10.511 26.6753L10.667 26.666H14.667V21.3327H6.25905C5.95684 21.3329 5.65852 21.2646 5.3865 21.1329C5.11447 21.0012 4.87583 20.8097 4.68848 20.5725C4.50114 20.3354 4.36997 20.0589 4.30483 19.7638C4.23969 19.4687 4.24227 19.1626 4.31238 18.8687L4.36171 18.7007L9.09771 4.49002C9.26306 3.99326 9.57096 3.55617 9.98305 3.23323C10.3951 2.91029 10.8932 2.71581 11.415 2.67402L11.627 2.66602H20.371H20.3737ZM21.3337 21.3327C21.6873 21.3327 22.0265 21.4732 22.2765 21.7232C22.5266 21.9733 22.667 22.3124 22.667 22.666C22.667 23.0196 22.5266 23.3588 22.2765 23.6088C22.0265 23.8589 21.6873 23.9993 21.3337 23.9993C20.9801 23.9993 20.641 23.8589 20.3909 23.6088C20.1409 23.3588 20.0004 23.0196 20.0004 22.666C20.0004 22.3124 20.1409 21.9733 20.3909 21.7232C20.641 21.4732 20.9801 21.3327 21.3337 21.3327ZM20.3737 5.33268H11.627L7.18438 18.666H24.819L20.3737 5.33268Z" fill="#FFD60A"/>
</g>
<defs>
<clipPath id="clip0_3665_15391">
<rect width="32" height="32" fill="white"/>
</clipPath>
</defs>
</svg>
