<svg width="32" height="32" viewBox="0 0 32 32" fill="none" xmlns="http://www.w3.org/2000/svg">
<g clip-path="url(#clip0_3665_15381)">
<path fill-rule="evenodd" clip-rule="evenodd" d="M16.0003 25.3327C16.3539 25.3327 16.693 25.4732 16.9431 25.7232C17.1931 25.9733 17.3336 26.3124 17.3336 26.666V27.9993C17.3336 28.353 17.1931 28.6921 16.9431 28.9422C16.693 29.1922 16.3539 29.3327 16.0003 29.3327C15.6466 29.3327 15.3075 29.1922 15.0575 28.9422C14.8074 28.6921 14.6669 28.353 14.6669 27.9993V26.666C14.6669 26.3124 14.8074 25.9733 15.0575 25.7232C15.3075 25.4732 15.6466 25.3327 16.0003 25.3327ZM22.6003 22.5993C22.8299 22.3698 23.1353 22.2319 23.4594 22.2115C23.7834 22.1911 24.1037 22.2897 24.3603 22.4887L24.4856 22.5993L25.4283 23.542C25.6674 23.782 25.8062 24.1039 25.8166 24.4425C25.8269 24.7811 25.708 25.111 25.4839 25.3651C25.2599 25.6191 24.9475 25.7784 24.6103 25.8105C24.2731 25.8427 23.9363 25.7452 23.6683 25.538L23.5429 25.4273L22.6003 24.4847C22.3503 24.2346 22.2099 23.8956 22.2099 23.542C22.2099 23.1885 22.3503 22.8494 22.6003 22.5993ZM9.40027 22.5993C9.65023 22.8494 9.79065 23.1885 9.79065 23.542C9.79065 23.8956 9.65023 24.2346 9.40027 24.4847L8.4576 25.4273C8.20613 25.6702 7.86933 25.8046 7.51973 25.8016C7.17014 25.7985 6.83572 25.6583 6.58851 25.4111C6.3413 25.1639 6.20107 24.8295 6.19804 24.4799C6.195 24.1303 6.32939 23.7935 6.57227 23.542L7.51494 22.5993C7.76497 22.3494 8.10405 22.209 8.4576 22.209C8.81115 22.209 9.15023 22.3494 9.40027 22.5993ZM16.0003 2.66602C16.3268 2.66606 16.6421 2.78596 16.8861 3.00297C17.1301 3.21998 17.2861 3.51901 17.3243 3.84335L17.3336 3.99935V5.46602L28.2336 16.3673C29.0456 17.178 28.5309 18.5407 27.4336 18.658L27.2816 18.666H22.5336C22.2301 20.1467 21.4327 21.4804 20.272 22.4485C19.1113 23.4167 17.6561 23.9618 16.145 23.9947C14.6339 24.0275 13.1565 23.5461 11.9548 22.6293C10.7531 21.7126 9.89847 20.4148 9.53093 18.9487L9.46694 18.666H4.72027C3.57227 18.666 2.9736 17.3393 3.6656 16.4807L3.76827 16.3673L14.6669 5.46602V3.99935C14.6669 3.64573 14.8074 3.30659 15.0575 3.05654C15.3075 2.80649 15.6466 2.66602 16.0003 2.66602ZM19.7736 18.666H12.2269C12.4957 19.4264 12.988 20.0878 13.6393 20.5635C14.2905 21.0392 15.0704 21.307 15.8765 21.3318C16.6826 21.3566 17.4774 21.1372 18.1566 20.7025C18.8359 20.2677 19.3679 19.6378 19.6829 18.8953L19.7736 18.666Z" fill="#FCFCFC"/>
</g>
<defs>
<clipPath id="clip0_3665_15381">
<rect width="32" height="32" fill="white"/>
</clipPath>
</defs>
</svg>
