<svg width="60" height="60" viewBox="0 0 60 60" fill="none" xmlns="http://www.w3.org/2000/svg">
<path d="M56.6552 39.142V20.858C57.3075 20.7094 57.9137 20.4291 58.4278 20.0382C58.9418 19.6473 59.3503 19.1561 59.6222 18.602C59.894 18.0478 60.0222 17.4451 59.9969 16.8397C59.9716 16.2343 59.7935 15.642 59.4761 15.1078C59.1587 14.5736 58.7104 14.1115 58.1651 13.7565C57.6199 13.4015 56.992 13.163 56.3291 13.059C55.6662 12.955 54.9857 12.9883 54.3393 13.1564C53.6928 13.3245 53.0973 13.6229 52.598 14.029L34.3837 4.565C34.4185 4.3782 34.4382 4.18937 34.4425 4C34.4425 2.93913 33.9745 1.92172 33.1413 1.17157C32.3082 0.421427 31.1782 0 30 0C28.8218 0 27.6918 0.421427 26.8587 1.17157C26.0255 1.92172 25.5575 2.93913 25.5575 4C25.5633 4.18947 25.5845 4.3783 25.6208 4.565L7.40641 14.029C6.90704 13.6249 6.31218 13.3283 5.66679 13.1617C5.02141 12.995 4.34239 12.9627 3.68107 13.0671C3.01975 13.1714 2.39344 13.4098 1.84949 13.7642C1.30553 14.1185 0.858163 14.5796 0.541207 15.1125C0.224251 15.6454 0.0459999 16.2362 0.0199296 16.8403C-0.00614073 17.4444 0.120652 18.0459 0.390722 18.5993C0.660792 19.1528 1.06707 19.6437 1.57885 20.035C2.09062 20.4263 2.6945 20.7077 3.34483 20.858V39.142C2.6925 39.2906 2.08632 39.5709 1.57224 39.9618C1.05816 40.3527 0.649701 40.8439 0.377831 41.398C0.105961 41.9522 -0.0221763 42.5549 0.00313731 43.1603C0.0284509 43.7657 0.206551 44.358 0.523929 44.8922C0.841308 45.4264 1.28963 45.8885 1.83489 46.2435C2.38015 46.5985 3.00804 46.837 3.67092 46.941C4.33381 47.045 5.01428 47.0117 5.66074 46.8436C6.3072 46.6755 6.90266 46.3771 7.40197 45.971L25.6163 55.435C25.5815 55.6218 25.5618 55.8106 25.5575 56C25.5575 57.0609 26.0255 58.0783 26.8587 58.8284C27.6918 59.5786 28.8218 60 30 60C31.1782 60 32.3082 59.5786 33.1413 58.8284C33.9745 58.0783 34.4425 57.0609 34.4425 56C34.4367 55.8105 34.4156 55.6217 34.3792 55.435L52.5936 45.971C53.093 46.3751 53.6878 46.6717 54.3332 46.8383C54.9786 47.005 55.6576 47.0373 56.3189 46.9329C56.9803 46.8286 57.6066 46.5902 58.1505 46.2358C58.6945 45.8815 59.1418 45.4204 59.4588 44.8875C59.7758 44.3546 59.954 43.7638 59.9801 43.1597C60.0061 42.5556 59.8794 41.9541 59.6093 41.4007C59.3392 40.8472 58.9329 40.3563 58.4212 39.965C57.9094 39.5737 57.3055 39.2923 56.6552 39.142ZM40.4588 42L43.1754 37.853L51.2708 41.969L51.2597 42H40.4588ZM8.74028 42L8.72917 41.969L16.8246 37.853L19.5412 42H8.74028ZM19.5412 18L16.8246 22.147L8.72917 18.031L8.74028 18H19.5412ZM51.2597 18L51.2708 18.031L43.1754 22.147L40.4588 18H51.2597ZM54.3284 39.172L48.3254 30L54.334 20.828C54.3695 20.838 54.4039 20.85 54.4395 20.858V39.142C54.3984 39.15 54.3639 39.162 54.3284 39.172ZM52.357 40.225L44.3038 36.13L47.0304 31.968L52.4048 40.168C52.387 40.188 52.3748 40.208 52.357 40.225ZM34.2737 28.969L42.3691 24.853L45.741 30L42.3691 35.147L34.2737 31.031C34.4988 30.3586 34.4988 29.6414 34.2737 28.969ZM52.4048 19.828L47.0304 28.028L44.3038 23.87L52.357 19.77C52.3748 19.792 52.387 19.812 52.4048 19.828ZM41.2407 23.128L33.1875 27.228C32.6196 26.7006 31.9008 26.3248 31.1106 26.142V18H37.8855L41.2407 23.128ZM30 32C29.5607 32 29.1312 31.8827 28.7659 31.6629C28.4007 31.4432 28.1159 31.1308 27.9478 30.7654C27.7797 30.3999 27.7357 29.9978 27.8214 29.6098C27.9071 29.2219 28.1187 28.8655 28.4293 28.5858C28.74 28.3061 29.1358 28.1156 29.5667 28.0384C29.9975 27.9613 30.4442 28.0009 30.85 28.1522C31.2559 28.3036 31.6028 28.56 31.8469 28.8889C32.091 29.2178 32.2213 29.6044 32.2213 30C32.2213 30.5304 31.9872 31.0391 31.5707 31.4142C31.1541 31.7893 30.5891 32 30 32ZM31.1106 16V7.858C31.1462 7.85 31.1806 7.838 31.2161 7.828L36.5694 16H31.1106ZM28.8894 7.858V16H23.4306L28.7839 7.828C28.8194 7.838 28.8538 7.85 28.8894 7.858ZM28.8894 18V26.142C28.0995 26.3239 27.3808 26.6987 26.8125 27.225L18.7593 23.125L22.1201 18H28.8894ZM7.59522 40.172L12.9696 31.972L15.6962 36.134L7.64298 40.225C7.62521 40.208 7.61299 40.188 7.59522 40.172ZM14.259 30L17.6309 24.853L25.7263 28.969C25.5012 29.6414 25.5012 30.3586 25.7263 31.031L17.6309 35.147L14.259 30ZM7.64298 19.775L15.6962 23.875L12.9696 28.037L7.59522 19.837C7.61299 19.812 7.62521 19.792 7.64298 19.775ZM5.67716 20.828L11.6801 30L5.67716 39.172C5.64162 39.162 5.60719 39.15 5.56609 39.142V20.858C5.60163 20.85 5.63607 20.838 5.67716 20.828ZM18.7593 36.87L26.8125 32.775C27.3808 33.3013 28.0995 33.6761 28.8894 33.858V42H22.1201L18.7593 36.87ZM28.8894 44V52.142C28.8538 52.15 28.8194 52.162 28.7839 52.172L23.4306 44H28.8894ZM31.1106 52.142V44H36.5694L31.2217 52.172C31.1806 52.162 31.1462 52.15 31.1106 52.142ZM31.1106 42V33.858C31.9005 33.6761 32.6192 33.3013 33.1875 32.775L41.2407 36.87L37.8855 42H31.1106ZM55.5445 15C55.9839 15 56.4133 15.1173 56.7786 15.3371C57.1439 15.5568 57.4286 15.8692 57.5967 16.2346C57.7648 16.6001 57.8088 17.0022 57.7231 17.3902C57.6374 17.7781 57.4259 18.1345 57.1152 18.4142C56.8046 18.6939 56.4088 18.8844 55.9779 18.9616C55.547 19.0387 55.1004 18.9991 54.6945 18.8478C54.2886 18.6964 53.9417 18.44 53.6976 18.1111C53.4536 17.7822 53.3233 17.3956 53.3233 17C53.3233 16.4696 53.5573 15.9609 53.9739 15.5858C54.3904 15.2107 54.9554 15 55.5445 15ZM51.3641 15.7C51.3253 15.8 51.2897 15.9 51.2597 16H39.1538L33.1386 6.828C33.272 6.70197 33.3963 6.56836 33.5107 6.428L51.3641 15.7ZM30 2C30.4393 2 30.8688 2.1173 31.2341 2.33706C31.5994 2.55682 31.8841 2.86918 32.0522 3.23463C32.2203 3.60009 32.2643 4.00222 32.1786 4.39018C32.0929 4.77814 31.8813 5.13451 31.5707 5.41421C31.26 5.69392 30.8642 5.8844 30.4334 5.96157C30.0025 6.03874 29.5558 5.99913 29.15 5.84776C28.7441 5.69638 28.3972 5.44004 28.1531 5.11114C27.909 4.78224 27.7787 4.39556 27.7787 4C27.7787 3.46957 28.0128 2.96086 28.4293 2.58579C28.8459 2.21071 29.4109 2 30 2ZM26.8614 6.828L20.8517 16H8.74583C8.71585 15.9 8.68031 15.8 8.64143 15.7L26.4893 6.423C26.6035 6.56508 26.7278 6.70036 26.8614 6.828ZM2.2342 17C2.2342 16.6044 2.36447 16.2178 2.60855 15.8889C2.85262 15.56 3.19954 15.3036 3.60542 15.1522C4.0113 15.0009 4.45793 14.9613 4.88881 15.0384C5.31969 15.1156 5.71548 15.3061 6.02613 15.5858C6.33678 15.8655 6.54834 16.2219 6.63405 16.6098C6.71975 16.9978 6.67577 17.3999 6.50764 17.7654C6.33952 18.1308 6.05482 18.4432 5.68953 18.6629C5.32425 18.8827 4.89479 19 4.45546 19C3.86635 19 3.30136 18.7893 2.88479 18.4142C2.46822 18.0391 2.2342 17.5304 2.2342 17ZM4.45546 45C4.01614 45 3.58668 44.8827 3.22139 44.6629C2.85611 44.4432 2.5714 44.1308 2.40328 43.7654C2.23516 43.3999 2.19117 42.9978 2.27688 42.6098C2.36259 42.2219 2.57414 41.8655 2.88479 41.5858C3.19544 41.3061 3.59123 41.1156 4.02212 41.0384C4.453 40.9613 4.89962 41.0009 5.3055 41.1522C5.71139 41.3036 6.0583 41.56 6.30238 41.8889C6.54645 42.2178 6.67673 42.6044 6.67673 43C6.67673 43.5304 6.4427 44.0391 6.02613 44.4142C5.60957 44.7893 5.04458 45 4.45546 45ZM8.63588 44.3C8.67475 44.2 8.71029 44.1 8.74028 44H20.8517L26.8614 53.172C26.7278 53.2996 26.6035 53.4349 26.4893 53.577L8.63588 44.3ZM30 58C29.5607 58 29.1312 57.8827 28.7659 57.6629C28.4007 57.4432 28.1159 57.1308 27.9478 56.7654C27.7797 56.3999 27.7357 55.9978 27.8214 55.6098C27.9071 55.2219 28.1187 54.8655 28.4293 54.5858C28.74 54.3061 29.1358 54.1156 29.5667 54.0384C29.9975 53.9613 30.4442 54.0009 30.85 54.1522C31.2559 54.3036 31.6028 54.56 31.8469 54.8889C32.091 55.2178 32.2213 55.6044 32.2213 56C32.2213 56.5304 31.9872 57.0391 31.5707 57.4142C31.1541 57.7893 30.5891 58 30 58ZM33.1386 53.172L39.1483 44H51.2597C51.2897 44.1 51.3253 44.2 51.3641 44.3L33.5107 53.577C33.3965 53.4349 33.2722 53.2996 33.1386 53.172ZM55.5445 45C55.1052 45 54.6758 44.8827 54.3105 44.6629C53.9452 44.4432 53.6605 44.1308 53.4924 43.7654C53.3242 43.3999 53.2803 42.9978 53.366 42.6098C53.4517 42.2219 53.6632 41.8655 53.9739 41.5858C54.2845 41.3061 54.6803 41.1156 55.1112 41.0384C55.5421 40.9613 55.9887 41.0009 56.3946 41.1522C56.8005 41.3036 57.1474 41.56 57.3915 41.8889C57.6355 42.2178 57.7658 42.6044 57.7658 43C57.7658 43.5304 57.5318 44.0391 57.1152 44.4142C56.6987 44.7893 56.1337 45 55.5445 45Z" fill="#1567E0"/>
</svg>
