<svg width="214" height="148" viewBox="0 0 214 148" fill="none" xmlns="http://www.w3.org/2000/svg">
<rect y="0.71875" width="213.534" height="147.174" rx="6.57028" fill="#177097"/>
<path d="M26.3701 13.8165V22.9492H24.872V16.6943L22.0862 22.9492H21.0481L18.2492 16.6943V22.9492H16.7512V13.8165H18.3675L21.5738 20.9781L24.7669 13.8165H26.3701ZM27.8396 19.2961C27.8396 18.569 27.9886 17.9251 28.2864 17.3645C28.593 16.8038 29.0048 16.3702 29.5216 16.0636C30.0473 15.7482 30.6254 15.5905 31.2562 15.5905C31.8256 15.5905 32.3206 15.7044 32.7411 15.9322C33.1703 16.1512 33.512 16.4271 33.766 16.76V15.7088H35.2772V22.9492H33.766V21.8717C33.512 22.2133 33.1659 22.4981 32.7279 22.7258C32.2899 22.9536 31.7906 23.0675 31.2299 23.0675C30.6079 23.0675 30.0385 22.9098 29.5216 22.5944C29.0048 22.2703 28.593 21.8235 28.2864 21.2541C27.9886 20.6759 27.8396 20.0233 27.8396 19.2961ZM33.766 19.3224C33.766 18.8231 33.6609 18.3894 33.4507 18.0215C33.2492 17.6536 32.982 17.3732 32.6491 17.1805C32.3162 16.9878 31.957 16.8914 31.5716 16.8914C31.1861 16.8914 30.8269 16.9878 30.494 17.1805C30.1611 17.3645 29.8896 17.6404 29.6793 18.0084C29.4778 18.3675 29.3771 18.7968 29.3771 19.2961C29.3771 19.7955 29.4778 20.2335 29.6793 20.6102C29.8896 20.9869 30.1611 21.276 30.494 21.4775C30.8357 21.6702 31.1949 21.7666 31.5716 21.7666C31.957 21.7666 32.3162 21.6702 32.6491 21.4775C32.982 21.2847 33.2492 21.0044 33.4507 20.6365C33.6609 20.2598 33.766 19.8218 33.766 19.3224ZM38.7428 16.76C38.9618 16.3921 39.2509 16.1074 39.6101 15.9059C39.978 15.6956 40.4117 15.5905 40.911 15.5905V17.1411H40.5299C39.943 17.1411 39.4962 17.29 39.1896 17.5879C38.8917 17.8857 38.7428 18.4026 38.7428 19.1385V22.9492H37.2448V15.7088H38.7428V16.76ZM45.1526 19.3356L48.4903 22.9492H46.4667L43.786 19.8349V22.9492H42.288V13.2252H43.786V18.8756L46.4141 15.7088H48.4903L45.1526 19.3356ZM56.2001 19.1516C56.2001 19.4232 56.1825 19.6685 56.1475 19.8875H50.6153C50.6591 20.4657 50.8737 20.93 51.2592 21.2804C51.6447 21.6308 52.1177 21.806 52.6784 21.806C53.4843 21.806 54.0538 21.4687 54.3867 20.7942H56.0029C55.7839 21.46 55.3853 22.0075 54.8072 22.4367C54.2377 22.8572 53.5281 23.0675 52.6784 23.0675C51.9863 23.0675 51.3643 22.9142 50.8124 22.6076C50.2693 22.2922 49.84 21.8542 49.5246 21.2935C49.218 20.7241 49.0647 20.0671 49.0647 19.3224C49.0647 18.5778 49.2137 17.9251 49.5115 17.3645C49.8181 16.7951 50.243 16.357 50.7861 16.0504C51.338 15.7438 51.9688 15.5905 52.6784 15.5905C53.3617 15.5905 53.9705 15.7394 54.5049 16.0373C55.0393 16.3351 55.4554 16.7556 55.7533 17.2988C56.0511 17.8332 56.2001 18.4508 56.2001 19.1516ZM54.6363 18.6785C54.6276 18.1266 54.4305 17.6842 54.045 17.3513C53.6595 17.0184 53.1821 16.852 52.6127 16.852C52.0958 16.852 51.6534 17.0184 51.2855 17.3513C50.9175 17.6755 50.6985 18.1179 50.6285 18.6785H54.6363ZM59.4219 16.9308V20.9387C59.4219 21.2103 59.4833 21.4074 59.6059 21.53C59.7373 21.6439 59.9563 21.7009 60.2629 21.7009H61.1828V22.9492H60.0001C59.3256 22.9492 58.8087 22.7915 58.4495 22.4762C58.0904 22.1608 57.9108 21.6483 57.9108 20.9387V16.9308H57.0566V15.7088H57.9108V13.9085H59.4219V15.7088H61.1828V16.9308H59.4219ZM72.1893 21.6089L74.2393 15.7088H75.8293L73.0698 22.9492H71.2826L68.5363 15.7088H70.1394L72.1893 21.6089ZM76.4623 19.2961C76.4623 18.569 76.6112 17.9251 76.9091 17.3645C77.2157 16.8038 77.6274 16.3702 78.1443 16.0636C78.6699 15.7482 79.2481 15.5905 79.8788 15.5905C80.4482 15.5905 80.9432 15.7044 81.3637 15.9322C81.793 16.1512 82.1346 16.4271 82.3887 16.76V15.7088H83.8998V22.9492H82.3887V21.8717C82.1346 22.2133 81.7886 22.4981 81.3506 22.7258C80.9125 22.9536 80.4132 23.0675 79.8525 23.0675C79.2306 23.0675 78.6611 22.9098 78.1443 22.5944C77.6274 22.2703 77.2157 21.8235 76.9091 21.2541C76.6112 20.6759 76.4623 20.0233 76.4623 19.2961ZM82.3887 19.3224C82.3887 18.8231 82.2835 18.3894 82.0733 18.0215C81.8718 17.6536 81.6046 17.3732 81.2717 17.1805C80.9388 16.9878 80.5797 16.8914 80.1942 16.8914C79.8087 16.8914 79.4496 16.9878 79.1167 17.1805C78.7838 17.3645 78.5122 17.6404 78.302 18.0084C78.1005 18.3675 77.9997 18.7968 77.9997 19.2961C77.9997 19.7955 78.1005 20.2335 78.302 20.6102C78.5122 20.9869 78.7838 21.276 79.1167 21.4775C79.4583 21.6702 79.8175 21.7666 80.1942 21.7666C80.5797 21.7666 80.9388 21.6702 81.2717 21.4775C81.6046 21.2847 81.8718 21.0044 82.0733 20.6365C82.2835 20.2598 82.3887 19.8218 82.3887 19.3224ZM87.3654 13.2252V22.9492H85.8674V13.2252H87.3654ZM95.8894 15.7088V22.9492H94.3913V22.0951C94.1548 22.3929 93.8438 22.6295 93.4584 22.8047C93.0817 22.9711 92.6787 23.0543 92.2494 23.0543C91.68 23.0543 91.1675 22.9361 90.712 22.6995C90.2652 22.463 89.9104 22.1126 89.6476 21.6483C89.3935 21.184 89.2665 20.6233 89.2665 19.9663V15.7088H90.7514V19.7429C90.7514 20.3912 90.9135 20.8905 91.2376 21.2409C91.5617 21.5826 92.0041 21.7534 92.5648 21.7534C93.1255 21.7534 93.5679 21.5826 93.892 21.2409C94.2249 20.8905 94.3913 20.3912 94.3913 19.7429V15.7088H95.8894ZM104.502 19.1516C104.502 19.4232 104.484 19.6685 104.449 19.8875H98.9171C98.9609 20.4657 99.1756 20.93 99.561 21.2804C99.9465 21.6308 100.42 21.806 100.98 21.806C101.786 21.806 102.356 21.4687 102.688 20.7942H104.305C104.086 21.46 103.687 22.0075 103.109 22.4367C102.54 22.8572 101.83 23.0675 100.98 23.0675C100.288 23.0675 99.6661 22.9142 99.1142 22.6076C98.5711 22.2922 98.1418 21.8542 97.8265 21.2935C97.5199 20.7241 97.3665 20.0671 97.3665 19.3224C97.3665 18.5778 97.5155 17.9251 97.8133 17.3645C98.1199 16.7951 98.5448 16.357 99.088 16.0504C99.6399 15.7438 100.271 15.5905 100.98 15.5905C101.664 15.5905 102.272 15.7394 102.807 16.0373C103.341 16.3351 103.757 16.7556 104.055 17.2988C104.353 17.8332 104.502 18.4508 104.502 19.1516ZM102.938 18.6785C102.929 18.1266 102.732 17.6842 102.347 17.3513C101.961 17.0184 101.484 16.852 100.915 16.852C100.398 16.852 99.9552 17.0184 99.5873 17.3513C99.2194 17.6755 99.0004 18.1179 98.9303 18.6785H102.938Z" fill="#ABAEB7"/>
<path d="M22.7787 34.9604C22.7787 35.3941 22.6644 35.7962 22.4358 36.1667C22.215 36.5294 21.8839 36.829 21.4423 37.0656C21.0087 37.2942 20.4923 37.4204 19.8931 37.444V38.402H19.1362V37.4322C18.3004 37.3612 17.6263 37.1129 17.1138 36.6871C16.6014 36.2535 16.3294 35.6661 16.2978 34.925H18.4502C18.4975 35.398 18.7262 35.7016 19.1362 35.8356V33.967C18.5212 33.8093 18.0284 33.6556 17.6579 33.5058C17.2952 33.356 16.9759 33.1155 16.6999 32.7844C16.424 32.4532 16.286 31.9999 16.286 31.4243C16.286 30.7068 16.5501 30.1313 17.0784 29.6976C17.6145 29.264 18.3004 29.0196 19.1362 28.9644V28.0065H19.8931V28.9644C20.7209 29.0275 21.3753 29.2679 21.8563 29.6858C22.3372 30.1037 22.6053 30.6832 22.6605 31.4243H20.4962C20.4489 30.9986 20.2479 30.7226 19.8931 30.5965V32.4296C20.5475 32.6109 21.0521 32.7725 21.4069 32.9145C21.7617 33.0564 22.077 33.2929 22.353 33.624C22.6368 33.9473 22.7787 34.3928 22.7787 34.9604ZM18.4266 31.3297C18.4266 31.5268 18.4857 31.6924 18.604 31.8264C18.7301 31.9605 18.9075 32.0787 19.1362 32.1812V30.5373C18.9154 30.5767 18.742 30.6635 18.6158 30.7975C18.4897 30.9237 18.4266 31.1011 18.4266 31.3297ZM19.8931 35.8711C20.1296 35.8317 20.3149 35.737 20.4489 35.5872C20.5908 35.4374 20.6618 35.2522 20.6618 35.0314C20.6618 34.8264 20.5948 34.6608 20.4607 34.5347C20.3346 34.4007 20.1454 34.2863 19.8931 34.1917V35.8711ZM25.5012 32.7371C24.7601 32.3428 24.3895 31.7239 24.3895 30.8803C24.3895 30.4545 24.4999 30.0682 24.7207 29.7213C24.9415 29.3665 25.2765 29.0866 25.7259 28.8816C26.1754 28.6687 26.7273 28.5623 27.3817 28.5623C28.0361 28.5623 28.584 28.6687 29.0255 28.8816C29.4749 29.0866 29.81 29.3665 30.0308 29.7213C30.2516 30.0682 30.3619 30.4545 30.3619 30.8803C30.3619 31.3061 30.2594 31.6766 30.0544 31.992C29.8573 32.3074 29.5893 32.5557 29.2502 32.7371C29.676 32.942 30.0032 33.2259 30.2318 33.5886C30.4605 33.9434 30.5748 34.3612 30.5748 34.8422C30.5748 35.402 30.4329 35.8868 30.1491 36.2968C29.8652 36.6989 29.4789 37.0064 28.9901 37.2193C28.5091 37.4322 27.973 37.5386 27.3817 37.5386C26.7903 37.5386 26.2503 37.4322 25.7614 37.2193C25.2805 37.0064 24.8981 36.6989 24.6143 36.2968C24.3304 35.8868 24.1885 35.402 24.1885 34.8422C24.1885 34.3533 24.3028 33.9315 24.5315 33.5767C24.7601 33.2141 25.0834 32.9342 25.5012 32.7371ZM28.3987 31.1878C28.3987 30.8645 28.3041 30.6162 28.1149 30.4427C27.9336 30.2614 27.6891 30.1707 27.3817 30.1707C27.0742 30.1707 26.8258 30.2614 26.6366 30.4427C26.4552 30.6241 26.3646 30.8764 26.3646 31.1996C26.3646 31.5071 26.4592 31.7515 26.6484 31.9329C26.8376 32.1063 27.082 32.193 27.3817 32.193C27.6813 32.193 27.9257 32.1024 28.1149 31.921C28.3041 31.7397 28.3987 31.4953 28.3987 31.1878ZM27.3817 33.6122C27.0111 33.6122 26.7115 33.7147 26.4828 33.9197C26.2542 34.1168 26.1399 34.3928 26.1399 34.7476C26.1399 35.0787 26.2503 35.3507 26.471 35.5636C26.6997 35.7765 27.0032 35.8829 27.3817 35.8829C27.7601 35.8829 28.0558 35.7765 28.2686 35.5636C28.4894 35.3507 28.5998 35.0787 28.5998 34.7476C28.5998 34.4007 28.4855 34.1247 28.2568 33.9197C28.0361 33.7147 27.7443 33.6122 27.3817 33.6122ZM33.9269 34.8422C34.0451 35.465 34.4078 35.7765 35.0149 35.7765C35.4328 35.7765 35.7285 35.5912 35.9019 35.2206C36.0754 34.8501 36.1621 34.2469 36.1621 33.4112C35.9886 33.6556 35.7521 33.8448 35.4525 33.9788C35.1529 34.1129 34.8178 34.1799 34.4473 34.1799C33.9427 34.1799 33.4932 34.0774 33.099 33.8724C32.7048 33.6595 32.3934 33.3481 32.1647 32.9381C31.944 32.5202 31.8336 32.0156 31.8336 31.4243C31.8336 30.8409 31.9519 30.3323 32.1884 29.8987C32.4328 29.4651 32.7758 29.13 33.2173 28.8934C33.6667 28.6569 34.195 28.5386 34.802 28.5386C35.9689 28.5386 36.785 28.9013 37.2501 29.6267C37.7153 30.352 37.9479 31.4204 37.9479 32.8317C37.9479 33.8566 37.8533 34.7042 37.6641 35.3744C37.4827 36.0367 37.1713 36.5412 36.7298 36.8882C36.2961 37.2351 35.7009 37.4085 34.944 37.4085C34.3448 37.4085 33.8323 37.2903 33.4065 37.0537C32.9886 36.8172 32.6654 36.5058 32.4367 36.1194C32.216 35.7331 32.0898 35.3074 32.0583 34.8422H33.9269ZM34.9085 32.5833C35.2396 32.5833 35.5038 32.4848 35.7009 32.2877C35.898 32.0827 35.9965 31.8067 35.9965 31.4598C35.9965 31.0813 35.894 30.7896 35.689 30.5846C35.484 30.3796 35.2081 30.2771 34.8612 30.2771C34.5143 30.2771 34.2383 30.3836 34.0333 30.5965C33.8362 30.8015 33.7377 31.0853 33.7377 31.448C33.7377 31.787 33.8362 32.0629 34.0333 32.2758C34.2383 32.4808 34.53 32.5833 34.9085 32.5833ZM39.0269 32.9381C39.0269 31.582 39.2871 30.5137 39.8074 29.7331C40.3357 28.9526 41.1832 28.5623 42.3501 28.5623C43.517 28.5623 44.3606 28.9526 44.881 29.7331C45.4092 30.5137 45.6734 31.582 45.6734 32.9381C45.6734 34.31 45.4092 35.3862 44.881 36.1667C44.3606 36.9473 43.517 37.3376 42.3501 37.3376C41.1832 37.3376 40.3357 36.9473 39.8074 36.1667C39.2871 35.3862 39.0269 34.31 39.0269 32.9381ZM43.6865 32.9381C43.6865 32.1418 43.5998 31.5308 43.4263 31.105C43.2529 30.6714 42.8941 30.4545 42.3501 30.4545C41.8061 30.4545 41.4474 30.6714 41.2739 31.105C41.1005 31.5308 41.0137 32.1418 41.0137 32.9381C41.0137 33.4742 41.0453 33.9197 41.1083 34.2745C41.1714 34.6214 41.2976 34.9052 41.4868 35.126C41.6839 35.3389 41.9717 35.4453 42.3501 35.4453C42.7286 35.4453 43.0124 35.3389 43.2016 35.126C43.3987 34.9052 43.5288 34.6214 43.5919 34.2745C43.655 33.9197 43.6865 33.4742 43.6865 32.9381ZM46.7418 32.9381C46.7418 31.582 47.002 30.5137 47.5224 29.7331C48.0506 28.9526 48.8982 28.5623 50.0651 28.5623C51.232 28.5623 52.0756 28.9526 52.5959 29.7331C53.1242 30.5137 53.3883 31.582 53.3883 32.9381C53.3883 34.31 53.1242 35.3862 52.5959 36.1667C52.0756 36.9473 51.232 37.3376 50.0651 37.3376C48.8982 37.3376 48.0506 36.9473 47.5224 36.1667C47.002 35.3862 46.7418 34.31 46.7418 32.9381ZM51.4015 32.9381C51.4015 32.1418 51.3147 31.5308 51.1413 31.105C50.9678 30.6714 50.6091 30.4545 50.0651 30.4545C49.5211 30.4545 49.1623 30.6714 48.9889 31.105C48.8154 31.5308 48.7287 32.1418 48.7287 32.9381C48.7287 33.4742 48.7602 33.9197 48.8233 34.2745C48.8864 34.6214 49.0125 34.9052 49.2017 35.126C49.3988 35.3389 49.6866 35.4453 50.0651 35.4453C50.4435 35.4453 50.7274 35.3389 50.9166 35.126C51.1137 34.9052 51.2438 34.6214 51.3069 34.2745C51.3699 33.9197 51.4015 33.4742 51.4015 32.9381ZM55.6039 37.4677C55.2491 37.4677 54.9574 37.3652 54.7288 37.1602C54.508 36.9473 54.3976 36.6871 54.3976 36.3796C54.3976 36.0642 54.508 35.8001 54.7288 35.5872C54.9574 35.3744 55.2491 35.2679 55.6039 35.2679C55.9509 35.2679 56.2347 35.3744 56.4555 35.5872C56.6841 35.8001 56.7984 36.0642 56.7984 36.3796C56.7984 36.6871 56.6841 36.9473 56.4555 37.1602C56.2347 37.3652 55.9509 37.4677 55.6039 37.4677ZM63.3057 30.2535L60.3372 37.373H58.2676L61.2715 30.4782H57.5935V28.7515H63.3057V30.2535ZM64.1236 32.9381C64.1236 31.582 64.3837 30.5137 64.9041 29.7331C65.4324 28.9526 66.2799 28.5623 67.4468 28.5623C68.6137 28.5623 69.4573 28.9526 69.9777 29.7331C70.5059 30.5137 70.77 31.582 70.77 32.9381C70.77 34.31 70.5059 35.3862 69.9777 36.1667C69.4573 36.9473 68.6137 37.3376 67.4468 37.3376C66.2799 37.3376 65.4324 36.9473 64.9041 36.1667C64.3837 35.3862 64.1236 34.31 64.1236 32.9381ZM68.7832 32.9381C68.7832 32.1418 68.6965 31.5308 68.523 31.105C68.3496 30.6714 67.9908 30.4545 67.4468 30.4545C66.9028 30.4545 66.544 30.6714 66.3706 31.105C66.1971 31.5308 66.1104 32.1418 66.1104 32.9381C66.1104 33.4742 66.1419 33.9197 66.205 34.2745C66.2681 34.6214 66.3942 34.9052 66.5835 35.126C66.7806 35.3389 67.0684 35.4453 67.4468 35.4453C67.8252 35.4453 68.1091 35.3389 68.2983 35.126C68.4954 34.9052 68.6255 34.6214 68.6886 34.2745C68.7517 33.9197 68.7832 33.4742 68.7832 32.9381Z" fill="white"/>
<path d="M187.919 17.6977L184.378 20.4572C183.786 20.9171 183.307 21.8961 183.307 22.6385V27.5071C183.307 29.0314 184.548 30.2798 186.073 30.2798H193.681C195.205 30.2798 196.447 29.0314 196.447 27.5137V22.7305C196.447 21.9355 195.915 20.9171 195.265 20.4638L191.204 17.6188C190.284 16.975 188.806 17.0078 187.919 17.6977Z" stroke="#ABAEB7" stroke-width="0.985542" stroke-linecap="round" stroke-linejoin="round"/>
<path d="M192.833 23.3877L190.074 26.1472L189.022 24.5703L186.92 26.6728" stroke="#ABAEB7" stroke-width="0.985542" stroke-linecap="round" stroke-linejoin="round"/>
<path d="M191.52 23.3877H192.834V24.7018" stroke="#ABAEB7" stroke-width="0.985542" stroke-linecap="round" stroke-linejoin="round"/>
<rect x="15.7734" y="52.625" width="10.5124" height="84.7566" rx="5.25622" fill="#EFF2FB"/>
<rect x="15.7734" y="94.2461" width="10.5124" height="43.1351" rx="5.25622" fill="url(#paint0_linear_3671_15669)"/>
<rect x="37.4531" y="52.625" width="10.5124" height="84.7566" rx="5.25622" fill="#EFF2FB"/>
<rect x="37.4531" y="88.1934" width="10.5124" height="49.1891" rx="5.25622" fill="url(#paint1_linear_3671_15669)"/>
<rect x="58.4844" y="52.625" width="10.5124" height="84.7566" rx="5.25622" fill="#EFF2FB"/>
<rect x="58.4844" y="71.543" width="10.5124" height="65.8377" rx="5.25622" fill="url(#paint2_linear_3671_15669)"/>
<rect x="80.1641" y="52.625" width="10.5124" height="84.7566" rx="5.25622" fill="#EFF2FB"/>
<rect x="80.1641" y="88.1934" width="10.5124" height="49.1891" rx="5.25622" fill="url(#paint3_linear_3671_15669)"/>
<rect x="101.188" y="52.625" width="11.1695" height="84.7566" rx="5.58474" fill="#EFF2FB"/>
<rect x="101.188" y="94.2461" width="11.1695" height="43.1351" rx="5.58474" fill="url(#paint4_linear_3671_15669)"/>
<rect x="122.867" y="52.625" width="10.5124" height="84.7566" rx="5.25622" fill="#EFF2FB"/>
<rect x="122.867" y="71.543" width="10.5124" height="65.8377" rx="5.25622" fill="url(#paint5_linear_3671_15669)"/>
<rect x="144.555" y="52.625" width="10.5124" height="84.7566" rx="5.25622" fill="#EFF2FB"/>
<rect x="144.555" y="82.1387" width="10.5124" height="55.2431" rx="5.25622" fill="url(#paint6_linear_3671_15669)"/>
<rect x="165.578" y="52.625" width="10.5124" height="84.7566" rx="5.25622" fill="#EFF2FB"/>
<rect x="165.578" y="78.3535" width="10.5124" height="59.0269" rx="5.25622" fill="url(#paint7_linear_3671_15669)"/>
<rect x="187.258" y="52.625" width="10.5124" height="84.7566" rx="5.25622" fill="#EFF2FB"/>
<rect x="187.258" y="66.2461" width="10.5124" height="71.135" rx="5.25622" fill="url(#paint8_linear_3671_15669)"/>
<defs>
<linearGradient id="paint0_linear_3671_15669" x1="21.0297" y1="94.2461" x2="21.0297" y2="137.381" gradientUnits="userSpaceOnUse">
<stop stop-color="#2D55B4"/>
<stop offset="1" stop-color="#CAD7FF"/>
</linearGradient>
<linearGradient id="paint1_linear_3671_15669" x1="42.7093" y1="88.1934" x2="42.7093" y2="137.382" gradientUnits="userSpaceOnUse">
<stop stop-color="#2D55B4"/>
<stop offset="1" stop-color="#CAD7FF"/>
</linearGradient>
<linearGradient id="paint2_linear_3671_15669" x1="63.7406" y1="71.543" x2="63.7406" y2="137.381" gradientUnits="userSpaceOnUse">
<stop stop-color="#2D55B4"/>
<stop offset="1" stop-color="#CAD7FF"/>
</linearGradient>
<linearGradient id="paint3_linear_3671_15669" x1="85.4203" y1="88.1934" x2="85.4203" y2="137.382" gradientUnits="userSpaceOnUse">
<stop stop-color="#2D55B4"/>
<stop offset="1" stop-color="#CAD7FF"/>
</linearGradient>
<linearGradient id="paint4_linear_3671_15669" x1="106.772" y1="94.2461" x2="106.772" y2="137.381" gradientUnits="userSpaceOnUse">
<stop stop-color="#2D55B4"/>
<stop offset="1" stop-color="#CAD7FF"/>
</linearGradient>
<linearGradient id="paint5_linear_3671_15669" x1="128.123" y1="71.543" x2="128.123" y2="137.381" gradientUnits="userSpaceOnUse">
<stop stop-color="#2D55B4"/>
<stop offset="1" stop-color="#CAD7FF"/>
</linearGradient>
<linearGradient id="paint6_linear_3671_15669" x1="149.811" y1="82.1387" x2="149.811" y2="137.382" gradientUnits="userSpaceOnUse">
<stop stop-color="#2D55B4"/>
<stop offset="1" stop-color="#CAD7FF"/>
</linearGradient>
<linearGradient id="paint7_linear_3671_15669" x1="170.834" y1="78.3535" x2="170.834" y2="137.38" gradientUnits="userSpaceOnUse">
<stop stop-color="#2D55B4"/>
<stop offset="1" stop-color="#CAD7FF"/>
</linearGradient>
<linearGradient id="paint8_linear_3671_15669" x1="192.514" y1="66.2461" x2="192.514" y2="137.381" gradientUnits="userSpaceOnUse">
<stop stop-color="#2D55B4"/>
<stop offset="1" stop-color="#CAD7FF"/>
</linearGradient>
</defs>
</svg>
