<svg width="146" height="116" viewBox="0 0 146 116" fill="none" xmlns="http://www.w3.org/2000/svg">
<path d="M10.4473 16.2285V12.5389H9.0396V11.8189H12.6971V12.5389H11.283V16.2285H10.4473ZM14.2659 16.3057C13.8974 16.3057 13.5889 16.2435 13.3403 16.1192C13.0918 15.9907 12.9053 15.7957 12.7811 15.5343C12.6568 15.2729 12.5947 14.9408 12.5947 14.538C12.5947 14.1309 12.6568 13.7988 12.7811 13.5416C12.9053 13.2802 13.0918 13.0874 13.3403 12.9631C13.5889 12.8346 13.8974 12.7703 14.2659 12.7703C14.6387 12.7703 14.9473 12.8346 15.1916 12.9631C15.4401 13.0874 15.6265 13.2802 15.7508 13.5416C15.8751 13.7988 15.9372 14.1309 15.9372 14.538C15.9372 14.9408 15.8751 15.2729 15.7508 15.5343C15.6265 15.7957 15.4401 15.9907 15.1916 16.1192C14.9473 16.2435 14.6387 16.3057 14.2659 16.3057ZM14.2659 15.6629C14.4716 15.6629 14.6366 15.6243 14.7609 15.5472C14.8894 15.4657 14.9816 15.3457 15.0373 15.1872C15.0973 15.0243 15.1273 14.8229 15.1273 14.583V14.493C15.1273 14.253 15.0973 14.0537 15.0373 13.8952C14.9816 13.7323 14.8894 13.6123 14.7609 13.5352C14.6366 13.4538 14.4716 13.4131 14.2659 13.4131C14.0602 13.4131 13.8931 13.4538 13.7645 13.5352C13.6403 13.6123 13.5481 13.7323 13.4881 13.8952C13.4324 14.0537 13.4046 14.253 13.4046 14.493V14.583C13.4046 14.8229 13.4324 15.0243 13.4881 15.1872C13.5481 15.3457 13.6403 15.4657 13.7645 15.5472C13.8931 15.6243 14.0602 15.6629 14.2659 15.6629ZM17.497 16.3057C17.287 16.3057 17.122 16.2649 17.002 16.1835C16.882 16.0978 16.7963 15.9907 16.7449 15.8621C16.6978 15.7293 16.6742 15.5943 16.6742 15.4572V13.4902H16.2692V12.8474H16.6935L16.8349 11.9025H17.4584V12.8474H18.0434V13.4902H17.4584V15.38C17.4584 15.47 17.482 15.5407 17.5291 15.5921C17.5763 15.6393 17.647 15.6629 17.7412 15.6629H18.0434V16.2028C18.0005 16.2199 17.9469 16.2349 17.8827 16.2478C17.8227 16.2649 17.7584 16.2778 17.6898 16.2864C17.6212 16.2992 17.557 16.3057 17.497 16.3057ZM19.4926 16.3057C19.3983 16.3057 19.289 16.2928 19.1647 16.2671C19.0447 16.2457 18.9269 16.2028 18.8112 16.1385C18.6998 16.0742 18.6076 15.98 18.5348 15.8557C18.4619 15.7271 18.4255 15.56 18.4255 15.3543C18.4255 15.1229 18.4769 14.9322 18.5798 14.7822C18.6826 14.628 18.8262 14.508 19.0105 14.4223C19.199 14.3323 19.4218 14.2701 19.679 14.2359C19.9404 14.1973 20.2253 14.178 20.5339 14.178V13.9016C20.5339 13.803 20.5189 13.7152 20.4889 13.6381C20.4589 13.5609 20.4032 13.5009 20.3218 13.4581C20.2446 13.4109 20.1268 13.3874 19.9682 13.3874C19.8097 13.3874 19.6854 13.4066 19.5954 13.4452C19.5054 13.4838 19.4433 13.5309 19.409 13.5866C19.3747 13.6423 19.3576 13.7002 19.3576 13.7602V13.8502H18.5991C18.5948 13.8287 18.5926 13.8073 18.5926 13.7859C18.5926 13.7645 18.5926 13.7388 18.5926 13.7088C18.5926 13.5159 18.6505 13.3488 18.7662 13.2074C18.8819 13.066 19.0426 12.9588 19.2483 12.886C19.454 12.8088 19.6918 12.7703 19.9618 12.7703C20.2703 12.7703 20.5232 12.8131 20.7203 12.8988C20.9217 12.9845 21.0717 13.1067 21.1702 13.2652C21.2688 13.4238 21.3181 13.6166 21.3181 13.8437V15.4379C21.3181 15.5193 21.3417 15.5772 21.3888 15.6114C21.4359 15.6457 21.4874 15.6629 21.5431 15.6629H21.7488V16.2028C21.7059 16.2199 21.6438 16.2392 21.5624 16.2607C21.4809 16.2864 21.3802 16.2992 21.2602 16.2992C21.1488 16.2992 21.0481 16.2799 20.9581 16.2414C20.8724 16.2071 20.7996 16.1557 20.7396 16.0871C20.6796 16.0185 20.6367 15.9371 20.611 15.8428H20.5724C20.4996 15.9328 20.4117 16.0143 20.3089 16.0871C20.2103 16.1557 20.0925 16.2092 19.9554 16.2478C19.8225 16.2864 19.6682 16.3057 19.4926 16.3057ZM19.7304 15.6629C19.8589 15.6629 19.9725 15.6436 20.0711 15.605C20.1739 15.5664 20.2575 15.5129 20.3218 15.4443C20.3903 15.3757 20.4417 15.2922 20.476 15.1936C20.5146 15.0951 20.5339 14.9879 20.5339 14.8722V14.7179C20.2982 14.7179 20.0796 14.7329 19.8782 14.7629C19.6811 14.7929 19.5225 14.8486 19.4026 14.9301C19.2869 15.0115 19.229 15.1272 19.229 15.2772C19.229 15.3543 19.2461 15.4229 19.2804 15.4829C19.319 15.5386 19.3747 15.5836 19.4476 15.6179C19.5247 15.6479 19.619 15.6629 19.7304 15.6629ZM22.1966 16.2285V11.5811H22.9808V16.2285H22.1966ZM25.1737 16.2285V11.8189H27.4941C27.8198 11.8189 28.0898 11.8747 28.3041 11.9861C28.5183 12.0975 28.679 12.256 28.7862 12.4617C28.8933 12.6674 28.9469 12.9096 28.9469 13.1881C28.9469 13.4752 28.8826 13.7302 28.754 13.953C28.6255 14.1716 28.4369 14.3366 28.1884 14.448L29.1011 16.2285H28.1884L27.3784 14.5894H26.0093V16.2285H25.1737ZM26.0093 13.8887H27.4299C27.6441 13.8887 27.8091 13.8266 27.9248 13.7023C28.0405 13.5781 28.0984 13.4066 28.0984 13.1881C28.0984 13.0467 28.0727 12.9288 28.0212 12.8346C27.9698 12.736 27.8948 12.661 27.7963 12.6096C27.6977 12.5582 27.5756 12.5324 27.4299 12.5324H26.0093V13.8887ZM31.1004 16.3057C30.7405 16.3057 30.4405 16.2435 30.2005 16.1192C29.9605 15.9907 29.7805 15.7957 29.6606 15.5343C29.5406 15.2729 29.4806 14.9408 29.4806 14.538C29.4806 14.1309 29.5406 13.7988 29.6606 13.5416C29.7805 13.2802 29.9605 13.0874 30.2005 12.9631C30.4405 12.8346 30.7405 12.7703 31.1004 12.7703C31.4261 12.7703 31.6982 12.8324 31.9168 12.9567C32.1396 13.0767 32.3067 13.2631 32.4182 13.5159C32.5296 13.7688 32.5853 14.0966 32.5853 14.4994V14.7308H30.2841C30.2926 14.9408 30.3248 15.1186 30.3805 15.2643C30.4362 15.4057 30.5219 15.5129 30.6376 15.5857C30.7576 15.6543 30.914 15.6886 31.1068 15.6886C31.2054 15.6886 31.2975 15.6757 31.3833 15.65C31.469 15.6243 31.544 15.5857 31.6082 15.5343C31.6725 15.4786 31.7218 15.41 31.7561 15.3286C31.7946 15.2472 31.8139 15.1529 31.8139 15.0458H32.5853C32.5853 15.26 32.5467 15.4464 32.4696 15.605C32.3967 15.7636 32.2917 15.8943 32.1546 15.9971C32.0218 16.1 31.8653 16.1771 31.6854 16.2285C31.5054 16.2799 31.3104 16.3057 31.1004 16.3057ZM30.2969 14.178H31.7689C31.7689 14.0366 31.7518 13.9166 31.7175 13.818C31.6875 13.7195 31.6425 13.6381 31.5825 13.5738C31.5268 13.5095 31.4582 13.4645 31.3768 13.4388C31.2954 13.4088 31.2033 13.3938 31.1004 13.3938C30.9333 13.3938 30.7919 13.4216 30.6762 13.4774C30.5648 13.5331 30.4791 13.6188 30.4191 13.7345C30.3591 13.8502 30.3184 13.998 30.2969 14.178ZM34.1186 16.2285L32.8652 12.8474H33.688L34.2343 14.3708C34.2601 14.4437 34.2901 14.5423 34.3243 14.6665C34.3629 14.7865 34.4015 14.9129 34.44 15.0458C34.4786 15.1743 34.5107 15.2922 34.5365 15.3993H34.5686C34.5943 15.3007 34.6243 15.1872 34.6586 15.0586C34.6929 14.9301 34.7272 14.8037 34.7614 14.6794C34.8 14.5551 34.8343 14.4523 34.8643 14.3708L35.4042 12.8474H36.2013L34.9414 16.2285H34.1186ZM38.1059 16.3057C37.7459 16.3057 37.4459 16.2435 37.206 16.1192C36.966 15.9907 36.786 15.7957 36.666 15.5343C36.546 15.2729 36.486 14.9408 36.486 14.538C36.486 14.1309 36.546 13.7988 36.666 13.5416C36.786 13.2802 36.966 13.0874 37.206 12.9631C37.4459 12.8346 37.7459 12.7703 38.1059 12.7703C38.4316 12.7703 38.7037 12.8324 38.9222 12.9567C39.1451 13.0767 39.3122 13.2631 39.4236 13.5159C39.535 13.7688 39.5907 14.0966 39.5907 14.4994V14.7308H37.2895C37.2981 14.9408 37.3302 15.1186 37.386 15.2643C37.4417 15.4057 37.5274 15.5129 37.6431 15.5857C37.7631 15.6543 37.9195 15.6886 38.1123 15.6886C38.2109 15.6886 38.303 15.6757 38.3887 15.65C38.4744 15.6243 38.5494 15.5857 38.6137 15.5343C38.678 15.4786 38.7272 15.41 38.7615 15.3286C38.8001 15.2472 38.8194 15.1529 38.8194 15.0458H39.5907C39.5907 15.26 39.5522 15.4464 39.475 15.605C39.4022 15.7636 39.2972 15.8943 39.1601 15.9971C39.0272 16.1 38.8708 16.1771 38.6908 16.2285C38.5108 16.2799 38.3159 16.3057 38.1059 16.3057ZM37.3024 14.178H38.7744C38.7744 14.0366 38.7572 13.9166 38.723 13.818C38.693 13.7195 38.648 13.6381 38.588 13.5738C38.5323 13.5095 38.4637 13.4645 38.3823 13.4388C38.3009 13.4088 38.2087 13.3938 38.1059 13.3938C37.9388 13.3938 37.7973 13.4216 37.6816 13.4774C37.5702 13.5331 37.4845 13.6188 37.4245 13.7345C37.3645 13.8502 37.3238 13.998 37.3024 14.178ZM40.2563 16.2285V12.8474H40.912L40.9763 13.2974H41.0213C41.0984 13.1945 41.1884 13.1045 41.2912 13.0274C41.3984 12.946 41.5183 12.8838 41.6512 12.841C41.7883 12.7938 41.9383 12.7703 42.1012 12.7703C42.3154 12.7703 42.504 12.8088 42.6668 12.886C42.8339 12.9631 42.9646 13.0874 43.0589 13.2588C43.1532 13.4302 43.2003 13.6595 43.2003 13.9466V16.2285H42.4097V14.088C42.4097 13.968 42.3947 13.8695 42.3647 13.7923C42.339 13.7109 42.2983 13.6466 42.2426 13.5995C42.1911 13.5481 42.1269 13.5116 42.0497 13.4902C41.9726 13.4688 41.8869 13.4581 41.7926 13.4581C41.6512 13.4581 41.5226 13.4924 41.4069 13.5609C41.2955 13.6295 41.2055 13.7238 41.137 13.8437C41.0727 13.9637 41.0405 14.103 41.0405 14.2616V16.2285H40.2563ZM45.0836 16.3057C44.7579 16.3057 44.4922 16.2178 44.2866 16.0421C44.0851 15.8621 43.9844 15.5579 43.9844 15.1293V12.8474H44.7686V14.9879C44.7686 15.1079 44.7815 15.2086 44.8072 15.29C44.8372 15.3672 44.8779 15.4315 44.9293 15.4829C44.9851 15.53 45.0515 15.5643 45.1286 15.5857C45.2057 15.6071 45.2915 15.6179 45.3857 15.6179C45.5271 15.6179 45.6536 15.5836 45.765 15.515C45.8807 15.4464 45.9707 15.3522 46.035 15.2322C46.1035 15.1079 46.1378 14.9686 46.1378 14.8144V12.8474H46.922V16.2285H46.2728L46.2085 15.7786H46.1635C46.0864 15.8814 45.9942 15.9735 45.8871 16.055C45.7843 16.1321 45.6643 16.1921 45.5271 16.2349C45.3943 16.2821 45.2465 16.3057 45.0836 16.3057ZM49.2104 16.3057C48.8504 16.3057 48.5505 16.2435 48.3105 16.1192C48.0705 15.9907 47.8905 15.7957 47.7706 15.5343C47.6506 15.2729 47.5906 14.9408 47.5906 14.538C47.5906 14.1309 47.6506 13.7988 47.7706 13.5416C47.8905 13.2802 48.0705 13.0874 48.3105 12.9631C48.5505 12.8346 48.8504 12.7703 49.2104 12.7703C49.5361 12.7703 49.8082 12.8324 50.0268 12.9567C50.2496 13.0767 50.4167 13.2631 50.5281 13.5159C50.6396 13.7688 50.6953 14.0966 50.6953 14.4994V14.7308H48.3941C48.4026 14.9408 48.4348 15.1186 48.4905 15.2643C48.5462 15.4057 48.6319 15.5129 48.7476 15.5857C48.8676 15.6543 49.024 15.6886 49.2168 15.6886C49.3154 15.6886 49.4075 15.6757 49.4932 15.65C49.5789 15.6243 49.6539 15.5857 49.7182 15.5343C49.7825 15.4786 49.8318 15.41 49.8661 15.3286C49.9046 15.2472 49.9239 15.1529 49.9239 15.0458H50.6953C50.6953 15.26 50.6567 15.4464 50.5796 15.605C50.5067 15.7636 50.4017 15.8943 50.2646 15.9971C50.1318 16.1 49.9753 16.1771 49.7954 16.2285C49.6154 16.2799 49.4204 16.3057 49.2104 16.3057ZM48.4069 14.178H49.8789C49.8789 14.0366 49.8618 13.9166 49.8275 13.818C49.7975 13.7195 49.7525 13.6381 49.6925 13.5738C49.6368 13.5095 49.5682 13.4645 49.4868 13.4388C49.4054 13.4088 49.3133 13.3938 49.2104 13.3938C49.0433 13.3938 48.9019 13.4216 48.7862 13.4774C48.6747 13.5331 48.589 13.6188 48.529 13.7345C48.4691 13.8502 48.4283 13.998 48.4069 14.178ZM51.618 13.6702V12.8474H52.4279V13.6702H51.618ZM51.618 16.2285V15.4057H52.4279V16.2285H51.618Z" fill="#ABAEB7"/>
<path d="M12.4657 30.8773V28.5922H13.2033V30.8773H12.4657ZM12.4657 39.7575V37.3567H13.2033V39.7575H12.4657ZM12.7839 38.0654C12.2343 38.0654 11.7522 38.0075 11.3376 37.8918C10.923 37.7665 10.5759 37.5977 10.2963 37.3856C10.0167 37.1735 9.80453 36.9276 9.6599 36.648C9.52492 36.3587 9.45742 36.0454 9.45742 35.7079C9.45742 35.6597 9.45742 35.6163 9.45742 35.5777C9.46706 35.5392 9.47188 35.5102 9.47188 35.491H11.2074C11.2074 35.5102 11.2074 35.5295 11.2074 35.5488C11.2074 35.5681 11.2074 35.5874 11.2074 35.6067C11.2171 35.867 11.299 36.0791 11.4533 36.243C11.6076 36.3973 11.8101 36.5082 12.0607 36.5757C12.3114 36.6432 12.5766 36.6769 12.8562 36.6769C13.1069 36.6769 13.3431 36.6528 13.5649 36.6046C13.7963 36.5467 13.9843 36.46 14.1289 36.3443C14.2832 36.2189 14.3603 36.0598 14.3603 35.867C14.3603 35.6163 14.2639 35.4235 14.0711 35.2885C13.8782 35.1535 13.6227 35.0426 13.3045 34.9558C12.996 34.8691 12.6634 34.7775 12.3066 34.681C11.9884 34.5943 11.6702 34.4978 11.3521 34.3918C11.0339 34.2857 10.7446 34.1507 10.4843 33.9868C10.2336 33.8229 10.0263 33.6108 9.86238 33.3505C9.70811 33.0901 9.63098 32.7671 9.63098 32.3814C9.63098 32.0054 9.71293 31.6776 9.87685 31.398C10.0408 31.1183 10.2673 30.8869 10.5566 30.7037C10.8459 30.5109 11.1881 30.3663 11.5835 30.2699C11.9788 30.1734 12.4078 30.1252 12.8707 30.1252C13.3238 30.1252 13.7336 30.1734 14.1 30.2699C14.476 30.3663 14.799 30.5061 15.069 30.6893C15.3486 30.8628 15.5608 31.0798 15.7054 31.3401C15.8597 31.5908 15.9368 31.8704 15.9368 32.179C15.9368 32.2465 15.932 32.3139 15.9223 32.3814C15.9223 32.4489 15.9223 32.4875 15.9223 32.4971H14.2012V32.3959C14.2012 32.2127 14.1434 32.0584 14.0277 31.9331C13.9216 31.7981 13.7625 31.692 13.5504 31.6149C13.3479 31.5378 13.0924 31.4992 12.7839 31.4992C12.5525 31.4992 12.35 31.5185 12.1764 31.5571C12.0029 31.5956 11.8583 31.6487 11.7426 31.7161C11.6365 31.7836 11.5545 31.8608 11.4967 31.9476C11.4388 32.0343 11.4099 32.1307 11.4099 32.2368C11.4099 32.42 11.4822 32.5646 11.6269 32.6707C11.7715 32.7768 11.9643 32.8684 12.2054 32.9455C12.4561 33.0226 12.726 33.1046 13.0153 33.1914C13.3624 33.2878 13.7192 33.389 14.0855 33.4951C14.4519 33.5915 14.7894 33.7168 15.0979 33.8711C15.4161 34.0254 15.6716 34.2423 15.8645 34.5219C16.0573 34.8016 16.1537 35.1728 16.1537 35.6356C16.1537 36.0791 16.067 36.46 15.8934 36.7782C15.7295 37.0867 15.4933 37.3374 15.1847 37.5302C14.8858 37.7134 14.5291 37.8484 14.1145 37.9352C13.7095 38.022 13.266 38.0654 12.7839 38.0654ZM20.7242 39.2224C20.0011 39.2224 19.4129 39.0874 18.9598 38.8174C18.5066 38.5378 18.1739 38.1666 17.9618 37.7038C17.7497 37.2313 17.6436 36.7058 17.6436 36.1273H19.437C19.437 36.4744 19.4804 36.7733 19.5672 37.024C19.6636 37.2651 19.8131 37.4531 20.0156 37.5881C20.218 37.7134 20.4784 37.7761 20.7965 37.7761C21.269 37.7761 21.6209 37.6507 21.8523 37.4001C22.0934 37.1397 22.2525 36.7733 22.3296 36.3009C22.4164 35.8188 22.4646 35.2547 22.4742 34.6087C22.426 34.6762 22.3055 34.7823 22.1127 34.9269C21.9295 35.0715 21.6836 35.2017 21.3751 35.3174C21.0762 35.4331 20.7291 35.491 20.3337 35.491C19.6395 35.491 19.0706 35.3512 18.6271 35.0715C18.1836 34.7823 17.8509 34.3918 17.6292 33.9C17.4171 33.3987 17.311 32.8394 17.311 32.2223C17.311 31.5474 17.4556 30.9689 17.7449 30.4868C18.0341 29.9951 18.4295 29.619 18.9308 29.3587C19.4322 29.0887 20.0011 28.9537 20.6375 28.9537C21.2063 28.9537 21.7174 29.0357 22.1705 29.1996C22.6237 29.3635 23.0094 29.6335 23.3276 30.0095C23.6457 30.3759 23.8868 30.8725 24.0507 31.4992C24.2146 32.1163 24.2966 32.8828 24.2966 33.7988C24.2966 34.8208 24.2146 35.6838 24.0507 36.3877C23.8964 37.0819 23.665 37.6363 23.3565 38.0509C23.0576 38.4655 22.6864 38.7644 22.2428 38.9476C21.7993 39.1308 21.2931 39.2224 20.7242 39.2224ZM20.7387 34.0736C21.1051 34.0736 21.4088 33.9965 21.6499 33.8422C21.8909 33.6783 22.0693 33.4565 22.185 33.1769C22.3007 32.8973 22.3585 32.5791 22.3585 32.2223C22.3585 31.8752 22.3007 31.5667 22.185 31.2967C22.0693 31.0171 21.8909 30.8002 21.6499 30.6459C21.4088 30.482 21.1051 30.4 20.7387 30.4C20.3723 30.4 20.0686 30.482 19.8275 30.6459C19.5961 30.8098 19.4226 31.0316 19.3069 31.3112C19.1912 31.5812 19.1333 31.8897 19.1333 32.2368C19.1333 32.5936 19.1912 32.9117 19.3069 33.1914C19.4226 33.4613 19.5961 33.6783 19.8275 33.8422C20.0686 33.9965 20.3723 34.0736 20.7387 34.0736ZM26.1651 41.4063V40.6687C26.4061 40.6301 26.599 40.5337 26.7436 40.3794C26.8882 40.2251 26.9943 40.0323 27.0618 39.8009C27.1389 39.5695 27.1775 39.3188 27.1775 39.0488H26.2808V37.1976H28.1031V38.8897C28.1031 39.449 28.0115 39.9021 27.8283 40.2492C27.6548 40.5964 27.4186 40.8567 27.1197 41.0302C26.8304 41.2134 26.5122 41.3388 26.1651 41.4063ZM33.5094 39.2224C32.8152 39.2224 32.2029 39.0922 31.6726 38.8319C31.152 38.5716 30.747 38.2003 30.4578 37.7182C30.1685 37.2265 30.0239 36.6432 30.0239 35.9682H31.8462C31.8462 36.3346 31.9137 36.6576 32.0487 36.9372C32.1837 37.2072 32.3765 37.4145 32.6272 37.5592C32.8779 37.7038 33.172 37.7761 33.5094 37.7761C33.8372 37.7761 34.1217 37.7038 34.3627 37.5592C34.6038 37.4145 34.7918 37.1976 34.9268 36.9083C35.0714 36.6094 35.1437 36.243 35.1437 35.8091C35.1437 35.4042 35.0762 35.0715 34.9412 34.8112C34.8063 34.5412 34.6182 34.3436 34.3772 34.2182C34.1361 34.0832 33.8614 34.0157 33.5528 34.0157C33.3214 34.0157 33.1093 34.0543 32.9164 34.1314C32.7236 34.2086 32.5549 34.3098 32.4102 34.4352C32.2656 34.5509 32.1403 34.6859 32.0342 34.8401L30.3565 34.6232L30.7615 29.1273H36.4598V30.7327H32.2945L32.1354 33.1769C32.2704 33.0805 32.4247 32.9889 32.5983 32.9021C32.7718 32.8153 32.9743 32.743 33.2057 32.6852C33.4467 32.6273 33.7215 32.5984 34.0301 32.5984C34.5797 32.5984 35.0762 32.7141 35.5198 32.9455C35.9633 33.1769 36.3152 33.5288 36.5756 34.0013C36.8359 34.4737 36.9661 35.0764 36.9661 35.8091C36.9661 36.5323 36.8262 37.1494 36.5466 37.6604C36.267 38.1714 35.8669 38.5619 35.3462 38.8319C34.8352 39.0922 34.2229 39.2224 33.5094 39.2224ZM42.4937 39.0488V36.836H38.1259V35.3897C38.5116 34.7534 38.8683 34.0977 39.1962 33.4228C39.524 32.7478 39.8229 32.0392 40.0929 31.2967C40.3628 30.5543 40.5942 29.7733 40.7871 28.9537H42.6383C42.513 29.4648 42.3539 29.9902 42.161 30.5302C41.9682 31.0701 41.7561 31.5956 41.5247 32.1066C41.2933 32.6177 41.0619 33.0949 40.8305 33.5385C40.5991 33.9724 40.3821 34.3532 40.1796 34.681C39.9868 34.9992 39.8325 35.2354 39.7168 35.3897H42.4937V32.8876C42.5805 32.7044 42.6672 32.5116 42.754 32.3091C42.8408 32.097 42.9228 31.8849 42.9999 31.6728C43.0867 31.451 43.1638 31.2389 43.2313 31.0364C43.2988 30.8243 43.3615 30.6218 43.4193 30.429H44.2582V35.3897H45.4875V36.836H44.2582V39.0488H42.4937ZM46.7624 39.0488V38.5716C46.7624 38.1377 46.8395 37.7423 46.9938 37.3856C47.1481 37.0288 47.3554 36.7058 47.6157 36.4166C47.876 36.1177 48.1653 35.8381 48.4835 35.5777C48.8113 35.3078 49.1391 35.0523 49.467 34.8112C49.8719 34.5123 50.2528 34.2134 50.6095 33.9145C50.9663 33.606 51.2555 33.2781 51.4773 32.931C51.6991 32.5743 51.8099 32.179 51.8099 31.7451C51.8099 31.5426 51.7617 31.3401 51.6653 31.1376C51.5689 30.9352 51.4098 30.7664 51.188 30.6314C50.9759 30.4964 50.6867 30.429 50.3203 30.429C49.9539 30.429 49.6501 30.4916 49.4091 30.617C49.1681 30.7327 48.9849 30.9014 48.8595 31.1232C48.7438 31.3449 48.686 31.6197 48.686 31.9476V32.5405H46.9215C46.9118 32.4923 46.9022 32.42 46.8926 32.3236C46.8829 32.2272 46.8781 32.1066 46.8781 31.962C46.8781 31.2485 47.0372 30.6748 47.3554 30.2409C47.6832 29.7974 48.1123 29.4744 48.6426 29.2719C49.1825 29.0598 49.7658 28.9537 50.3926 28.9537C51.0482 28.9537 51.5834 29.0502 51.998 29.243C52.4222 29.4358 52.75 29.6817 52.9814 29.9806C53.2225 30.2795 53.3864 30.5977 53.4732 30.9352C53.5696 31.2726 53.6178 31.5812 53.6178 31.8608C53.6178 32.3236 53.5358 32.7478 53.3719 33.1335C53.2177 33.5095 53.0007 33.8663 52.7211 34.2038C52.4415 34.5316 52.1088 34.8498 51.7232 35.1583C51.3471 35.4572 50.9422 35.7609 50.5083 36.0695C50.2865 36.2237 50.0696 36.378 49.8574 36.5323C49.6453 36.6866 49.4573 36.8408 49.2934 36.9951C49.1391 37.1494 49.0186 37.3036 48.9318 37.4579H53.6756V39.0488H46.7624ZM55.6017 39.0488V37.1976H57.4385V39.0488H55.6017ZM62.8592 39.2224C62.3193 39.2224 61.8372 39.1452 61.413 38.991C60.9887 38.8271 60.6271 38.5523 60.3282 38.1666C60.0293 37.7809 59.8028 37.2603 59.6485 36.6046C59.4942 35.9393 59.4171 35.1005 59.4171 34.0881C59.4171 33.0757 59.4942 32.2416 59.6485 31.586C59.8028 30.9207 60.0293 30.3952 60.3282 30.0095C60.6271 29.6238 60.9887 29.3539 61.413 29.1996C61.8372 29.0357 62.3193 28.9537 62.8592 28.9537C63.3992 28.9537 63.8765 29.0357 64.2911 29.1996C64.7153 29.3539 65.0769 29.6238 65.3758 30.0095C65.6747 30.3952 65.9013 30.9207 66.0555 31.586C66.2098 32.2416 66.2869 33.0757 66.2869 34.0881C66.2869 35.1005 66.2098 35.9393 66.0555 36.6046C65.9013 37.2603 65.6747 37.7809 65.3758 38.1666C65.0769 38.5523 64.7153 38.8271 64.2911 38.991C63.8765 39.1452 63.3992 39.2224 62.8592 39.2224ZM62.8592 37.7761C63.3124 37.7761 63.6499 37.6556 63.8716 37.4145C64.103 37.1638 64.2573 36.7974 64.3345 36.3153C64.4212 35.8236 64.4646 35.2162 64.4646 34.493V33.741C64.4646 32.9985 64.4212 32.3814 64.3345 31.8897C64.2573 31.3883 64.103 31.0171 63.8716 30.7761C63.6499 30.5254 63.3124 30.4 62.8592 30.4C62.4157 30.4 62.0734 30.5254 61.8324 30.7761C61.601 31.0171 61.4419 31.3835 61.3551 31.8752C61.278 32.3573 61.2394 32.9648 61.2394 33.6976V34.4496C61.2394 35.1824 61.278 35.7995 61.3551 36.3009C61.4419 36.7926 61.601 37.1638 61.8324 37.4145C62.0734 37.6556 62.4157 37.7761 62.8592 37.7761ZM71.1782 39.2224C70.6383 39.2224 70.1562 39.1452 69.7319 38.991C69.3077 38.8271 68.9461 38.5523 68.6472 38.1666C68.3483 37.7809 68.1217 37.2603 67.9675 36.6046C67.8132 35.9393 67.7361 35.1005 67.7361 34.0881C67.7361 33.0757 67.8132 32.2416 67.9675 31.586C68.1217 30.9207 68.3483 30.3952 68.6472 30.0095C68.9461 29.6238 69.3077 29.3539 69.7319 29.1996C70.1562 29.0357 70.6383 28.9537 71.1782 28.9537C71.7182 28.9537 72.1954 29.0357 72.61 29.1996C73.0343 29.3539 73.3959 29.6238 73.6948 30.0095C73.9937 30.3952 74.2202 30.9207 74.3745 31.586C74.5288 32.2416 74.6059 33.0757 74.6059 34.0881C74.6059 35.1005 74.5288 35.9393 74.3745 36.6046C74.2202 37.2603 73.9937 37.7809 73.6948 38.1666C73.3959 38.5523 73.0343 38.8271 72.61 38.991C72.1954 39.1452 71.7182 39.2224 71.1782 39.2224ZM71.1782 37.7761C71.6314 37.7761 71.9689 37.6556 72.1906 37.4145C72.422 37.1638 72.5763 36.7974 72.6534 36.3153C72.7402 35.8236 72.7836 35.2162 72.7836 34.493V33.741C72.7836 32.9985 72.7402 32.3814 72.6534 31.8897C72.5763 31.3883 72.422 31.0171 72.1906 30.7761C71.9689 30.5254 71.6314 30.4 71.1782 30.4C70.7347 30.4 70.3924 30.5254 70.1514 30.7761C69.92 31.0171 69.7609 31.3835 69.6741 31.8752C69.5969 32.3573 69.5584 32.9648 69.5584 33.6976V34.4496C69.5584 35.1824 69.5969 35.7995 69.6741 36.3009C69.7609 36.7926 69.92 37.1638 70.1514 37.4145C70.3924 37.6556 70.7347 37.7761 71.1782 37.7761Z" fill="white"/>
<path d="M9.36261 53.8701V50.0117H12.0961V50.4729H9.89693V51.7103H11.8992V52.1659H9.89693V53.8701H9.36261ZM12.7109 53.8701V50.9117H13.1102L13.1552 51.401H13.1946C13.2246 51.3072 13.2658 51.2191 13.3183 51.1366C13.3708 51.0504 13.4421 50.981 13.532 50.9285C13.622 50.8723 13.7326 50.8442 13.8639 50.8442C13.9201 50.8442 13.9708 50.8498 14.0157 50.861C14.0645 50.8685 14.1001 50.8779 14.1226 50.8892V51.3447H13.937C13.8095 51.3447 13.6989 51.3672 13.6052 51.4122C13.5152 51.4535 13.4402 51.5135 13.3802 51.5922C13.3202 51.671 13.2752 51.7647 13.2452 51.8734C13.2189 51.9822 13.2058 52.0984 13.2058 52.2222V53.8701H12.7109ZM15.7383 53.9376C15.4384 53.9376 15.1853 53.8832 14.979 53.7745C14.7765 53.662 14.6209 53.4914 14.5122 53.2627C14.4072 53.0339 14.3547 52.7434 14.3547 52.3909C14.3547 52.0347 14.4072 51.7441 14.5122 51.5191C14.6209 51.2904 14.7765 51.1216 14.979 51.0129C15.1853 50.9004 15.4384 50.8442 15.7383 50.8442C16.0383 50.8442 16.2895 50.9004 16.492 51.0129C16.6982 51.1216 16.8538 51.2904 16.9588 51.5191C17.0638 51.7441 17.1163 52.0347 17.1163 52.3909C17.1163 52.7434 17.0638 53.0339 16.9588 53.2627C16.8538 53.4914 16.6982 53.662 16.492 53.7745C16.2895 53.8832 16.0383 53.9376 15.7383 53.9376ZM15.7383 53.5214C15.9296 53.5214 16.0889 53.4839 16.2164 53.4089C16.3439 53.3339 16.4395 53.2177 16.5033 53.0602C16.5707 52.899 16.6045 52.6965 16.6045 52.4528V52.329C16.6045 52.0815 16.5707 51.8791 16.5033 51.7216C16.4395 51.5641 16.3439 51.4479 16.2164 51.3729C16.0889 51.2979 15.9296 51.2604 15.7383 51.2604C15.5471 51.2604 15.3859 51.2979 15.2546 51.3729C15.1271 51.4479 15.0315 51.5641 14.9678 51.7216C14.904 51.8791 14.8722 52.0815 14.8722 52.329V52.4528C14.8722 52.6965 14.904 52.899 14.9678 53.0602C15.0315 53.2177 15.1271 53.3339 15.2546 53.4089C15.3859 53.4839 15.5471 53.5214 15.7383 53.5214ZM17.7311 53.8701V50.9117H18.1305L18.1755 51.356H18.2148C18.2898 51.236 18.3742 51.1385 18.4679 51.0635C18.5617 50.9885 18.6648 50.9342 18.7773 50.9004C18.8898 50.8629 19.0116 50.8442 19.1429 50.8442C19.3341 50.8442 19.4991 50.8835 19.6378 50.9623C19.7766 51.0373 19.8797 51.1685 19.9472 51.356H19.9809C20.0522 51.236 20.1347 51.1404 20.2284 51.0691C20.3221 50.9941 20.4271 50.9379 20.5434 50.9004C20.6596 50.8629 20.7833 50.8442 20.9146 50.8442C21.0946 50.8442 21.252 50.876 21.387 50.9398C21.522 50.9998 21.627 51.101 21.702 51.2435C21.7807 51.3822 21.8201 51.5697 21.8201 51.8059V53.8701H21.3252V51.8847C21.3252 51.7647 21.3102 51.6653 21.2802 51.5866C21.2539 51.5078 21.2146 51.4479 21.1621 51.4066C21.1096 51.3616 21.0477 51.3297 20.9764 51.311C20.909 51.2922 20.8358 51.2829 20.7571 51.2829C20.6259 51.2829 20.504 51.3166 20.3915 51.3841C20.2828 51.4516 20.1946 51.5491 20.1272 51.6766C20.0597 51.8041 20.0259 51.9559 20.0259 52.1322V53.8701H19.531V51.8847C19.531 51.7647 19.516 51.6653 19.486 51.5866C19.456 51.5078 19.4166 51.4479 19.3679 51.4066C19.3191 51.3616 19.2591 51.3297 19.1879 51.311C19.1204 51.2922 19.0491 51.2829 18.9741 51.2829C18.8392 51.2829 18.7135 51.3166 18.5973 51.3841C18.4848 51.4516 18.3948 51.5491 18.3273 51.6766C18.2598 51.8041 18.2261 51.9559 18.2261 52.1322V53.8701H17.7311ZM24.7861 53.9376C24.5274 53.9376 24.3043 53.8964 24.1168 53.8139C23.9331 53.7276 23.7924 53.6039 23.695 53.4427C23.6012 53.2777 23.5543 53.0714 23.5543 52.824V52.6552H24.0887V52.8521C24.0887 53.0546 24.1487 53.2102 24.2686 53.3189C24.3886 53.4239 24.5611 53.4764 24.7861 53.4764C25.0148 53.4764 25.1892 53.4033 25.3092 53.2571C25.4329 53.1108 25.4948 52.8933 25.4948 52.6046V50.0117H26.0291V52.5765C26.0291 52.8802 25.9804 53.1333 25.8829 53.3358C25.7854 53.5383 25.6429 53.6901 25.4554 53.7914C25.2717 53.8889 25.0486 53.9376 24.7861 53.9376ZM27.6298 53.9376C27.521 53.9376 27.4123 53.9245 27.3036 53.8982C27.1948 53.872 27.0936 53.8289 26.9998 53.7689C26.9061 53.7089 26.8311 53.6264 26.7749 53.5214C26.7186 53.4127 26.6905 53.2777 26.6905 53.1164C26.6905 52.914 26.7392 52.7471 26.8367 52.6159C26.9342 52.4846 27.0692 52.3834 27.2417 52.3121C27.4179 52.2372 27.626 52.1865 27.866 52.1603C28.106 52.1303 28.3666 52.1153 28.6478 52.1153V51.7778C28.6478 51.6691 28.6291 51.5753 28.5916 51.4966C28.5541 51.4179 28.4866 51.3579 28.3891 51.3166C28.2953 51.2716 28.1604 51.2491 27.9841 51.2491C27.8154 51.2491 27.6804 51.2716 27.5792 51.3166C27.4817 51.3579 27.4123 51.4122 27.3711 51.4797C27.3336 51.5472 27.3148 51.6222 27.3148 51.7047V51.7891H26.8367C26.833 51.7703 26.8311 51.7516 26.8311 51.7328C26.8311 51.7141 26.8311 51.6916 26.8311 51.6653C26.8311 51.4853 26.8799 51.3354 26.9773 51.2154C27.0786 51.0916 27.2192 50.9998 27.3992 50.9398C27.5792 50.876 27.7854 50.8442 28.0179 50.8442C28.2653 50.8442 28.4716 50.8798 28.6366 50.951C28.8053 51.0223 28.9309 51.1235 29.0134 51.2547C29.0996 51.386 29.1428 51.5435 29.1428 51.7272V53.3302C29.1428 53.4014 29.1596 53.452 29.1934 53.482C29.2271 53.5083 29.2684 53.5214 29.3171 53.5214H29.5365V53.8476C29.484 53.8701 29.4259 53.8889 29.3621 53.9039C29.2984 53.9226 29.2253 53.932 29.1428 53.932C29.0453 53.932 28.9647 53.9114 28.9009 53.8701C28.8372 53.8326 28.7884 53.7801 28.7547 53.7126C28.7209 53.6414 28.6984 53.5626 28.6872 53.4764H28.6478C28.5803 53.5701 28.4941 53.6526 28.3891 53.7239C28.2878 53.7914 28.1735 53.8439 28.046 53.8814C27.9185 53.9189 27.7798 53.9376 27.6298 53.9376ZM27.7535 53.5214C27.8735 53.5214 27.986 53.5027 28.091 53.4652C28.1997 53.4277 28.2953 53.3752 28.3778 53.3077C28.4603 53.2364 28.5259 53.1521 28.5747 53.0546C28.6234 52.9571 28.6478 52.8502 28.6478 52.734V52.4865C28.3441 52.4865 28.0854 52.5034 27.8716 52.5371C27.6579 52.5709 27.4929 52.6309 27.3767 52.7171C27.2642 52.8033 27.2079 52.9252 27.2079 53.0827C27.2079 53.1839 27.2304 53.2664 27.2754 53.3302C27.3204 53.3939 27.3842 53.4427 27.4667 53.4764C27.5492 53.5064 27.6448 53.5214 27.7535 53.5214ZM29.9522 53.8701V50.9117H30.3516L30.3966 51.356H30.4359C30.5147 51.236 30.6028 51.1385 30.7003 51.0635C30.8015 50.9885 30.9121 50.9342 31.0321 50.9004C31.1559 50.8629 31.2871 50.8442 31.4259 50.8442C31.6133 50.8442 31.7764 50.876 31.9152 50.9398C32.0577 51.0035 32.1683 51.1066 32.247 51.2491C32.3295 51.3916 32.3708 51.5847 32.3708 51.8284V53.8701H31.8758V51.8959C31.8758 51.7722 31.8589 51.671 31.8252 51.5922C31.7952 51.5135 31.7521 51.4516 31.6958 51.4066C31.6433 51.3616 31.5777 51.3297 31.499 51.311C31.424 51.2922 31.3396 51.2829 31.2459 51.2829C31.1071 51.2829 30.9759 51.3166 30.8522 51.3841C30.7284 51.4516 30.6291 51.5491 30.5541 51.6766C30.4828 51.8041 30.4472 51.9559 30.4472 52.1322V53.8701H29.9522ZM34.19 53.8701V53.707C34.19 53.5495 34.22 53.4052 34.28 53.2739C34.3438 53.1389 34.4263 53.0171 34.5275 52.9083C34.6325 52.7958 34.7506 52.689 34.8819 52.5877C35.0131 52.4865 35.1462 52.3871 35.2812 52.2896C35.4649 52.1622 35.6337 52.0347 35.7874 51.9072C35.9449 51.7797 36.0705 51.6428 36.1642 51.4966C36.258 51.3466 36.3048 51.1798 36.3048 50.996C36.3048 50.8798 36.2767 50.7748 36.2205 50.6811C36.168 50.5836 36.0874 50.5067 35.9786 50.4504C35.8699 50.3942 35.7312 50.3661 35.5624 50.3661C35.3637 50.3661 35.2043 50.3998 35.0843 50.4673C34.9643 50.5348 34.8762 50.6248 34.82 50.7373C34.7675 50.8498 34.7412 50.9735 34.7412 51.1085V51.3391H34.2519C34.2482 51.3204 34.2444 51.2922 34.2407 51.2547C34.2369 51.2135 34.235 51.1666 34.235 51.1141C34.235 50.8367 34.2969 50.6136 34.4207 50.4448C34.5444 50.2723 34.7094 50.1467 34.9156 50.068C35.1218 49.9855 35.3449 49.9442 35.5849 49.9442C35.7986 49.9442 35.9824 49.9742 36.1361 50.0342C36.2898 50.0905 36.4173 50.1692 36.5186 50.2705C36.6198 50.3717 36.6948 50.4879 36.7436 50.6192C36.7923 50.7467 36.8167 50.8817 36.8167 51.0241C36.8167 51.2004 36.7848 51.3616 36.7211 51.5078C36.6611 51.6541 36.5748 51.7909 36.4623 51.9184C36.3536 52.0422 36.2242 52.1622 36.0742 52.2784C35.928 52.3946 35.7686 52.5127 35.5962 52.6327C35.4762 52.7115 35.3581 52.7958 35.2418 52.8858C35.1256 52.9721 35.0262 53.0602 34.9437 53.1502C34.8612 53.2402 34.8087 53.3264 34.7862 53.4089H36.8392V53.8701H34.19ZM38.7143 53.9376C38.5043 53.9376 38.3168 53.9076 38.1518 53.8476C37.9868 53.7839 37.8462 53.677 37.73 53.527C37.6137 53.3733 37.5256 53.1689 37.4656 52.914C37.4056 52.6552 37.3756 52.3309 37.3756 51.9409C37.3756 51.551 37.4056 51.2285 37.4656 50.9735C37.5256 50.7148 37.6137 50.5104 37.73 50.3605C37.8462 50.2067 37.9868 50.0999 38.1518 50.0399C38.3168 49.9761 38.5043 49.9442 38.7143 49.9442C38.9242 49.9442 39.1099 49.9761 39.2711 50.0399C39.4361 50.0999 39.5767 50.2067 39.6929 50.3605C39.8092 50.5104 39.8973 50.7148 39.9573 50.9735C40.0173 51.2285 40.0473 51.551 40.0473 51.9409C40.0473 52.3309 40.0173 52.6552 39.9573 52.914C39.8973 53.1689 39.8092 53.3733 39.6929 53.527C39.5767 53.677 39.4361 53.7839 39.2711 53.8476C39.1099 53.9076 38.9242 53.9376 38.7143 53.9376ZM38.7143 53.5214C38.928 53.5214 39.093 53.467 39.2092 53.3583C39.3292 53.2496 39.4117 53.0883 39.4567 52.8746C39.5054 52.6609 39.5298 52.3946 39.5298 52.0759V51.8172C39.5298 51.4947 39.5054 51.2266 39.4567 51.0129C39.4117 50.7954 39.3292 50.6323 39.2092 50.5236C39.093 50.4148 38.928 50.3605 38.7143 50.3605C38.5005 50.3605 38.3337 50.4148 38.2137 50.5236C38.0937 50.6323 38.0093 50.7935 37.9606 51.0073C37.9156 51.221 37.8931 51.4891 37.8931 51.8116V52.0647C37.8931 52.3834 37.9156 52.6515 37.9606 52.869C38.0093 53.0864 38.0937 53.2496 38.2137 53.3583C38.3337 53.467 38.5005 53.5214 38.7143 53.5214ZM40.7686 54.6969V54.4663C40.8398 54.4513 40.8979 54.4157 40.9429 54.3594C40.9917 54.3032 41.0273 54.232 41.0498 54.1457C41.0723 54.0632 41.0835 53.9714 41.0835 53.8701H40.8248V53.2795H41.3704V53.8082C41.3704 54.0257 41.3385 54.1945 41.2748 54.3144C41.2148 54.4382 41.1379 54.5282 41.0442 54.5844C40.9542 54.6407 40.8623 54.6782 40.7686 54.6969ZM42.1654 53.8701V53.707C42.1654 53.5495 42.1953 53.4052 42.2553 53.2739C42.3191 53.1389 42.4016 53.0171 42.5028 52.9083C42.6078 52.7958 42.7259 52.689 42.8572 52.5877C42.9884 52.4865 43.1215 52.3871 43.2565 52.2896C43.4402 52.1622 43.609 52.0347 43.7627 51.9072C43.9202 51.7797 44.0458 51.6428 44.1395 51.4966C44.2333 51.3466 44.2801 51.1798 44.2801 50.996C44.2801 50.8798 44.252 50.7748 44.1958 50.6811C44.1433 50.5836 44.0627 50.5067 43.9539 50.4504C43.8452 50.3942 43.7065 50.3661 43.5377 50.3661C43.339 50.3661 43.1796 50.3998 43.0596 50.4673C42.9397 50.5348 42.8515 50.6248 42.7953 50.7373C42.7428 50.8498 42.7165 50.9735 42.7165 51.1085V51.3391H42.2272C42.2235 51.3204 42.2197 51.2922 42.216 51.2547C42.2122 51.2135 42.2103 51.1666 42.2103 51.1141C42.2103 50.8367 42.2722 50.6136 42.396 50.4448C42.5197 50.2723 42.6847 50.1467 42.8909 50.068C43.0971 49.9855 43.3202 49.9442 43.5602 49.9442C43.7739 49.9442 43.9577 49.9742 44.1114 50.0342C44.2651 50.0905 44.3926 50.1692 44.4939 50.2705C44.5951 50.3717 44.6701 50.4879 44.7189 50.6192C44.7676 50.7467 44.792 50.8817 44.792 51.0241C44.792 51.2004 44.7601 51.3616 44.6964 51.5078C44.6364 51.6541 44.5501 51.7909 44.4376 51.9184C44.3289 52.0422 44.1995 52.1622 44.0495 52.2784C43.9033 52.3946 43.7439 52.5127 43.5715 52.6327C43.4515 52.7115 43.3334 52.7958 43.2171 52.8858C43.1009 52.9721 43.0015 53.0602 42.919 53.1502C42.8365 53.2402 42.784 53.3264 42.7615 53.4089H44.8145V53.8701H42.1654ZM46.6896 53.9376C46.4796 53.9376 46.2921 53.9076 46.1271 53.8476C45.9621 53.7839 45.8215 53.677 45.7053 53.527C45.589 53.3733 45.5009 53.1689 45.4409 52.914C45.3809 52.6552 45.3509 52.3309 45.3509 51.9409C45.3509 51.551 45.3809 51.2285 45.4409 50.9735C45.5009 50.7148 45.589 50.5104 45.7053 50.3605C45.8215 50.2067 45.9621 50.0999 46.1271 50.0399C46.2921 49.9761 46.4796 49.9442 46.6896 49.9442C46.8995 49.9442 47.0852 49.9761 47.2464 50.0399C47.4114 50.0999 47.552 50.2067 47.6682 50.3605C47.7845 50.5104 47.8726 50.7148 47.9326 50.9735C47.9926 51.2285 48.0226 51.551 48.0226 51.9409C48.0226 52.3309 47.9926 52.6552 47.9326 52.914C47.8726 53.1689 47.7845 53.3733 47.6682 53.527C47.552 53.677 47.4114 53.7839 47.2464 53.8476C47.0852 53.9076 46.8995 53.9376 46.6896 53.9376ZM46.6896 53.5214C46.9033 53.5214 47.0683 53.467 47.1845 53.3583C47.3045 53.2496 47.387 53.0883 47.432 52.8746C47.4807 52.6609 47.5051 52.3946 47.5051 52.0759V51.8172C47.5051 51.4947 47.4807 51.2266 47.432 51.0129C47.387 50.7954 47.3045 50.6323 47.1845 50.5236C47.0683 50.4148 46.9033 50.3605 46.6896 50.3605C46.4758 50.3605 46.309 50.4148 46.189 50.5236C46.069 50.6323 45.9846 50.7935 45.9359 51.0073C45.8909 51.221 45.8684 51.4891 45.8684 51.8116V52.0647C45.8684 52.3834 45.8909 52.6515 45.9359 52.869C45.9846 53.0864 46.069 53.2496 46.189 53.3583C46.309 53.467 46.4758 53.5214 46.6896 53.5214ZM48.5807 53.8701V53.707C48.5807 53.5495 48.6107 53.4052 48.6707 53.2739C48.7345 53.1389 48.817 53.0171 48.9182 52.9083C49.0232 52.7958 49.1413 52.689 49.2726 52.5877C49.4038 52.4865 49.5369 52.3871 49.6719 52.2896C49.8556 52.1622 50.0244 52.0347 50.1781 51.9072C50.3356 51.7797 50.4612 51.6428 50.5549 51.4966C50.6487 51.3466 50.6955 51.1798 50.6955 50.996C50.6955 50.8798 50.6674 50.7748 50.6112 50.6811C50.5587 50.5836 50.4781 50.5067 50.3693 50.4504C50.2606 50.3942 50.1218 50.3661 49.9531 50.3661C49.7544 50.3661 49.595 50.3998 49.475 50.4673C49.355 50.5348 49.2669 50.6248 49.2107 50.7373C49.1582 50.8498 49.1319 50.9735 49.1319 51.1085V51.3391H48.6426C48.6389 51.3204 48.6351 51.2922 48.6314 51.2547C48.6276 51.2135 48.6257 51.1666 48.6257 51.1141C48.6257 50.8367 48.6876 50.6136 48.8113 50.4448C48.9351 50.2723 49.1001 50.1467 49.3063 50.068C49.5125 49.9855 49.7356 49.9442 49.9756 49.9442C50.1893 49.9442 50.3731 49.9742 50.5268 50.0342C50.6805 50.0905 50.808 50.1692 50.9093 50.2705C51.0105 50.3717 51.0855 50.4879 51.1342 50.6192C51.183 50.7467 51.2074 50.8817 51.2074 51.0241C51.2074 51.2004 51.1755 51.3616 51.1117 51.5078C51.0518 51.6541 50.9655 51.7909 50.853 51.9184C50.7443 52.0422 50.6149 52.1622 50.4649 52.2784C50.3187 52.3946 50.1593 52.5127 49.9869 52.6327C49.8669 52.7115 49.7488 52.7958 49.6325 52.8858C49.5163 52.9721 49.4169 53.0602 49.3344 53.1502C49.2519 53.2402 49.1994 53.3264 49.1769 53.4089H51.2299V53.8701H48.5807ZM51.772 53.8701V53.707C51.772 53.5495 51.802 53.4052 51.862 53.2739C51.9257 53.1389 52.0082 53.0171 52.1094 52.9083C52.2144 52.7958 52.3325 52.689 52.4638 52.5877C52.595 52.4865 52.7281 52.3871 52.8631 52.2896C53.0468 52.1622 53.2156 52.0347 53.3693 51.9072C53.5268 51.7797 53.6524 51.6428 53.7461 51.4966C53.8399 51.3466 53.8868 51.1798 53.8868 50.996C53.8868 50.8798 53.8586 50.7748 53.8024 50.6811C53.7499 50.5836 53.6693 50.5067 53.5605 50.4504C53.4518 50.3942 53.3131 50.3661 53.1443 50.3661C52.9456 50.3661 52.7862 50.3998 52.6663 50.4673C52.5463 50.5348 52.4581 50.6248 52.4019 50.7373C52.3494 50.8498 52.3232 50.9735 52.3232 51.1085V51.3391H51.8338C51.8301 51.3204 51.8263 51.2922 51.8226 51.2547C51.8188 51.2135 51.817 51.1666 51.817 51.1141C51.817 50.8367 51.8788 50.6136 52.0026 50.4448C52.1263 50.2723 52.2913 50.1467 52.4975 50.068C52.7037 49.9855 52.9269 49.9442 53.1668 49.9442C53.3806 49.9442 53.5643 49.9742 53.718 50.0342C53.8718 50.0905 53.9992 50.1692 54.1005 50.2705C54.2017 50.3717 54.2767 50.4879 54.3255 50.6192C54.3742 50.7467 54.3986 50.8817 54.3986 51.0241C54.3986 51.2004 54.3667 51.3616 54.303 51.5078C54.243 51.6541 54.1567 51.7909 54.0442 51.9184C53.9355 52.0422 53.8061 52.1622 53.6562 52.2784C53.5099 52.3946 53.3506 52.5127 53.1781 52.6327C53.0581 52.7115 52.94 52.7958 52.8237 52.8858C52.7075 52.9721 52.6081 53.0602 52.5256 53.1502C52.4431 53.2402 52.3907 53.3264 52.3682 53.4089H54.4211V53.8701H51.772ZM56.9373 53.9376C56.7835 53.9376 56.6636 53.9095 56.5773 53.8532C56.4911 53.7932 56.4292 53.7164 56.3917 53.6226C56.3542 53.5252 56.3355 53.422 56.3355 53.3133V51.3279H55.953V50.9117H56.3467L56.4367 50.0849H56.8304V50.9117H57.3872V51.3279H56.8304V53.2402C56.8304 53.3339 56.8473 53.4052 56.881 53.4539C56.9148 53.4989 56.9785 53.5214 57.0723 53.5214H57.3872V53.8476C57.3497 53.8664 57.3047 53.8814 57.2522 53.8926C57.1998 53.9039 57.1454 53.9132 57.0891 53.9207C57.0366 53.932 56.986 53.9376 56.9373 53.9376ZM59.1301 53.9376C58.8301 53.9376 58.577 53.8832 58.3708 53.7745C58.1683 53.662 58.0127 53.4914 57.904 53.2627C57.799 53.0339 57.7465 52.7434 57.7465 52.3909C57.7465 52.0347 57.799 51.7441 57.904 51.5191C58.0127 51.2904 58.1683 51.1216 58.3708 51.0129C58.577 50.9004 58.8301 50.8442 59.1301 50.8442C59.4301 50.8442 59.6813 50.9004 59.8838 51.0129C60.09 51.1216 60.2456 51.2904 60.3506 51.5191C60.4556 51.7441 60.5081 52.0347 60.5081 52.3909C60.5081 52.7434 60.4556 53.0339 60.3506 53.2627C60.2456 53.4914 60.09 53.662 59.8838 53.7745C59.6813 53.8832 59.4301 53.9376 59.1301 53.9376ZM59.1301 53.5214C59.3213 53.5214 59.4807 53.4839 59.6082 53.4089C59.7357 53.3339 59.8313 53.2177 59.895 53.0602C59.9625 52.899 59.9963 52.6965 59.9963 52.4528V52.329C59.9963 52.0815 59.9625 51.8791 59.895 51.7216C59.8313 51.5641 59.7357 51.4479 59.6082 51.3729C59.4807 51.2979 59.3213 51.2604 59.1301 51.2604C58.9389 51.2604 58.7776 51.2979 58.6464 51.3729C58.5189 51.4479 58.4233 51.5641 58.3596 51.7216C58.2958 51.8791 58.2639 52.0815 58.2639 52.329V52.4528C58.2639 52.6965 58.2958 52.899 58.3596 53.0602C58.4233 53.2177 58.5189 53.3339 58.6464 53.4089C58.7776 53.4839 58.9389 53.5214 59.1301 53.5214ZM63.3389 53.9376C63.0801 53.9376 62.857 53.8964 62.6696 53.8139C62.4858 53.7276 62.3452 53.6039 62.2477 53.4427C62.154 53.2777 62.1071 53.0714 62.1071 52.824V52.6552H62.6414V52.8521C62.6414 53.0546 62.7014 53.2102 62.8214 53.3189C62.9414 53.4239 63.1139 53.4764 63.3389 53.4764C63.5676 53.4764 63.742 53.4033 63.8619 53.2571C63.9857 53.1108 64.0476 52.8933 64.0476 52.6046V50.0117H64.5819V52.5765C64.5819 52.8802 64.5331 53.1333 64.4356 53.3358C64.3382 53.5383 64.1957 53.6901 64.0082 53.7914C63.8245 53.8889 63.6013 53.9376 63.3389 53.9376ZM66.3569 53.9376C66.0719 53.9376 65.8432 53.8645 65.6707 53.7183C65.4983 53.572 65.412 53.317 65.412 52.9533V50.9117H65.907V52.8858C65.907 53.0096 65.922 53.1108 65.952 53.1896C65.982 53.2683 66.0251 53.3302 66.0813 53.3752C66.1376 53.4202 66.2032 53.452 66.2782 53.4708C66.3569 53.4895 66.4413 53.4989 66.5313 53.4989C66.6738 53.4989 66.805 53.4652 66.925 53.3977C67.045 53.3302 67.1425 53.2327 67.2175 53.1052C67.2962 52.974 67.3356 52.8221 67.3356 52.6496V50.9117H67.8305V53.8701H67.4312L67.3862 53.4258H67.3468C67.2681 53.5458 67.1781 53.6433 67.0769 53.7183C66.9794 53.7932 66.8687 53.8476 66.745 53.8814C66.625 53.9189 66.4957 53.9376 66.3569 53.9376ZM68.5984 53.8701V49.8036H69.0934V53.8701H68.5984ZM70.1148 54.8938C70.0248 54.8938 69.9461 54.8863 69.8786 54.8713C69.8148 54.86 69.7717 54.8525 69.7492 54.8488V54.4888H69.9967C70.0867 54.4888 70.1748 54.4701 70.261 54.4326C70.3473 54.3951 70.4279 54.3313 70.5029 54.2413C70.5779 54.1513 70.6416 54.0276 70.6941 53.8701L69.5467 50.9117H70.0642L70.6547 52.4359C70.681 52.5071 70.711 52.5952 70.7447 52.7002C70.7822 52.8015 70.8179 52.9065 70.8516 53.0152C70.8891 53.1239 70.9191 53.2196 70.9416 53.302H70.9753C70.9903 53.2421 71.0091 53.1746 71.0316 53.0996C71.0541 53.0246 71.0766 52.9477 71.0991 52.869C71.1253 52.7865 71.1497 52.7096 71.1722 52.6384C71.1984 52.5634 71.2191 52.4978 71.2341 52.4415L71.7346 50.9117H72.2352L71.2341 53.7858C71.1778 53.947 71.116 54.0951 71.0485 54.2301C70.981 54.3688 70.906 54.4869 70.8235 54.5844C70.741 54.6819 70.6416 54.7569 70.5254 54.8094C70.4091 54.8656 70.2723 54.8938 70.1148 54.8938ZM72.0766 54.6969V54.4663C72.1478 54.4513 72.2059 54.4157 72.2509 54.3594C72.2997 54.3032 72.3353 54.232 72.3578 54.1457C72.3803 54.0632 72.3915 53.9714 72.3915 53.8701H72.1328V53.2795H72.6784V53.8082C72.6784 54.0257 72.6465 54.1945 72.5828 54.3144C72.5228 54.4382 72.4459 54.5282 72.3522 54.5844C72.2622 54.6407 72.1703 54.6782 72.0766 54.6969ZM73.4733 53.8701V53.707C73.4733 53.5495 73.5033 53.4052 73.5633 53.2739C73.6271 53.1389 73.7096 53.0171 73.8108 52.9083C73.9158 52.7958 74.0339 52.689 74.1652 52.5877C74.2964 52.4865 74.4295 52.3871 74.5645 52.2896C74.7482 52.1622 74.917 52.0347 75.0707 51.9072C75.2282 51.7797 75.3538 51.6428 75.4475 51.4966C75.5413 51.3466 75.5881 51.1798 75.5881 50.996C75.5881 50.8798 75.56 50.7748 75.5038 50.6811C75.4513 50.5836 75.3707 50.5067 75.2619 50.4504C75.1532 50.3942 75.0144 50.3661 74.8457 50.3661C74.647 50.3661 74.4876 50.3998 74.3676 50.4673C74.2476 50.5348 74.1595 50.6248 74.1033 50.7373C74.0508 50.8498 74.0245 50.9735 74.0245 51.1085V51.3391H73.5352C73.5315 51.3204 73.5277 51.2922 73.524 51.2547C73.5202 51.2135 73.5183 51.1666 73.5183 51.1141C73.5183 50.8367 73.5802 50.6136 73.7039 50.4448C73.8277 50.2723 73.9927 50.1467 74.1989 50.068C74.4051 49.9855 74.6282 49.9442 74.8682 49.9442C75.0819 49.9442 75.2657 49.9742 75.4194 50.0342C75.5731 50.0905 75.7006 50.1692 75.8019 50.2705C75.9031 50.3717 75.9781 50.4879 76.0268 50.6192C76.0756 50.7467 76.1 50.8817 76.1 51.0241C76.1 51.2004 76.0681 51.3616 76.0044 51.5078C75.9444 51.6541 75.8581 51.7909 75.7456 51.9184C75.6369 52.0422 75.5075 52.1622 75.3575 52.2784C75.2113 52.3946 75.0519 52.5127 74.8795 52.6327C74.7595 52.7115 74.6414 52.7958 74.5251 52.8858C74.4089 52.9721 74.3095 53.0602 74.227 53.1502C74.1445 53.2402 74.092 53.3264 74.0695 53.4089H76.1225V53.8701H73.4733ZM77.9976 53.9376C77.7876 53.9376 77.6001 53.9076 77.4351 53.8476C77.2701 53.7839 77.1295 53.677 77.0133 53.527C76.897 53.3733 76.8089 53.1689 76.7489 52.914C76.6889 52.6552 76.6589 52.3309 76.6589 51.9409C76.6589 51.551 76.6889 51.2285 76.7489 50.9735C76.8089 50.7148 76.897 50.5104 77.0133 50.3605C77.1295 50.2067 77.2701 50.0999 77.4351 50.0399C77.6001 49.9761 77.7876 49.9442 77.9976 49.9442C78.2075 49.9442 78.3932 49.9761 78.5544 50.0399C78.7194 50.0999 78.86 50.2067 78.9762 50.3605C79.0925 50.5104 79.1806 50.7148 79.2406 50.9735C79.3006 51.2285 79.3306 51.551 79.3306 51.9409C79.3306 52.3309 79.3006 52.6552 79.2406 52.914C79.1806 53.1689 79.0925 53.3733 78.9762 53.527C78.86 53.677 78.7194 53.7839 78.5544 53.8476C78.3932 53.9076 78.2075 53.9376 77.9976 53.9376ZM77.9976 53.5214C78.2113 53.5214 78.3763 53.467 78.4925 53.3583C78.6125 53.2496 78.695 53.0883 78.74 52.8746C78.7887 52.6609 78.8131 52.3946 78.8131 52.0759V51.8172C78.8131 51.4947 78.7887 51.2266 78.74 51.0129C78.695 50.7954 78.6125 50.6323 78.4925 50.5236C78.3763 50.4148 78.2113 50.3605 77.9976 50.3605C77.7838 50.3605 77.617 50.4148 77.497 50.5236C77.377 50.6323 77.2926 50.7935 77.2439 51.0073C77.1989 51.221 77.1764 51.4891 77.1764 51.8116V52.0647C77.1764 52.3834 77.1989 52.6515 77.2439 52.869C77.2926 53.0864 77.377 53.2496 77.497 53.3583C77.617 53.467 77.7838 53.5214 77.9976 53.5214ZM79.8887 53.8701V53.707C79.8887 53.5495 79.9187 53.4052 79.9787 53.2739C80.0425 53.1389 80.125 53.0171 80.2262 52.9083C80.3312 52.7958 80.4493 52.689 80.5806 52.5877C80.7118 52.4865 80.8449 52.3871 80.9799 52.2896C81.1636 52.1622 81.3324 52.0347 81.4861 51.9072C81.6436 51.7797 81.7692 51.6428 81.8629 51.4966C81.9567 51.3466 82.0035 51.1798 82.0035 50.996C82.0035 50.8798 81.9754 50.7748 81.9192 50.6811C81.8667 50.5836 81.7861 50.5067 81.6773 50.4504C81.5686 50.3942 81.4298 50.3661 81.2611 50.3661C81.0624 50.3661 80.903 50.3998 80.783 50.4673C80.663 50.5348 80.5749 50.6248 80.5187 50.7373C80.4662 50.8498 80.4399 50.9735 80.4399 51.1085V51.3391H79.9506C79.9469 51.3204 79.9431 51.2922 79.9394 51.2547C79.9356 51.2135 79.9337 51.1666 79.9337 51.1141C79.9337 50.8367 79.9956 50.6136 80.1193 50.4448C80.2431 50.2723 80.4081 50.1467 80.6143 50.068C80.8205 49.9855 81.0436 49.9442 81.2836 49.9442C81.4973 49.9442 81.6811 49.9742 81.8348 50.0342C81.9885 50.0905 82.116 50.1692 82.2173 50.2705C82.3185 50.3717 82.3935 50.4879 82.4422 50.6192C82.491 50.7467 82.5154 50.8817 82.5154 51.0241C82.5154 51.2004 82.4835 51.3616 82.4197 51.5078C82.3598 51.6541 82.2735 51.7909 82.161 51.9184C82.0523 52.0422 81.9229 52.1622 81.7729 52.2784C81.6267 52.3946 81.4673 52.5127 81.2949 52.6327C81.1749 52.7115 81.0568 52.7958 80.9405 52.8858C80.8243 52.9721 80.7249 53.0602 80.6424 53.1502C80.5599 53.2402 80.5074 53.3264 80.4849 53.4089H82.5379V53.8701H79.8887ZM83.08 53.8701V53.707C83.08 53.5495 83.11 53.4052 83.17 53.2739C83.2337 53.1389 83.3162 53.0171 83.4174 52.9083C83.5224 52.7958 83.6405 52.689 83.7718 52.5877C83.903 52.4865 84.0361 52.3871 84.1711 52.2896C84.3548 52.1622 84.5236 52.0347 84.6773 51.9072C84.8348 51.7797 84.9604 51.6428 85.0541 51.4966C85.1479 51.3466 85.1948 51.1798 85.1948 50.996C85.1948 50.8798 85.1666 50.7748 85.1104 50.6811C85.0579 50.5836 84.9773 50.5067 84.8685 50.4504C84.7598 50.3942 84.6211 50.3661 84.4523 50.3661C84.2536 50.3661 84.0942 50.3998 83.9742 50.4673C83.8543 50.5348 83.7661 50.6248 83.7099 50.7373C83.6574 50.8498 83.6312 50.9735 83.6312 51.1085V51.3391H83.1418C83.1381 51.3204 83.1343 51.2922 83.1306 51.2547C83.1268 51.2135 83.125 51.1666 83.125 51.1141C83.125 50.8367 83.1868 50.6136 83.3106 50.4448C83.4343 50.2723 83.5993 50.1467 83.8055 50.068C84.0117 49.9855 84.2348 49.9442 84.4748 49.9442C84.6886 49.9442 84.8723 49.9742 85.026 50.0342C85.1798 50.0905 85.3072 50.1692 85.4085 50.2705C85.5097 50.3717 85.5847 50.4879 85.6335 50.6192C85.6822 50.7467 85.7066 50.8817 85.7066 51.0241C85.7066 51.2004 85.6747 51.3616 85.611 51.5078C85.551 51.6541 85.4647 51.7909 85.3522 51.9184C85.2435 52.0422 85.1141 52.1622 84.9642 52.2784C84.8179 52.3946 84.6586 52.5127 84.4861 52.6327C84.3661 52.7115 84.248 52.7958 84.1317 52.8858C84.0155 52.9721 83.9161 53.0602 83.8336 53.1502C83.7511 53.2402 83.6986 53.3264 83.6762 53.4089H85.7291V53.8701H83.08Z" fill="white"/>
<path fill-rule="evenodd" clip-rule="evenodd" d="M8.87891 99.6567L15.2868 85.4196L22.2828 80.3918H28.3731L35.4868 76.6873L38.5153 69.9804L43.4181 76.6873L45.7241 84.8185L52.9329 80.3918L56.5374 73.1367L59.7413 80.3918L66.1304 73.1367L71.4995 69.9804L73.7585 76.6873L77.8923 79.2643H84.5217L89.0022 73.1367L94.3447 69.9804L101.651 65.1064L107.4 68.2099L112.049 69.9804L119.935 73.1367L123.164 69.9804L130.854 73.1367V68.2099L137.036 69.9804V99.6567H8.87891Z" fill="url(#paint0_linear_3671_15658)"/>
<path d="M8.87891 99.6567L15.2868 85.4196L22.2828 80.3918H28.3731L35.4868 76.6873L38.5153 69.9804L43.4181 76.6873L45.7241 84.8185L52.9329 80.3918L56.5374 73.1367L59.7413 80.3918L66.1304 73.1367L71.4995 69.9804L73.7585 76.6873L77.8923 79.2643H84.5217L89.0022 73.1367L94.3447 69.9804L101.651 65.1064L107.4 68.2099L112.049 69.9804L119.935 73.1367L123.164 69.9804L130.854 73.1367V68.2099L137.036 69.9804" stroke="#3B82F6" stroke-width="0.401747" stroke-linecap="square"/>
<defs>
<linearGradient id="paint0_linear_3671_15658" x1="8.87891" y1="65.1064" x2="8.87891" y2="99.6567" gradientUnits="userSpaceOnUse">
<stop stop-color="#68A1FD"/>
<stop offset="1" stop-color="#3B82F6" stop-opacity="0"/>
</linearGradient>
</defs>
</svg>
