<svg width="176" height="64" viewBox="0 0 176 64" fill="none" xmlns="http://www.w3.org/2000/svg">
<rect x="0.3125" y="0.0078125" width="174.828" height="63.476" rx="5.37932" fill="#233443"/>
<rect x="161.148" y="38.2012" width="8.60691" height="148.469" rx="4.30346" transform="rotate(90 161.148 38.2012)" fill="#EFF2FB"/>
<rect x="137.297" y="38.2012" width="8.60691" height="124.608" rx="4.30346" transform="rotate(90 137.297 38.2012)" fill="url(#paint0_linear_3671_15692)"/>
<path d="M21.3697 8.29618V15.7734H20.1432V10.6523L17.8624 15.7734H17.0125L14.7209 10.6523V15.7734H13.4944V8.29618H14.8177L17.4428 14.1596L20.0572 8.29618H21.3697ZM22.5729 12.7825C22.5729 12.1872 22.6949 11.66 22.9387 11.201C23.1898 10.742 23.5269 10.3869 23.95 10.1359C24.3804 9.8777 24.8538 9.7486 25.3702 9.7486C25.8364 9.7486 26.2416 9.84184 26.5859 10.0283C26.9373 10.2076 27.2171 10.4336 27.4251 10.7061V9.84543H28.6623V15.7734H27.4251V14.8912C27.2171 15.171 26.9338 15.4041 26.5751 15.5905C26.2165 15.777 25.8077 15.8703 25.3487 15.8703C24.8394 15.8703 24.3732 15.7412 23.95 15.483C23.5269 15.2176 23.1898 14.8518 22.9387 14.3856C22.6949 13.9122 22.5729 13.3778 22.5729 12.7825ZM27.4251 12.8041C27.4251 12.3952 27.339 12.0402 27.1669 11.7389C27.0019 11.4377 26.7831 11.2082 26.5106 11.0504C26.238 10.8926 25.944 10.8137 25.6284 10.8137C25.3128 10.8137 25.0187 10.8926 24.7462 11.0504C24.4736 11.201 24.2513 11.4269 24.0791 11.7282C23.9142 12.0223 23.8317 12.3737 23.8317 12.7825C23.8317 13.1914 23.9142 13.55 24.0791 13.8584C24.2513 14.1668 24.4736 14.4035 24.7462 14.5685C25.0259 14.7263 25.32 14.8052 25.6284 14.8052C25.944 14.8052 26.238 14.7263 26.5106 14.5685C26.7831 14.4107 27.0019 14.1812 27.1669 13.8799C27.339 13.5715 27.4251 13.2129 27.4251 12.8041ZM31.4997 10.7061C31.6791 10.4049 31.9157 10.1718 32.2098 10.0068C32.5111 9.83467 32.8661 9.7486 33.2749 9.7486V11.0181H32.9629C32.4824 11.0181 32.1166 11.14 31.8655 11.3839C31.6217 11.6278 31.4997 12.0509 31.4997 12.6534V15.7734H30.2733V9.84543H31.4997V10.7061ZM36.7477 12.8148L39.4804 15.7734H37.8236L35.6288 13.2236V15.7734H34.4023V7.81204H35.6288V12.4383L37.7805 9.84543H39.4804L36.7477 12.8148ZM45.7926 12.6642C45.7926 12.8865 45.7783 13.0874 45.7496 13.2667H41.2202C41.256 13.7401 41.4318 14.1202 41.7473 14.4071C42.0629 14.694 42.4502 14.8374 42.9093 14.8374C43.5691 14.8374 44.0354 14.5613 44.3079 14.009H45.6312C45.4519 14.5541 45.1256 15.0024 44.6522 15.3539C44.186 15.6981 43.605 15.8703 42.9093 15.8703C42.3427 15.8703 41.8334 15.7447 41.3816 15.4937C40.9369 15.2355 40.5854 14.8769 40.3272 14.4178C40.0762 13.9516 39.9507 13.4137 39.9507 12.8041C39.9507 12.1944 40.0726 11.66 40.3164 11.201C40.5675 10.7348 40.9153 10.3762 41.36 10.1251C41.8119 9.87412 42.3283 9.7486 42.9093 9.7486C43.4687 9.7486 43.9672 9.87053 44.4047 10.1144C44.8423 10.3583 45.1829 10.7025 45.4268 11.1472C45.6707 11.5847 45.7926 12.0904 45.7926 12.6642ZM44.5123 12.2769C44.5051 11.825 44.3438 11.4628 44.0282 11.1903C43.7126 10.9177 43.3217 10.7814 42.8555 10.7814C42.4323 10.7814 42.0701 10.9177 41.7689 11.1903C41.4676 11.4556 41.2883 11.8178 41.2309 12.2769H44.5123ZM48.4305 10.846V14.1274C48.4305 14.3497 48.4807 14.5111 48.5811 14.6115C48.6887 14.7047 48.868 14.7514 49.119 14.7514H49.8721V15.7734H48.9039C48.3516 15.7734 47.9284 15.6443 47.6343 15.3861C47.3403 15.1279 47.1932 14.7083 47.1932 14.1274V10.846H46.4939V9.84543H47.1932V8.37149H48.4305V9.84543H49.8721V10.846H48.4305ZM58.8836 14.6761L60.5619 9.84543H61.8637L59.6044 15.7734H58.1412L55.8927 9.84543H57.2052L58.8836 14.6761ZM62.382 12.7825C62.382 12.1872 62.5039 11.66 62.7478 11.201C62.9988 10.742 63.3359 10.3869 63.7591 10.1359C64.1895 9.8777 64.6628 9.7486 65.1792 9.7486C65.6455 9.7486 66.0507 9.84184 66.395 10.0283C66.7464 10.2076 67.0261 10.4336 67.2342 10.7061V9.84543H68.4714V15.7734H67.2342V14.8912C67.0261 15.171 66.7428 15.4041 66.3842 15.5905C66.0256 15.777 65.6168 15.8703 65.1577 15.8703C64.6485 15.8703 64.1823 15.7412 63.7591 15.483C63.3359 15.2176 62.9988 14.8518 62.7478 14.3856C62.5039 13.9122 62.382 13.3778 62.382 12.7825ZM67.2342 12.8041C67.2342 12.3952 67.1481 12.0402 66.9759 11.7389C66.811 11.4377 66.5922 11.2082 66.3197 11.0504C66.0471 10.8926 65.753 10.8137 65.4375 10.8137C65.1219 10.8137 64.8278 10.8926 64.5552 11.0504C64.2827 11.201 64.0604 11.4269 63.8882 11.7282C63.7232 12.0223 63.6408 12.3737 63.6408 12.7825C63.6408 13.1914 63.7232 13.55 63.8882 13.8584C64.0604 14.1668 64.2827 14.4035 64.5552 14.5685C64.835 14.7263 65.129 14.8052 65.4375 14.8052C65.753 14.8052 66.0471 14.7263 66.3197 14.5685C66.5922 14.4107 66.811 14.1812 66.9759 13.8799C67.1481 13.5715 67.2342 13.2129 67.2342 12.8041ZM71.3088 7.81204V15.7734H70.0823V7.81204H71.3088ZM78.2876 9.84543V15.7734H77.0612V15.0741C76.8675 15.318 76.6129 15.5116 76.2973 15.6551C75.9889 15.7914 75.659 15.8595 75.3075 15.8595C74.8413 15.8595 74.4217 15.7627 74.0487 15.569C73.6829 15.3754 73.3925 15.0885 73.1773 14.7083C72.9693 14.3282 72.8653 13.8692 72.8653 13.3312V9.84543H74.081V13.1483C74.081 13.6791 74.2137 14.0879 74.4791 14.3748C74.7445 14.6545 75.1067 14.7944 75.5657 14.7944C76.0247 14.7944 76.387 14.6545 76.6523 14.3748C76.9249 14.0879 77.0612 13.6791 77.0612 13.1483V9.84543H78.2876ZM85.339 12.6642C85.339 12.8865 85.3247 13.0874 85.296 13.2667H80.7666C80.8025 13.7401 80.9782 14.1202 81.2938 14.4071C81.6093 14.694 81.9967 14.8374 82.4557 14.8374C83.1156 14.8374 83.5818 14.5613 83.8543 14.009H85.1776C84.9983 14.5541 84.672 15.0024 84.1986 15.3539C83.7324 15.6981 83.1514 15.8703 82.4557 15.8703C81.8891 15.8703 81.3798 15.7447 80.928 15.4937C80.4833 15.2355 80.1318 14.8769 79.8736 14.4178C79.6226 13.9516 79.4971 13.4137 79.4971 12.8041C79.4971 12.1944 79.619 11.66 79.8629 11.201C80.1139 10.7348 80.4618 10.3762 80.9065 10.1251C81.3583 9.87412 81.8747 9.7486 82.4557 9.7486C83.0151 9.7486 83.5136 9.87053 83.9511 10.1144C84.3887 10.3583 84.7294 10.7025 84.9732 11.1472C85.2171 11.5847 85.339 12.0904 85.339 12.6642ZM84.0587 12.2769C84.0516 11.825 83.8902 11.4628 83.5746 11.1903C83.259 10.9177 82.8681 10.7814 82.4019 10.7814C81.9787 10.7814 81.6165 10.9177 81.3153 11.1903C81.014 11.4556 80.8347 11.8178 80.7773 12.2769H84.0587Z" fill="#ABAEB7"/>
<path d="M18.4294 26.2474C18.4294 26.6024 18.3358 26.9316 18.1486 27.235C17.9678 27.532 17.6967 27.7772 17.3352 27.9709C16.9802 28.1581 16.5574 28.2614 16.0668 28.2808V29.0651H15.4471V28.2711C14.7628 28.213 14.2109 28.0096 13.7913 27.6611C13.3717 27.306 13.149 26.8251 13.1232 26.2183H14.8855C14.9242 26.6056 15.1114 26.8542 15.4471 26.9639V25.434C14.9436 25.3049 14.5401 25.179 14.2367 25.0564C13.9398 24.9337 13.6784 24.7369 13.4524 24.4657C13.2265 24.1946 13.1135 23.8234 13.1135 23.3522C13.1135 22.7648 13.3298 22.2936 13.7623 21.9385C14.2012 21.5835 14.7628 21.3834 15.4471 21.3382V20.5539H16.0668V21.3382C16.7446 21.3898 17.2804 21.5867 17.6741 21.9289C18.0679 22.271 18.2874 22.7454 18.3326 23.3522H16.5606C16.5219 23.0036 16.3573 22.7777 16.0668 22.6744V24.1753C16.6026 24.3237 17.0157 24.4561 17.3062 24.5722C17.5967 24.6884 17.8549 24.8821 18.0808 25.1532C18.3132 25.4179 18.4294 25.7826 18.4294 26.2474ZM14.8661 23.2748C14.8661 23.4361 14.9145 23.5717 15.0114 23.6814C15.1146 23.7912 15.2599 23.888 15.4471 23.9719V22.626C15.2663 22.6583 15.1243 22.7293 15.021 22.839C14.9178 22.9423 14.8661 23.0876 14.8661 23.2748ZM16.0668 26.9929C16.2604 26.9607 16.4121 26.8832 16.5219 26.7606C16.6381 26.6379 16.6962 26.4862 16.6962 26.3055C16.6962 26.1376 16.6413 26.0021 16.5316 25.8988C16.4283 25.7891 16.2734 25.6955 16.0668 25.618V26.9929ZM20.6584 24.427C20.0516 24.1042 19.7482 23.5975 19.7482 22.9068C19.7482 22.5582 19.8386 22.2419 20.0193 21.9579C20.2001 21.6674 20.4744 21.4383 20.8424 21.2704C21.2103 21.0961 21.6622 21.009 22.198 21.009C22.7337 21.009 23.1824 21.0961 23.5439 21.2704C23.9118 21.4383 24.1862 21.6674 24.3669 21.9579C24.5476 22.2419 24.638 22.5582 24.638 22.9068C24.638 23.2554 24.5541 23.5588 24.3863 23.817C24.2249 24.0752 24.0054 24.2785 23.7278 24.427C24.0764 24.5948 24.3443 24.8272 24.5315 25.1242C24.7187 25.4147 24.8123 25.7568 24.8123 26.1505C24.8123 26.6089 24.6961 27.0059 24.4637 27.3415C24.2313 27.6707 23.915 27.9225 23.5148 28.0968C23.121 28.2711 22.6821 28.3582 22.198 28.3582C21.7138 28.3582 21.2716 28.2711 20.8714 28.0968C20.4776 27.9225 20.1646 27.6707 19.9322 27.3415C19.6998 27.0059 19.5836 26.6089 19.5836 26.1505C19.5836 25.7503 19.6772 25.405 19.8644 25.1145C20.0516 24.8175 20.3163 24.5884 20.6584 24.427ZM23.0307 23.1586C23.0307 22.8939 22.9532 22.6906 22.7983 22.5485C22.6498 22.4001 22.4497 22.3258 22.198 22.3258C21.9462 22.3258 21.7429 22.4001 21.5879 22.5485C21.4395 22.697 21.3652 22.9036 21.3652 23.1682C21.3652 23.42 21.4427 23.6201 21.5976 23.7686C21.7525 23.9106 21.9527 23.9816 22.198 23.9816C22.4433 23.9816 22.6434 23.9074 22.7983 23.7589C22.9532 23.6104 23.0307 23.4103 23.0307 23.1586ZM22.198 25.1435C21.8946 25.1435 21.6493 25.2275 21.4621 25.3953C21.2749 25.5567 21.1813 25.7826 21.1813 26.0731C21.1813 26.3442 21.2716 26.5669 21.4524 26.7412C21.6396 26.9155 21.8881 27.0026 22.198 27.0026C22.5078 27.0026 22.7499 26.9155 22.9242 26.7412C23.1049 26.5669 23.1953 26.3442 23.1953 26.0731C23.1953 25.7891 23.1017 25.5631 22.9145 25.3953C22.7337 25.2275 22.4949 25.1435 22.198 25.1435ZM27.5568 26.1505C27.6536 26.6605 27.9505 26.9155 28.4476 26.9155C28.7897 26.9155 29.0318 26.7638 29.1738 26.4604C29.3158 26.157 29.3868 25.6632 29.3868 24.9789C29.2448 25.179 29.0511 25.334 28.8058 25.4437C28.5605 25.5534 28.2862 25.6083 27.9828 25.6083C27.5697 25.6083 27.2017 25.5244 26.879 25.3566C26.5562 25.1823 26.3012 24.9273 26.114 24.5916C25.9333 24.2495 25.8429 23.8364 25.8429 23.3522C25.8429 22.8745 25.9397 22.4582 26.1334 22.1031C26.3335 21.7481 26.6143 21.4738 26.9758 21.2801C27.3437 21.0864 27.7762 20.9896 28.2733 20.9896C29.2287 20.9896 29.8968 21.2866 30.2776 21.8804C30.6585 22.4743 30.8489 23.349 30.8489 24.5045C30.8489 25.3436 30.7714 26.0376 30.6165 26.5863C30.4681 27.1285 30.2131 27.5416 29.8516 27.8257C29.4966 28.1097 29.0092 28.2517 28.3895 28.2517C27.8989 28.2517 27.4793 28.1549 27.1307 27.9612C26.7886 27.7676 26.5239 27.5126 26.3367 27.1963C26.156 26.88 26.0527 26.5314 26.0269 26.1505H27.5568ZM28.3604 24.3011C28.6316 24.3011 28.8478 24.2204 29.0092 24.0591C29.1706 23.8912 29.2513 23.6653 29.2513 23.3813C29.2513 23.0714 29.1673 22.8326 28.9995 22.6647C28.8317 22.4969 28.6057 22.413 28.3217 22.413C28.0377 22.413 27.8117 22.5001 27.6439 22.6744C27.4825 22.8423 27.4018 23.0746 27.4018 23.3716C27.4018 23.6492 27.4825 23.8751 27.6439 24.0494C27.8117 24.2172 28.0506 24.3011 28.3604 24.3011ZM31.7323 24.5916C31.7323 23.4813 31.9453 22.6066 32.3714 21.9676C32.8039 21.3285 33.4978 21.009 34.4532 21.009C35.4085 21.009 36.0992 21.3285 36.5253 21.9676C36.9578 22.6066 37.174 23.4813 37.174 24.5916C37.174 25.7148 36.9578 26.5959 36.5253 27.235C36.0992 27.8741 35.4085 28.1936 34.4532 28.1936C33.4978 28.1936 32.8039 27.8741 32.3714 27.235C31.9453 26.5959 31.7323 25.7148 31.7323 24.5916ZM35.5473 24.5916C35.5473 23.9396 35.4763 23.4394 35.3343 23.0908C35.1923 22.7357 34.8986 22.5582 34.4532 22.5582C34.0078 22.5582 33.7141 22.7357 33.572 23.0908C33.43 23.4394 33.359 23.9396 33.359 24.5916C33.359 25.0306 33.3848 25.3953 33.4365 25.6858C33.4881 25.9698 33.5914 26.2022 33.7463 26.3829C33.9077 26.5572 34.1433 26.6444 34.4532 26.6444C34.763 26.6444 34.9954 26.5572 35.1503 26.3829C35.3117 26.2022 35.4182 25.9698 35.4699 25.6858C35.5215 25.3953 35.5473 25.0306 35.5473 24.5916ZM38.0488 24.5916C38.0488 23.4813 38.2618 22.6066 38.6879 21.9676C39.1204 21.3285 39.8143 21.009 40.7697 21.009C41.725 21.009 42.4157 21.3285 42.8418 21.9676C43.2743 22.6066 43.4905 23.4813 43.4905 24.5916C43.4905 25.7148 43.2743 26.5959 42.8418 27.235C42.4157 27.8741 41.725 28.1936 40.7697 28.1936C39.8143 28.1936 39.1204 27.8741 38.6879 27.235C38.2618 26.5959 38.0488 25.7148 38.0488 24.5916ZM41.8638 24.5916C41.8638 23.9396 41.7928 23.4394 41.6508 23.0908C41.5088 22.7357 41.2151 22.5582 40.7697 22.5582C40.3243 22.5582 40.0306 22.7357 39.8885 23.0908C39.7465 23.4394 39.6755 23.9396 39.6755 24.5916C39.6755 25.0306 39.7013 25.3953 39.753 25.6858C39.8046 25.9698 39.9079 26.2022 40.0628 26.3829C40.2242 26.5572 40.4598 26.6444 40.7697 26.6444C41.0795 26.6444 41.3119 26.5572 41.4668 26.3829C41.6282 26.2022 41.7347 25.9698 41.7864 25.6858C41.838 25.3953 41.8638 25.0306 41.8638 24.5916ZM45.3045 28.3001C45.0141 28.3001 44.7752 28.2162 44.588 28.0484C44.4073 27.8741 44.3169 27.6611 44.3169 27.4093C44.3169 27.1511 44.4073 26.9348 44.588 26.7606C44.7752 26.5863 45.0141 26.4991 45.3045 26.4991C45.5886 26.4991 45.821 26.5863 46.0017 26.7606C46.1889 26.9348 46.2825 27.1511 46.2825 27.4093C46.2825 27.6611 46.1889 27.8741 46.0017 28.0484C45.821 28.2162 45.5886 28.3001 45.3045 28.3001ZM51.6102 22.3936L49.1798 28.2227H47.4854L49.9448 22.5776H46.9334V21.1639H51.6102V22.3936ZM52.2798 24.5916C52.2798 23.4813 52.4929 22.6066 52.9189 21.9676C53.3514 21.3285 54.0453 21.009 55.0007 21.009C55.9561 21.009 56.6468 21.3285 57.0728 21.9676C57.5053 22.6066 57.7216 23.4813 57.7216 24.5916C57.7216 25.7148 57.5053 26.5959 57.0728 27.235C56.6468 27.8741 55.9561 28.1936 55.0007 28.1936C54.0453 28.1936 53.3514 27.8741 52.9189 27.235C52.4929 26.5959 52.2798 25.7148 52.2798 24.5916ZM56.0949 24.5916C56.0949 23.9396 56.0239 23.4394 55.8818 23.0908C55.7398 22.7357 55.4461 22.5582 55.0007 22.5582C54.5553 22.5582 54.2616 22.7357 54.1196 23.0908C53.9776 23.4394 53.9066 23.9396 53.9066 24.5916C53.9066 25.0306 53.9324 25.3953 53.984 25.6858C54.0357 25.9698 54.1389 26.2022 54.2939 26.3829C54.4552 26.5572 54.6909 26.6444 55.0007 26.6444C55.3106 26.6444 55.5429 26.5572 55.6979 26.3829C55.8592 26.2022 55.9658 25.9698 56.0174 25.6858C56.069 25.3953 56.0949 25.0306 56.0949 24.5916Z" fill="white"/>
<defs>
<linearGradient id="paint0_linear_3671_15692" x1="141.6" y1="38.2012" x2="141.6" y2="162.809" gradientUnits="userSpaceOnUse">
<stop stop-color="#2D55B4"/>
<stop offset="1" stop-color="#CAD7FF"/>
</linearGradient>
</defs>
</svg>
