<svg width="21" height="15" viewBox="0 0 21 15" fill="none" xmlns="http://www.w3.org/2000/svg">
<g clip-path="url(#clip0_3736_16903)">
<path d="M12.7798 1.22842C12.6107 1.40048 12.5159 1.63212 12.5159 1.87342C12.5159 2.11472 12.6107 2.34636 12.7798 2.51842L17.0298 6.79842H0.929849C0.801654 6.785 0.672069 6.79867 0.549494 6.83854C0.42692 6.87841 0.314091 6.94359 0.21832 7.02986C0.12255 7.11612 0.0459762 7.22155 -0.00643817 7.33931C-0.0588525 7.45707 -0.0859375 7.58453 -0.0859375 7.71342C-0.0859375 7.84232 -0.0588525 7.96977 -0.00643817 8.08753C0.0459762 8.20529 0.12255 8.31072 0.21832 8.39699C0.314091 8.48325 0.42692 8.54844 0.549494 8.5883C0.672069 8.62817 0.801654 8.64184 0.929849 8.62842H17.0298L12.7698 12.9684C12.603 13.1417 12.5098 13.3729 12.5098 13.6134C12.5098 13.854 12.603 14.0851 12.7698 14.2584C12.8525 14.3413 12.9507 14.407 13.0588 14.4518C13.1669 14.4967 13.2828 14.5198 13.3998 14.5198C13.5169 14.5198 13.6328 14.4967 13.7409 14.4518C13.849 14.407 13.9472 14.3413 14.0298 14.2584L19.7698 8.36842C19.8478 8.2822 19.912 8.18436 19.9598 8.07842C20.008 7.96812 20.0319 7.84876 20.0298 7.72842C20.0308 7.60988 20.0083 7.49231 19.9637 7.38248C19.9191 7.27265 19.8532 7.17272 19.7698 7.08842L14.0298 1.24842C13.8712 1.0861 13.6566 0.99051 13.4298 0.981216C13.203 0.971922 12.9812 1.04962 12.8098 1.19842L12.7798 1.22842Z" fill="white"/>
</g>
<defs>
<clipPath id="clip0_3736_16903">
<rect width="20" height="13.5" fill="white" transform="translate(0.03125 0.96875)"/>
</clipPath>
</defs>
</svg>
