<svg width="1440" height="957" viewBox="0 0 1440 957" fill="none" xmlns="http://www.w3.org/2000/svg">
<path d="M1440 0H0V957H1440V0Z" fill="url(#paint0_radial_3618_15478)"/>
<mask id="mask0_3618_15478" style="mask-type:luminance" maskUnits="userSpaceOnUse" x="0" y="0" width="1440" height="957">
<path d="M1440 0H0V956.667H1440V0Z" fill="white"/>
</mask>
<g mask="url(#mask0_3618_15478)">
<g style="mix-blend-mode:overlay">
<path d="M1254.86 806.656H1117.23C1111.09 806.656 1108.53 808.583 1111.56 810.941L1193.09 874.819C1199.57 878.864 1207.05 881.027 1214.69 881.064H1383.33C1390.79 881.064 1391.96 878.24 1385.96 874.819L1273.66 810.941C1267.78 808.177 1261.36 806.715 1254.86 806.656Z" fill="#B5B5B5"/>
</g>
<g style="mix-blend-mode:overlay">
<path d="M437.497 694.448H224.564C215.486 694.378 206.464 695.873 197.897 698.866L37.0306 773.074C27.3972 777.525 29.9972 781.278 43.3306 781.278H340.497C353.831 781.278 368.464 777.525 373.097 773.074L449.997 698.866C452.664 696.407 446.964 694.448 437.497 694.448Z" fill="#B5B5B5"/>
</g>
<g style="mix-blend-mode:overlay">
<path d="M587.097 666.079H467.531C463.354 665.835 459.177 666.563 455.331 668.205L418.664 699.297C416.764 700.925 420.364 702.253 426.664 702.253H568.997C575.331 702.253 581.097 700.925 581.831 699.297L595.797 668.205C596.331 667.043 592.397 666.079 587.097 666.079Z" fill="#B5B5B5"/>
</g>
<g style="mix-blend-mode:overlay">
<path d="M662.133 683.719H583.733C580.4 683.719 577.067 684.383 576.633 685.247L566.067 706.141C565.567 707.17 568.3 708.034 572.2 708.034H659.733C663.633 708.034 666.9 707.17 666.967 706.141L668.4 685.247C668.433 684.283 665.633 683.719 662.133 683.719Z" fill="#B5B5B5"/>
</g>
<g style="mix-blend-mode:overlay">
<path d="M798.794 704.545H597.261C588.294 704.545 580.094 706.505 579.028 708.93L547.128 780.912C545.261 785.164 553.794 788.718 565.928 788.718H841.361C853.594 788.718 861.561 785.164 859.127 780.912L817.628 708.93C816.227 706.505 807.761 704.545 798.794 704.545Z" fill="#B5B5B5"/>
</g>
<g style="mix-blend-mode:overlay">
<path d="M-0.336847 795.928H-24.1035V817.154L4.16315 803.468C12.9298 799.316 10.7965 795.928 -0.336847 795.928Z" fill="#B5B5B5"/>
</g>
<g style="mix-blend-mode:overlay">
<path d="M569.03 740.753H463.963C460.198 740.491 456.446 741.408 453.23 743.377L421.496 780.614C419.863 782.507 422.963 783.936 428.396 783.936H550.563C555.996 783.936 561.063 782.374 561.796 780.614L576.663 743.344C577.063 741.915 573.696 740.753 569.03 740.753Z" fill="#B5B5B5"/>
</g>
<g style="mix-blend-mode:overlay">
<path d="M907.902 1027.12L866.836 926.472C864.036 919.596 851.102 914.148 837.969 914.148H543.336C530.202 914.148 517.436 919.596 514.902 926.472L477.436 1027.12H907.902Z" fill="#B5B5B5"/>
</g>
<g style="mix-blend-mode:overlay">
<path d="M989.363 1027.12H1472.7V915.344L1317.3 828.679C1305.33 822.035 1282.63 816.754 1266.4 816.754H901.997C885.764 816.754 875.33 822.002 879.163 828.679L989.363 1027.12Z" fill="#B5B5B5"/>
</g>
<g style="mix-blend-mode:overlay">
<path d="M267.095 677.639H171.695C167.507 677.62 163.338 678.224 159.329 679.433L94.4621 704.878C91.1288 706.173 92.4621 707.236 97.3288 707.236H206.662C211.281 707.29 215.869 706.49 220.195 704.878L271.229 679.533C273.329 678.536 271.362 677.639 267.095 677.639Z" fill="#B5B5B5"/>
</g>
<g style="mix-blend-mode:overlay">
<path d="M739.763 781.91H625.73C620.663 781.91 616.196 783.372 615.73 785.232L605.563 832.434C605.03 834.892 609.463 836.918 615.563 836.918H749.996C755.996 836.918 760.43 834.892 759.996 832.434L749.796 785.232C749.296 783.372 744.83 781.91 739.763 781.91Z" fill="#B5B5B5"/>
</g>
<g style="mix-blend-mode:overlay">
<path d="M906.399 704.943H839.399C836.432 704.943 834.432 705.608 834.932 706.405L847.699 725.771C849.798 727.107 852.286 727.704 854.765 727.465H928.299C931.632 727.465 933.499 726.701 932.565 725.771L913.332 706.405C911.203 705.282 908.802 704.776 906.399 704.943Z" fill="#B5B5B5"/>
</g>
<g style="mix-blend-mode:overlay">
<path d="M1036.66 797.655H904.327C898.427 797.655 894.793 799.449 896.227 801.675L934.993 860.968C937.06 864.124 944.593 866.715 951.66 866.715H1112.43C1119.56 866.715 1122.43 864.124 1118.93 860.968L1051.99 801.675C1047.39 798.866 1042.06 797.468 1036.66 797.655Z" fill="#B5B5B5"/>
</g>
<g style="mix-blend-mode:overlay">
<path d="M1176.66 1027.12L986.325 814.53C981.025 808.617 964.559 803.934 949.659 803.934H612.259C597.259 803.934 583.592 808.617 581.826 814.53L518.492 1027.12H1176.66Z" fill="#B5B5B5"/>
</g>
<g style="mix-blend-mode:overlay">
<path d="M480.465 733.611H240.465C229.765 733.611 216.365 736.236 210.465 739.524L25.8986 842.997C14.2653 849.64 17.2986 855.022 32.9653 855.022H385.532C401.232 855.022 417.965 849.507 422.565 842.997L495.899 739.524C498.032 736.236 491.132 733.611 480.465 733.611Z" fill="#B5B5B5"/>
</g>
<g style="mix-blend-mode:overlay">
<path d="M1472.56 806.888L1337.83 750.418C1328.03 746.907 1317.71 745.043 1307.3 744.904H1091.66C1082.06 744.904 1077.8 747.362 1082.2 750.418L1216.9 843.195C1225.03 848.809 1242.86 853.526 1256.33 853.526H1472.56V806.888Z" fill="#B5B5B5"/>
</g>
<g style="mix-blend-mode:overlay">
<path d="M1472.56 767.526L1333.7 716.072C1326.63 713.912 1319.29 712.793 1311.9 712.75H1157.5C1150.63 712.75 1148 714.311 1151.73 716.072L1254.33 768.821C1262.57 772.268 1271.4 774.073 1280.33 774.136H1472.56V767.526Z" fill="#B5B5B5"/>
</g>
<g style="mix-blend-mode:overlay">
<path d="M789.633 683.453H740.7C738.533 683.453 736.866 683.885 737 684.383L740.333 696.906C740.5 697.471 742.533 697.969 744.866 697.969H797.166C799.5 697.969 801.133 697.471 800.833 696.906L794.166 684.383C792.791 683.607 791.205 683.281 789.633 683.453Z" fill="#C4C4C4"/>
</g>
<g style="mix-blend-mode:overlay">
<path d="M1255.17 671.66H1103.63C1096.97 671.66 1093.97 672.922 1097.2 674.45L1185.8 717.102C1193.54 719.974 1201.74 721.426 1210 721.387H1400C1408.43 721.387 1409.6 719.427 1402.7 717.102L1276.03 674.45C1269.23 672.602 1262.21 671.663 1255.17 671.66Z" fill="#C4C4C4"/>
</g>
<g style="mix-blend-mode:overlay">
<path d="M54.8298 780.248H-24.1035V822.268C-22.4695 821.797 -20.8756 821.197 -19.3368 820.475L56.9965 782.939C59.9965 781.477 59.0298 780.248 54.8298 780.248Z" fill="#C4C4C4"/>
</g>
<g style="mix-blend-mode:overlay">
<path d="M532.097 837.515H436.963C433.322 837.274 429.732 838.467 426.963 840.837L395.363 886.012C393.763 888.305 396.43 890.165 401.263 890.165H510.197C515.03 890.165 519.73 888.305 520.63 886.012L538.463 840.837C539.23 838.943 536.33 837.515 532.097 837.515Z" fill="#C4C4C4"/>
</g>
<g style="mix-blend-mode:overlay">
<path d="M353.329 678.835H297.629C295.36 678.774 293.099 679.134 290.962 679.898L264.296 693.949C263.029 694.613 264.296 695.145 266.829 695.145H326.829C329.11 695.205 331.379 694.798 333.496 693.949L355.862 679.898C357.029 679.333 355.762 678.835 353.329 678.835Z" fill="#C4C4C4"/>
</g>
<g style="mix-blend-mode:overlay">
<path d="M343.33 847.248H152.563C143.714 847.309 135.024 849.594 127.296 853.892L-24.1035 957.198V974.04H227.863C239.263 974.04 253.163 968.758 258.63 962.48L353.096 853.892C356.33 850.371 351.963 847.248 343.33 847.248Z" fill="#C4C4C4"/>
</g>
<g style="mix-blend-mode:overlay">
<path d="M159.265 731.02H78.2318C74.429 731.05 70.6569 731.701 67.0651 732.946L3.49848 759.52C0.365142 760.849 1.09848 761.912 5.13181 761.912H95.9651C100.147 761.894 104.288 761.082 108.165 759.52L161.932 732.946C164.065 731.883 162.865 731.02 159.265 731.02Z" fill="#C4C4C4"/>
</g>
<g style="mix-blend-mode:overlay">
<path d="M446.661 686.674H381.628C379.197 686.574 376.773 687.005 374.528 687.937L349.561 705.177C348.361 706.007 349.961 706.705 353.128 706.705H424.228C426.786 706.853 429.339 706.326 431.628 705.177L450.428 687.937C451.228 687.239 449.461 686.674 446.661 686.674Z" fill="#C4C4C4"/>
</g>
<g style="mix-blend-mode:overlay">
<path d="M139.995 706.439H67.7288C64.3369 706.471 60.968 706.997 57.7288 708.001L1.06214 729.16C-1.70453 730.19 -1.10453 731.054 2.46214 731.054H82.4621C86.1535 731.025 89.8145 730.385 93.2955 729.16L142.395 708.001C144.129 707.137 143.095 706.439 139.995 706.439Z" fill="#696969"/>
</g>
<g style="mix-blend-mode:overlay">
<path d="M537.699 704.712H453.932C450.945 704.526 447.963 705.146 445.299 706.506L419.999 731.319C418.732 732.548 421.132 733.545 425.332 733.545H519.632C523.832 733.545 527.865 732.548 528.599 731.319L543.532 706.506C543.999 705.509 541.432 704.712 537.699 704.712Z" fill="#696969"/>
</g>
<g style="mix-blend-mode:overlay">
<path d="M1472.56 839.906H1282.2C1269.9 839.906 1266.56 844.158 1275 849.506L1472.56 974.438V839.906Z" fill="#696969"/>
</g>
<g style="mix-blend-mode:overlay">
<path d="M1127.69 677.141H1011.03C1005.83 677.141 1003.16 678.137 1005.09 679.367L1055.43 711.289C1060.47 713.404 1065.9 714.423 1071.36 714.278H1209.36C1215.49 714.278 1217.43 712.916 1213.73 711.289L1141.99 679.367C1137.38 677.844 1132.55 677.092 1127.69 677.141Z" fill="#696969"/>
</g>
<g style="mix-blend-mode:overlay">
<path d="M935.329 739.457H793.062C786.729 739.457 782.129 741.051 782.862 743.011L802.695 796.159C803.762 798.983 811.029 801.375 818.829 801.375H994.362C1002.2 801.375 1006.2 798.983 1003.36 796.159L950.362 743.011C948.429 741.051 941.662 739.457 935.329 739.457Z" fill="#696969"/>
</g>
<g style="mix-blend-mode:overlay">
<path d="M1087.53 727.199H1001.1C997.264 727.199 995.231 728.129 996.631 729.226L1031.43 757.461C1034.83 759.265 1038.65 760.147 1042.5 760.018H1140.2C1144.53 760.018 1146.2 758.856 1143.93 757.461L1097.86 729.226C1094.6 727.827 1091.08 727.136 1087.53 727.199Z" fill="#696969"/>
</g>
<g style="mix-blend-mode:overlay">
<path d="M968.029 680.497H914.329C911.963 680.497 910.496 680.962 910.996 681.526L926.063 695.112C927.912 696.026 929.97 696.438 932.029 696.308H989.996C992.596 696.308 993.929 695.777 993.029 695.112L973.829 681.526C971.997 680.757 970.016 680.405 968.029 680.497Z" fill="#696969"/>
</g>
<g style="mix-blend-mode:overlay">
<path d="M297.73 780.314H57.4632C45.7529 780.509 34.18 782.863 23.3298 787.257L-24.1035 809.745V923.914H116.663C132.396 923.914 153.063 917.271 162.296 909.697L308.963 787.257C313.497 783.404 308.43 780.314 297.73 780.314Z" fill="#696969"/>
</g>
<g style="mix-blend-mode:overlay">
<path d="M156.333 717.102H287.833C293.7 717.102 296.133 718.165 293.267 719.493L215.333 755.069C208.711 757.416 201.729 758.596 194.7 758.557H33.6666C26.5 758.557 25.4 756.996 31.1333 755.069L138.467 719.493C144.292 717.92 150.298 717.116 156.333 717.102Z" fill="#B5B5B5"/>
</g>
<g style="mix-blend-mode:overlay">
<path d="M937.46 654.587H1140.96C1149.57 654.53 1158.16 655.354 1166.59 657.045L1320.19 698.368C1329.43 700.859 1326.86 702.952 1314.19 702.952H1030.19C1017.56 702.952 1003.53 700.859 999.06 698.368L925.394 657.045C922.96 655.683 928.427 654.587 937.46 654.587Z" fill="#B5B5B5"/>
</g>
<g style="mix-blend-mode:overlay">
<path d="M794.495 638.774H908.762C912.688 638.621 916.616 639.023 920.428 639.97L955.395 657.276C957.195 658.173 953.762 658.937 947.728 658.937H811.795C805.762 658.937 800.228 658.173 799.528 657.276L786.195 639.97C785.662 639.305 789.428 638.774 794.495 638.774Z" fill="#B5B5B5"/>
</g>
<g style="mix-blend-mode:overlay">
<path d="M722.761 648.607H797.694C799.949 648.449 802.214 648.731 804.361 649.437L814.361 661.097C814.861 661.661 812.227 662.16 808.494 662.16H724.827C721.094 662.16 717.994 661.661 717.927 661.097L716.561 649.437C716.661 648.972 719.427 648.607 722.761 648.607Z" fill="#B5B5B5"/>
</g>
<g style="mix-blend-mode:overlay">
<path d="M592.161 660.199H784.761C793.328 660.199 801.161 661.295 802.194 662.624L832.694 702.751C834.494 705.109 826.428 707.102 814.694 707.102H551.361C539.661 707.102 532.028 705.109 534.361 702.751L574.061 662.624C575.528 661.295 583.594 660.199 592.161 660.199Z" fill="#B5B5B5"/>
</g>
<g style="mix-blend-mode:overlay">
<path d="M1472.56 807.586H1332.56C1325 807.586 1323.4 809.645 1329.23 812.203L1472.83 876.446L1472.56 807.586Z" fill="#B5B5B5"/>
</g>
<g style="mix-blend-mode:overlay">
<path d="M1472.56 711.123H1355.89C1345.23 711.123 1343.19 713.016 1351.59 715.375L1472.53 749.523L1472.56 711.123Z" fill="#B5B5B5"/>
</g>
<g style="mix-blend-mode:overlay">
<path d="M811.766 680.362H912.166C915.65 680.194 919.135 680.69 922.432 681.824L952.766 702.518C954.332 703.581 951.366 704.445 946.099 704.445H829.432C824.232 704.445 819.432 703.581 818.666 702.518L804.632 681.824C804.099 680.96 807.299 680.362 811.766 680.362Z" fill="#B5B5B5"/>
</g>
<g style="mix-blend-mode:overlay">
<path d="M12.1632 808.883H-24.1035V829.777L14.7632 813.832C21.5298 811.108 20.3298 808.883 12.1632 808.883Z" fill="#B5B5B5"/>
</g>
<g style="mix-blend-mode:overlay">
<path d="M554.729 776.992H836.662C849.196 776.992 861.396 780.048 863.829 783.868L949.262 917.735C955.229 927.069 943.462 935.075 922.829 935.075H458.896C438.262 935.075 426.962 927.069 433.496 917.735L527.129 783.935C529.996 780.048 542.196 776.992 554.729 776.992Z" fill="#B5B5B5"/>
</g>
<g style="mix-blend-mode:overlay">
<path d="M493.563 722.715H145.396C128.966 722.832 112.619 725.065 96.7631 729.358L-24.1035 768.655V902.023H296.23C326.23 902.023 360.996 891.427 372.596 879.269L515.396 729.358C518.93 725.671 509.063 722.715 493.563 722.715Z" fill="#B5B5B5"/>
</g>
<g style="mix-blend-mode:overlay">
<path d="M1100.33 645.252H1191.49C1195.45 645.24 1199.4 645.585 1203.29 646.282L1265.33 660.399C1268.43 661.097 1267.23 661.695 1262.56 661.695H1158.09C1153.76 661.726 1149.43 661.292 1145.19 660.399L1096.43 646.282C1094.49 645.717 1096.26 645.252 1100.33 645.252Z" fill="#B5B5B5"/>
</g>
<g style="mix-blend-mode:overlay">
<path d="M648.602 703.316H757.569C762.436 703.316 766.702 704.114 767.069 705.143L776.802 731.419C777.302 732.78 773.036 733.91 767.336 733.91H638.836C633.136 733.91 628.836 732.78 629.369 731.419L639.102 705.143C639.469 704.213 643.736 703.316 648.602 703.316Z" fill="#B5B5B5"/>
</g>
<g style="mix-blend-mode:overlay">
<path d="M489.333 660.433H553.333C556.166 660.433 558.099 660.798 557.599 661.23L545.433 672.026C543.299 672.796 541.031 673.124 538.766 672.989H468.399C465.266 672.989 463.466 672.557 464.333 672.026L482.799 661.23C484.918 660.607 487.126 660.337 489.333 660.433Z" fill="#B5B5B5"/>
</g>
<g style="mix-blend-mode:overlay">
<path d="M364.76 712.085H491.427C497.027 712.085 500.527 713.081 499.16 714.31L461.994 747.395C460.027 749.156 452.827 750.717 445.994 750.717H292.327C285.66 750.717 282.727 749.289 286.127 747.395L350.194 714.178C354.886 712.625 359.819 711.916 364.76 712.085Z" fill="#B5B5B5"/>
</g>
<g style="mix-blend-mode:overlay">
<path d="M896.393 676.41H1125.73C1135.35 676.333 1144.95 677.449 1154.29 679.732L1330.96 737.364C1342.06 741.018 1339.19 744.008 1324.29 744.008H987.126C972.126 744.008 956.16 740.952 951.76 737.364L881.76 679.732C879.626 677.872 886.193 676.41 896.393 676.41Z" fill="#B5B5B5"/>
</g>
<g style="mix-blend-mode:overlay">
<path d="M312.263 682.621H106.196C96.3971 682.681 86.6275 683.705 77.0298 685.677L-24.1035 710.457V743.144H154.896C167.682 743.171 180.397 741.244 192.596 737.43L321.296 685.71C325.53 683.983 321.43 682.621 312.263 682.621Z" fill="#B5B5B5"/>
</g>
<g style="mix-blend-mode:overlay">
<path d="M249.363 664.717H101.796C94.809 664.753 87.8381 665.398 80.9632 666.643L-24.1035 689.331V698.964H131.963C140.34 698.961 148.687 697.968 156.83 696.008L254.863 666.643C258.43 665.58 255.93 664.717 249.363 664.717Z" fill="#B5B5B5"/>
</g>
<g style="mix-blend-mode:overlay">
<path d="M600.928 648.441H647.595C649.662 648.441 651.262 648.674 651.128 648.973L648.028 655.949C646.665 656.493 645.189 656.698 643.728 656.546H593.728C591.495 656.546 589.928 656.281 590.228 655.949L596.562 648.973C597.965 648.5 599.451 648.319 600.928 648.441Z" fill="#C4C4C4"/>
</g>
<g style="mix-blend-mode:overlay">
<path d="M156.034 641.896H300.868C307.301 641.896 310.101 642.594 307.001 643.458L222.334 667.208C214.73 668.816 206.974 669.606 199.201 669.567H17.7675C9.70086 669.567 8.60086 668.504 15.2009 667.208L136.368 643.458C142.872 642.426 149.448 641.904 156.034 641.896Z" fill="#C4C4C4"/>
</g>
<g style="mix-blend-mode:overlay">
<path d="M1472.57 720.025L1406.67 703.882C1402.28 702.948 1397.82 702.447 1393.33 702.387H1303.33C1299.33 702.387 1298.4 703.051 1301.27 703.882L1374.23 724.809C1379.14 726.034 1384.18 726.68 1389.23 726.735H1472.57V720.025Z" fill="#C4C4C4"/>
</g>
<g style="mix-blend-mode:overlay">
<path d="M847.062 734.274H937.962C941.242 734.094 944.516 734.721 947.495 736.101L977.662 761.28C979.195 762.543 976.662 763.572 972.028 763.572H867.928C863.295 763.572 858.795 762.543 857.928 761.28L840.895 736.101C840.262 735.105 843.028 734.274 847.062 734.274Z" fill="#C4C4C4"/>
</g>
<g style="mix-blend-mode:overlay">
<path d="M1017.96 645.882H1071.13C1073.22 645.849 1075.31 646.05 1077.36 646.48L1103 654.386C1104.23 654.752 1103 655.084 1100.56 655.084H1043.13C1040.95 655.117 1038.78 654.883 1036.66 654.386L1015.3 646.58C1014.36 646.148 1015.6 645.882 1017.96 645.882Z" fill="#C4C4C4"/>
</g>
<g style="mix-blend-mode:overlay">
<path d="M1027.33 739.723H1209.76C1217.96 739.721 1226.11 740.976 1233.93 743.443L1386.03 803.866C1394.83 807.354 1393.29 810.31 1382.43 810.31H1137.79C1126.93 810.31 1113.63 807.354 1108.39 803.866L1018.13 743.343C1015.06 741.384 1019.19 739.723 1027.33 739.723Z" fill="#C4C4C4"/>
</g>
<g style="mix-blend-mode:overlay">
<path d="M227.299 818.117H340.632C345.666 818.117 348.032 819.512 345.866 821.439L289.199 867.412C284.287 870.339 278.655 871.846 272.932 871.764H138.266C132.266 871.764 130.733 869.804 134.933 867.412L212.899 821.439C217.4 819.303 222.314 818.169 227.299 818.117Z" fill="#C4C4C4"/>
</g>
<g style="mix-blend-mode:overlay">
<path d="M1203.33 674.949H1280.8C1284.38 674.966 1287.95 675.333 1291.46 676.045L1352.26 690.927C1355.23 691.658 1354.56 692.256 1350.7 692.256H1264.03C1260.11 692.253 1256.21 691.807 1252.4 690.927L1201 676.079C1198.8 675.447 1200 674.949 1203.33 674.949Z" fill="#C4C4C4"/>
</g>
<g style="mix-blend-mode:overlay">
<path d="M928.801 650.235H990.867C993.112 650.185 995.354 650.431 997.534 650.966L1021.37 660.565C1022.53 661.03 1021 661.396 1018.03 661.396H950.001C947.616 661.491 945.231 661.211 942.934 660.565L925.101 651.065C924.367 650.567 926.034 650.235 928.801 650.235Z" fill="#C4C4C4"/>
</g>
<g style="mix-blend-mode:overlay">
<path d="M999.297 812.635H1119.1C1124.19 812.571 1129.23 813.709 1133.8 815.957L1207.13 864.189C1210.96 866.714 1208.93 868.806 1202.53 868.806H1058.63C1052.23 868.806 1044.86 866.714 1042.26 864.189L992.996 815.924C991.13 814.097 993.963 812.635 999.297 812.635Z" fill="#696969"/>
</g>
<g style="mix-blend-mode:overlay">
<path d="M1221.89 661.264H1290.86C1294.07 661.281 1297.27 661.57 1300.43 662.127L1354.69 673.92C1357.33 674.484 1356.73 674.983 1353.33 674.983H1277.03C1273.56 674.968 1270.09 674.612 1266.69 673.92L1219.76 662.127C1217.86 661.662 1218.83 661.264 1221.89 661.264Z" fill="#696969"/>
</g>
<g style="mix-blend-mode:overlay">
<path d="M841.696 660.3H921.696C924.477 660.173 927.259 660.509 929.929 661.296L954.262 675.115C955.462 675.812 953.162 676.377 949.162 676.377H859.162C856.248 676.585 853.324 676.154 850.596 675.115L836.329 661.296C835.696 660.731 838.129 660.3 841.696 660.3Z" fill="#696969"/>
</g>
<g style="mix-blend-mode:overlay">
<path d="M130.197 735.637H-24.1035V800.544L137.063 741.151C145.13 737.995 141.93 735.637 130.197 735.637Z" fill="#696969"/>
</g>
<g style="mix-blend-mode:overlay">
<path d="M277.829 644.953H389.229C394.196 644.953 396.762 645.484 394.929 646.182L346.662 663.953C341.692 665.179 336.582 665.749 331.462 665.647H199.696C193.829 665.647 191.962 664.883 195.529 663.953L264.062 646.182C268.599 645.317 273.211 644.905 277.829 644.953Z" fill="#696969"/>
</g>
<g style="mix-blend-mode:overlay">
<path d="M461.661 679.665H597.661C603.695 679.665 608.095 680.529 607.395 681.625L588.461 711.189C587.428 712.783 580.461 714.112 573.028 714.112H405.261C397.795 714.112 393.961 712.783 396.661 711.189L447.295 681.625C451.928 680.124 456.793 679.46 461.661 679.665Z" fill="#696969"/>
</g>
<g style="mix-blend-mode:overlay">
<path d="M316.23 672.823H398.83C402.497 672.823 404.43 673.355 403.13 673.952L369.797 689.698C366.37 690.713 362.804 691.184 359.23 691.093H265.897C261.73 691.093 260.164 690.462 262.33 689.698L306.364 673.952C309.592 673.163 312.907 672.784 316.23 672.823Z" fill="#696969"/>
</g>
<g style="mix-blend-mode:overlay">
<path d="M430.433 646.812H481.733C484.033 646.812 485.4 647.045 484.8 647.377L470.433 654.951C468.568 655.466 466.634 655.691 464.7 655.615H409.467C407 655.615 405.7 655.316 406.6 654.951L424.9 647.377C426.71 646.94 428.572 646.75 430.433 646.812Z" fill="#696969"/>
</g>
<g style="mix-blend-mode:overlay">
<path d="M1472.56 744.739L1333.33 706.306C1322.64 703.807 1311.71 702.503 1300.73 702.42H1071.06C1060.86 702.42 1056.03 704.147 1060.46 706.306L1200.46 774.502C1209.29 778.82 1229.03 782.441 1244.06 782.441H1472.53L1472.56 744.739Z" fill="#696969"/>
</g>
<g style="mix-blend-mode:overlay">
<path d="M141.194 130.181H278.827C284.927 130.181 287.494 128.287 284.494 125.896L202.96 62.0516C196.484 58.0058 189.003 55.8429 181.36 55.8066H12.8602C5.36025 55.8066 4.22691 58.6301 10.2269 62.0516L122.527 125.896C128.363 128.658 134.733 130.12 141.194 130.181Z" fill="#B5B5B5"/>
</g>
<g style="mix-blend-mode:overlay">
<path d="M958.561 242.489H1171.49C1180.57 242.559 1189.59 241.064 1198.16 238.071L1358.99 163.797C1368.66 159.345 1365.99 155.592 1352.76 155.592H1055.56C1042.23 155.592 1027.63 159.345 1022.99 163.797L945.927 238.005C943.327 240.463 949.094 242.489 958.561 242.489Z" fill="#B5B5B5"/>
</g>
<g style="mix-blend-mode:overlay">
<path d="M808.962 270.789H928.528C932.709 271.043 936.891 270.303 940.728 268.63L977.395 237.572C979.295 235.944 975.695 234.615 969.395 234.615H827.062C820.728 234.615 814.962 235.944 814.228 237.572L800.262 268.63C799.728 269.826 803.628 270.789 808.962 270.789Z" fill="#B5B5B5"/>
</g>
<g style="mix-blend-mode:overlay">
<path d="M733.927 253.151H812.327C815.66 253.151 818.994 252.487 819.427 251.623L829.994 230.696C830.494 229.7 827.727 228.836 823.86 228.836H736.294C732.427 228.836 729.16 229.7 729.094 230.696L727.66 251.623C727.627 252.454 730.427 253.151 733.927 253.151Z" fill="#B5B5B5"/>
</g>
<g style="mix-blend-mode:overlay">
<path d="M597.261 232.324H798.794C807.761 232.324 815.927 230.364 817.027 227.939L848.927 156.123C850.794 151.871 842.261 148.316 830.094 148.316H554.694C542.461 148.316 534.461 151.871 536.927 156.123L578.427 228.105C579.994 230.364 588.294 232.324 597.261 232.324Z" fill="#B5B5B5"/>
</g>
<g style="mix-blend-mode:overlay">
<path d="M1472.56 94.2383L1391.9 133.302C1383.13 137.554 1385.23 140.942 1396.4 140.942H1472.56V94.2383Z" fill="#B5B5B5"/>
</g>
<g style="mix-blend-mode:overlay">
<path d="M827.033 196.15H932.1C935.864 196.405 939.615 195.488 942.833 193.525L974.566 156.388C976.199 154.495 973.099 153.066 967.666 153.066H845.499C840.066 153.066 835 154.628 834.266 156.388L819.566 193.525C818.999 194.954 822.366 196.15 827.033 196.15Z" fill="#B5B5B5"/>
</g>
<g style="mix-blend-mode:overlay">
<path d="M513.76 -27.4707L529.193 10.3974C532.026 17.2402 544.96 22.7211 558.093 22.7211H852.893C865.993 22.7211 878.76 17.2402 881.326 10.3974L895.426 -27.4707H513.76Z" fill="#B5B5B5"/>
</g>
<g style="mix-blend-mode:overlay">
<path d="M441.563 -27.4707H-24.1035V50.7567L78.8965 108.19C90.8631 114.833 113.563 120.115 129.796 120.115H494.063C510.296 120.115 520.73 114.833 516.896 108.19L441.563 -27.4707Z" fill="#B5B5B5"/>
</g>
<g style="mix-blend-mode:overlay">
<path d="M1128.96 259.097H1224.36C1228.55 259.113 1232.72 258.509 1236.73 257.303L1301.59 231.925C1304.93 230.663 1303.59 229.6 1298.73 229.6H1189.43C1184.81 229.554 1180.23 230.341 1175.89 231.925L1124.86 257.303C1122.86 258.333 1124.69 259.097 1128.96 259.097Z" fill="#B5B5B5"/>
</g>
<g style="mix-blend-mode:overlay">
<path d="M656.298 154.961H770.331C775.398 154.961 779.865 153.5 780.331 151.64L790.331 104.437C790.865 102.013 786.398 99.9863 780.331 99.9863H646.098C640.098 99.9863 635.631 102.013 636.098 104.437L646.298 151.64C646.665 153.5 651.231 154.961 656.298 154.961Z" fill="#B5B5B5"/>
</g>
<g style="mix-blend-mode:overlay">
<path d="M489.664 231.892H556.664C559.664 231.892 561.664 231.261 561.164 230.464L548.398 211.098C546.304 209.747 543.814 209.139 541.331 209.37H467.764C464.431 209.37 462.564 210.168 463.498 211.098L482.798 230.464C484.911 231.559 487.287 232.054 489.664 231.892Z" fill="#B5B5B5"/>
</g>
<g style="mix-blend-mode:overlay">
<path d="M359.298 139.216H491.731C497.631 139.216 501.265 137.422 499.831 135.196L461.065 75.9029C458.998 72.5811 451.465 70.1562 444.398 70.1562H283.531C276.398 70.1562 273.531 72.7472 276.865 75.9029L344.065 135.196C348.641 137.986 353.936 139.383 359.298 139.216Z" fill="#B5B5B5"/>
</g>
<g style="mix-blend-mode:overlay">
<path d="M275.533 -27.4707L409.7 122.474C415 128.419 431.467 133.103 446.367 133.103H783.7C798.7 133.103 812.367 128.419 814.133 122.474L858.8 -27.4707H275.533Z" fill="#B5B5B5"/>
</g>
<g style="mix-blend-mode:overlay">
<path d="M915.596 203.225H1155.6C1166.26 203.225 1179.66 200.634 1185.6 197.345L1370 93.8724C1381.63 87.2289 1378.63 81.8477 1362.96 81.8477H1010.53C994.829 81.8477 978.096 87.3618 973.496 93.8724L900.329 197.345C898.029 200.634 904.929 203.225 915.596 203.225Z" fill="#B5B5B5"/>
</g>
<g style="mix-blend-mode:overlay">
<path d="M313.83 186.584L179.163 93.774C171.03 88.1935 153.196 83.4766 139.73 83.4766H-24.1035V152.004L58.2298 186.584C68.0306 190.096 78.349 191.959 88.7631 192.098H304.396C313.963 192.098 318.263 189.64 313.83 186.584Z" fill="#B5B5B5"/>
</g>
<g style="mix-blend-mode:overlay">
<path d="M244.33 220.797L141.73 168.047C133.482 164.609 124.637 162.815 115.696 162.766H-24.1035V188.775L62.3631 220.83C69.4287 222.989 76.7729 224.109 84.1631 224.152H238.563C245.43 224.218 248.063 222.557 244.33 220.797Z" fill="#B5B5B5"/>
</g>
<g style="mix-blend-mode:overlay">
<path d="M606.43 253.416H655.363C657.53 253.416 659.196 252.985 659.063 252.453L655.73 239.963C655.563 239.365 653.53 238.9 651.196 238.9H598.996C596.663 238.9 594.996 239.365 595.33 239.963L601.996 252.453C603.331 253.242 604.886 253.58 606.43 253.416Z" fill="#C4C4C4"/>
</g>
<g style="mix-blend-mode:overlay">
<path d="M140.897 265.21H292.43C299.097 265.21 302.097 263.947 298.864 262.386L210.264 219.768C202.521 216.902 194.323 215.451 186.064 215.483H-3.76972C-12.2031 215.483 -13.3697 217.443 -6.46972 219.768L120.297 262.419C127.009 264.257 133.936 265.195 140.897 265.21Z" fill="#C4C4C4"/>
</g>
<g style="mix-blend-mode:overlay">
<path d="M1472.57 112.939H1431.1C1425.7 113.037 1420.37 114.165 1415.4 116.261L1339.07 153.83C1336.07 155.292 1337.03 156.488 1341.23 156.488H1435.3C1440.08 156.371 1444.81 155.474 1449.3 153.83L1472.63 144.064L1472.57 112.939Z" fill="#C4C4C4"/>
</g>
<g style="mix-blend-mode:overlay">
<path d="M863.965 99.355H959.099C962.74 99.5954 966.33 98.4027 969.099 96.0332L1000.7 50.8573C1002.3 48.5653 999.632 46.7051 994.799 46.7051H885.799C880.965 46.7051 876.265 48.5653 875.365 50.8573L857.532 96.0332C856.832 97.9266 859.732 99.355 863.965 99.355Z" fill="#C4C4C4"/>
</g>
<g style="mix-blend-mode:overlay">
<path d="M1042.76 258.034H1098.43C1100.7 258.095 1102.96 257.735 1105.1 256.971L1131.76 242.92C1133.03 242.256 1131.76 241.725 1129.23 241.725H1069.23C1066.95 241.664 1064.68 242.071 1062.56 242.92L1040 256.971C1039.03 257.536 1040.3 258.034 1042.76 258.034Z" fill="#C4C4C4"/>
</g>
<g style="mix-blend-mode:overlay">
<path d="M1139.26 -27.4707C1138.6 -26.915 1137.98 -26.3158 1137.4 -25.677L1042.96 83.0442C1039.63 86.7646 1044.1 89.6878 1052.56 89.6878H1243.5C1252.35 89.6265 1261.04 87.3415 1268.76 83.0442L1427.9 -25.677C1428.72 -26.2177 1429.5 -26.8172 1430.23 -27.4707H1139.26Z" fill="#C4C4C4"/>
</g>
<g style="mix-blend-mode:overlay">
<path d="M1236.66 205.949H1317.69C1321.5 205.924 1325.28 205.262 1328.86 203.989L1392.43 177.415C1395.56 176.086 1394.83 175.023 1390.79 175.023H1299.99C1295.81 175.038 1291.67 175.85 1287.79 177.415L1234.03 203.989C1231.96 204.986 1233.33 205.949 1236.66 205.949Z" fill="#C4C4C4"/>
</g>
<g style="mix-blend-mode:overlay">
<path d="M949.461 250.195H1014.43C1016.86 250.308 1019.29 249.865 1021.53 248.899L1046.66 231.693C1047.86 230.829 1046.26 230.165 1043.09 230.165H971.828C969.268 229.999 966.711 230.527 964.428 231.693L945.628 248.899C944.828 249.63 946.661 250.195 949.461 250.195Z" fill="#C4C4C4"/>
</g>
<g style="mix-blend-mode:overlay">
<path d="M1256.16 230.431H1328.33C1331.72 230.399 1335.09 229.873 1338.33 228.869L1395 207.71C1397.76 206.68 1397.16 205.816 1393.6 205.816H1313.86C1310.17 205.845 1306.51 206.485 1303.03 207.71L1253.93 228.869C1251.93 229.733 1252.96 230.431 1256.16 230.431Z" fill="#696969"/>
</g>
<g style="mix-blend-mode:overlay">
<path d="M858.362 232.159H942.128C945.116 232.344 948.098 231.725 950.762 230.365L976.195 205.552C977.462 204.323 975.062 203.326 970.862 203.326H876.662C872.462 203.326 868.428 204.323 867.662 205.552L852.762 230.365C852.062 231.362 854.628 232.159 858.362 232.159Z" fill="#696969"/>
</g>
<g style="mix-blend-mode:overlay">
<path d="M121.03 87.3622L-24.1035 -4.45117V96.9621H113.863C126.163 96.9621 129.497 92.6771 121.03 87.3622Z" fill="#696969"/>
</g>
<g style="mix-blend-mode:overlay">
<path d="M268.325 259.729H384.992C390.159 259.729 392.859 258.732 390.925 257.503L340.592 225.581C335.538 223.443 330.081 222.413 324.592 222.559H186.659C180.525 222.559 178.559 223.954 182.292 225.581L254.025 257.503C258.636 259.027 263.468 259.779 268.325 259.729Z" fill="#696969"/>
</g>
<g style="mix-blend-mode:overlay">
<path d="M460.73 197.412H602.997C609.33 197.412 613.93 195.817 613.197 193.857L593.197 140.709C592.13 137.853 584.864 135.494 577.064 135.494H401.697C393.864 135.494 389.864 137.853 392.697 140.709L445.664 193.857C447.63 195.983 454.397 197.412 460.73 197.412Z" fill="#696969"/>
</g>
<g style="mix-blend-mode:overlay">
<path d="M308.498 209.669H394.965C398.798 209.669 400.831 208.739 399.431 207.61L364.631 179.375C361.231 177.57 357.415 176.688 353.565 176.817H255.865C251.531 176.817 249.865 177.98 252.131 179.375L298.198 207.61C301.44 209.034 304.955 209.737 308.498 209.669Z" fill="#696969"/>
</g>
<g style="mix-blend-mode:overlay">
<path d="M428.032 256.374H481.732C484.099 256.374 485.566 255.909 485.066 255.344L469.999 241.725C468.14 240.842 466.088 240.442 464.032 240.562H406.099C403.499 240.562 402.166 241.093 403.066 241.725L422.266 255.344C424.087 256.109 426.057 256.461 428.032 256.374Z" fill="#696969"/>
</g>
<g style="mix-blend-mode:overlay">
<path d="M1472.56 12.9219H1279.4C1263.66 12.9219 1243 19.5654 1233.76 27.1722L1087.2 149.479C1082.56 153.333 1087.63 156.422 1098.3 156.422H1338.6C1350.31 156.227 1361.88 153.873 1372.73 149.479L1472.56 102.31V12.9219Z" fill="#696969"/>
</g>
<g style="mix-blend-mode:overlay">
<path d="M1239.73 219.768H1108.23C1102.36 219.768 1099.9 218.705 1102.8 217.376L1180.73 181.8C1187.36 179.506 1194.34 178.382 1201.36 178.478H1362.4C1369.56 178.478 1370.66 180.04 1364.93 181.8L1257.6 217.376C1251.77 218.949 1245.76 219.753 1239.73 219.768Z" fill="#B5B5B5"/>
</g>
<g style="mix-blend-mode:overlay">
<path d="M458.597 282.349H255.063C246.468 282.406 237.889 281.582 229.463 279.891L75.8632 238.469C66.6299 236.011 69.1965 233.918 81.8299 233.918H365.863C378.497 233.918 392.53 236.011 396.997 238.469L470.663 279.825C473.096 281.187 467.63 282.349 458.597 282.349Z" fill="#B5B5B5"/>
</g>
<g style="mix-blend-mode:overlay">
<path d="M601.564 298.095H487.264C483.349 298.247 479.432 297.844 475.631 296.899L440.664 279.593C438.864 278.696 442.298 277.932 448.331 277.932H584.264C590.298 277.932 595.831 278.696 596.531 279.593L609.864 296.899C610.398 297.563 606.664 298.095 601.564 298.095Z" fill="#B5B5B5"/>
</g>
<g style="mix-blend-mode:overlay">
<path d="M673.331 288.262H598.364C596.109 288.419 593.845 288.137 591.698 287.431L581.698 275.772C581.198 275.207 583.831 274.709 587.564 274.709H671.231C674.931 274.709 677.898 275.207 678.098 275.772L679.464 287.431C679.298 287.896 676.664 288.262 673.331 288.262Z" fill="#B5B5B5"/>
</g>
<g style="mix-blend-mode:overlay">
<path d="M803.894 276.669H611.294C602.727 276.669 594.894 275.573 593.861 274.211L563.327 234.117C561.527 231.759 569.594 229.766 581.294 229.766H844.627C856.327 229.766 863.961 231.759 861.594 234.117L821.927 274.211C820.527 275.706 812.461 276.669 803.894 276.669Z" fill="#B5B5B5"/>
</g>
<g style="mix-blend-mode:overlay">
<path d="M67.0965 124.666L-24.1035 83.875V129.283H63.6632C71.2298 129.283 72.7965 127.224 67.0965 124.666Z" fill="#B5B5B5"/>
</g>
<g style="mix-blend-mode:overlay">
<path d="M44.4298 221.495L-24.1035 202.129V225.879H39.9965C50.7965 225.879 52.8298 223.853 44.4298 221.495Z" fill="#B5B5B5"/>
</g>
<g style="mix-blend-mode:overlay">
<path d="M584.295 256.507H483.895C480.411 256.678 476.925 256.182 473.629 255.045L443.329 234.35C441.762 233.287 444.729 232.424 449.995 232.424H566.662C571.862 232.424 576.662 233.287 577.395 234.35L591.462 255.045C591.962 255.776 588.762 256.507 584.295 256.507Z" fill="#B5B5B5"/>
</g>
<g style="mix-blend-mode:overlay">
<path d="M1472.56 85.6348L1381.29 122.905C1374.62 125.695 1375.72 127.921 1383.89 127.921H1472.56V85.6348Z" fill="#B5B5B5"/>
</g>
<g style="mix-blend-mode:overlay">
<path d="M841.33 159.877H559.563C547.03 159.877 534.83 156.821 532.397 153.001L446.963 19.1345C440.997 9.96645 452.763 1.79492 473.33 1.79492H937.163C957.797 1.79492 969.096 9.80036 962.563 19.1345L868.93 153.001C866.23 156.821 853.863 159.877 841.33 159.877Z" fill="#B5B5B5"/>
</g>
<g style="mix-blend-mode:overlay">
<path d="M1472.57 34.8457H1100C1070 34.8457 1035.23 45.4421 1023.63 57.5998L880.667 207.478C877.134 211.198 887 214.121 902.5 214.121H1250.67C1267.1 214.019 1283.45 211.786 1299.3 207.478L1472.63 151.008L1472.57 34.8457Z" fill="#B5B5B5"/>
</g>
<g style="mix-blend-mode:overlay">
<path d="M295.733 291.618H204.566C200.61 291.63 196.66 291.286 192.766 290.589L130.733 276.471C127.633 275.74 128.833 275.176 133.5 275.176H237.933C242.279 275.126 246.617 275.561 250.866 276.471L299.633 290.589C301.566 291.153 299.8 291.618 295.733 291.618Z" fill="#B5B5B5"/>
</g>
<g style="mix-blend-mode:overlay">
<path d="M747.466 233.554H638.5C633.633 233.554 629.366 232.757 629 231.727L619.266 205.419C618.766 204.09 623.033 202.961 628.733 202.961H757.233C762.933 202.961 767.233 204.09 766.7 205.419L756.966 231.727C756.666 232.757 752.3 233.554 747.466 233.554Z" fill="#B5B5B5"/>
</g>
<g style="mix-blend-mode:overlay">
<path d="M906.666 276.437H842.699C839.866 276.437 837.932 276.072 838.432 275.64L850.599 264.844C852.732 264.074 855.001 263.747 857.266 263.881H927.666C930.799 263.881 932.599 264.313 931.699 264.844L913.332 275.706C911.167 276.322 908.913 276.569 906.666 276.437Z" fill="#B5B5B5"/>
</g>
<g style="mix-blend-mode:overlay">
<path d="M1031.3 224.784H904.631C898.997 224.784 895.531 223.788 896.897 222.559L933.964 189.341C935.897 187.581 943.131 186.02 949.964 186.02H1103.6C1110.46 186.02 1113.23 187.448 1109.83 189.341L1045.86 222.559C1041.18 224.157 1036.25 224.91 1031.3 224.784Z" fill="#B5B5B5"/>
</g>
<g style="mix-blend-mode:overlay">
<path d="M499.664 260.459H270.33C260.707 260.536 251.111 259.421 241.764 257.137L65.097 199.472C53.9637 195.851 56.8637 192.828 71.7637 192.828H408.93C423.93 192.828 439.897 195.884 444.297 199.472L514.297 257.137C516.43 259.097 509.997 260.459 499.664 260.459Z" fill="#B5B5B5"/>
</g>
<g style="mix-blend-mode:overlay">
<path d="M1472.56 193.725H1241.16C1228.33 193.695 1215.57 195.633 1203.32 199.472L1074.76 251.191C1070.49 252.885 1074.76 254.247 1083.79 254.247H1289.99C1299.79 254.187 1309.56 253.164 1319.16 251.191L1472.69 213.556L1472.56 193.725Z" fill="#B5B5B5"/>
</g>
<g style="mix-blend-mode:overlay">
<path d="M1472.56 207.113L1437.83 215.916C1433.7 216.979 1434.13 217.809 1438.73 217.809H1472.56V207.113Z" fill="#B5B5B5"/>
</g>
<g style="mix-blend-mode:overlay">
<path d="M1294.26 272.152H1146.66C1140 272.152 1137.6 271.288 1141.13 270.225L1239.2 240.827C1247.34 238.896 1255.69 237.915 1264.06 237.904H1450C1458.26 237.904 1458.83 239.233 1451.36 240.827L1315.26 270.225C1308.33 271.48 1301.31 272.125 1294.26 272.152Z" fill="#B5B5B5"/>
</g>
<g style="mix-blend-mode:overlay">
<path d="M795.13 288.429H748.463C746.396 288.429 744.796 288.163 744.93 287.898L748.03 280.922C749.393 280.377 750.869 280.172 752.33 280.324H802.33C804.563 280.324 806.13 280.59 805.83 280.922L799.496 287.898C798.088 288.352 796.606 288.532 795.13 288.429Z" fill="#C4C4C4"/>
</g>
<g style="mix-blend-mode:overlay">
<path d="M1240 294.973H1095.2C1088.76 294.973 1085.96 294.275 1089.06 293.411L1173.73 269.661C1181.33 268.052 1189.09 267.261 1196.86 267.302H1378.3C1386.36 267.302 1387.46 268.365 1380.86 269.661L1259.7 293.411C1253.18 294.445 1246.59 294.967 1240 294.973Z" fill="#C4C4C4"/>
</g>
<g style="mix-blend-mode:overlay">
<path d="M94.9298 232.988L21.9632 212.028C17.0514 210.832 12.019 210.197 6.96315 210.135H-24.1035V229.633L-10.4368 232.955C-6.0529 233.891 -1.58661 234.392 2.89648 234.45H92.8965C96.8632 234.483 97.7965 233.819 94.9298 232.988Z" fill="#C4C4C4"/>
</g>
<g style="mix-blend-mode:overlay">
<path d="M548.998 202.628H458.098C454.821 202.812 451.549 202.196 448.565 200.834L418.565 175.655C417.032 174.393 419.565 173.363 424.198 173.363H528.298C532.932 173.363 537.432 174.393 538.298 175.655L555.332 200.834C555.798 201.764 553.032 202.628 548.998 202.628Z" fill="#C4C4C4"/>
</g>
<g style="mix-blend-mode:overlay">
<path d="M378.097 290.987H324.764C322.67 291.02 320.579 290.82 318.531 290.389L292.897 282.583C291.664 282.218 292.897 281.886 295.297 281.886H352.764C355.007 281.836 357.247 282.07 359.431 282.583L380.797 290.389C381.697 290.721 380.464 290.987 378.097 290.987Z" fill="#C4C4C4"/>
</g>
<g style="mix-blend-mode:overlay">
<path d="M368.732 197.148H186.265C178.077 197.146 169.938 195.891 162.132 193.428L9.99816 132.872C1.23149 129.55 2.7315 126.461 13.6315 126.461H258.265C269.132 126.461 282.432 129.417 287.665 132.905L377.932 193.428C380.998 195.487 376.865 197.148 368.732 197.148Z" fill="#C4C4C4"/>
</g>
<g style="mix-blend-mode:overlay">
<path d="M1168.73 118.754H1055.56C1050.53 118.754 1048.16 117.359 1050.33 115.432L1106.99 69.4589C1111.94 66.5783 1117.6 65.1289 1123.33 65.2735H1257.69C1263.69 65.2735 1265.23 67.2334 1261.03 69.625L1183.33 115.598C1178.75 117.7 1173.77 118.777 1168.73 118.754Z" fill="#C4C4C4"/>
</g>
<g style="mix-blend-mode:overlay">
<path d="M192.699 261.92H115.232C111.638 261.901 108.055 261.534 104.532 260.823L43.799 245.975C40.799 245.244 41.499 244.646 45.3657 244.646H132.199C136.115 244.65 140.017 245.095 143.832 245.975L195.199 260.823C197.266 261.421 196.132 261.92 192.699 261.92Z" fill="#C4C4C4"/>
</g>
<g style="mix-blend-mode:overlay">
<path d="M467.259 286.634H405.193C402.948 286.684 400.706 286.438 398.526 285.904L374.693 276.304C373.526 275.839 375.059 275.44 378.026 275.44H445.959C448.357 275.349 450.754 275.641 453.059 276.304L471.026 285.904C471.693 286.302 469.993 286.634 467.259 286.634Z" fill="#C4C4C4"/>
</g>
<g style="mix-blend-mode:overlay">
<path d="M396.664 124.233H276.964C271.869 124.298 266.832 123.16 262.264 120.912L188.931 72.6797C185.097 70.1552 187.131 68.0625 193.531 68.0625H337.297C343.697 68.0625 351.064 70.1552 353.664 72.6797L402.931 120.912C404.931 122.905 402.064 124.233 396.664 124.233Z" fill="#696969"/>
</g>
<g style="mix-blend-mode:overlay">
<path d="M174.166 275.707H105.199C101.991 275.69 98.7909 275.401 95.6323 274.844L41.3656 262.952C38.7323 262.387 39.3323 261.889 42.7323 261.889H119.032C122.503 261.903 125.965 262.259 129.366 262.952L176.299 274.744C178.199 275.209 177.232 275.707 174.166 275.707Z" fill="#696969"/>
</g>
<g style="mix-blend-mode:overlay">
<path d="M554.362 276.57H474.362C471.57 276.676 468.78 276.339 466.095 275.573L441.795 261.755C440.595 261.057 442.895 260.492 446.895 260.492H536.895C539.809 260.284 542.733 260.715 545.462 261.755L559.795 275.706C560.362 276.105 557.928 276.57 554.362 276.57Z" fill="#696969"/>
</g>
<g style="mix-blend-mode:overlay">
<path d="M1472.56 117.158L1259 195.984C1250.93 198.973 1254.13 201.332 1265.86 201.332H1472.53L1472.56 117.158Z" fill="#696969"/>
</g>
<g style="mix-blend-mode:overlay">
<path d="M1118.23 291.917H1006.83C1001.86 291.917 999.298 291.386 1001.13 290.688L1049.26 272.917C1054.24 271.691 1059.35 271.121 1064.46 271.222H1196.36C1202.23 271.222 1204.1 271.986 1200.53 272.917L1132 290.688C1127.46 291.553 1122.85 291.965 1118.23 291.917Z" fill="#696969"/>
</g>
<g style="mix-blend-mode:overlay">
<path d="M934.365 257.204H798.398C792.365 257.204 787.965 256.341 788.665 255.245L807.598 225.681C808.632 224.087 815.565 222.758 823.032 222.758H990.798C998.265 222.758 1002.1 224.087 999.398 225.681L948.765 255.245C944.121 256.748 939.244 257.412 934.365 257.204Z" fill="#696969"/>
</g>
<g style="mix-blend-mode:overlay">
<path d="M1080 264.046H997.23C993.53 264.046 991.63 263.515 992.93 262.884L1026.26 247.172C1029.64 246.179 1033.15 245.72 1036.66 245.81H1130C1134.16 245.81 1135.73 246.474 1133.56 247.238L1089.53 262.95C1086.41 263.719 1083.21 264.088 1080 264.046Z" fill="#696969"/>
</g>
<g style="mix-blend-mode:overlay">
<path d="M965.596 290.057H914.296C912.029 290.057 910.662 289.791 911.262 289.492L925.629 281.918C927.483 281.404 929.406 281.18 931.329 281.254H986.662C989.129 281.254 990.396 281.553 989.529 281.918L971.196 289.492C969.362 289.922 967.479 290.112 965.596 290.057Z" fill="#696969"/>
</g>
<g style="mix-blend-mode:overlay">
<path d="M335.63 230.564L195.63 162.369C186.796 158.05 167.063 154.43 152.03 154.43H-24.1035V206.581L62.7632 230.564C73.451 233.064 84.3853 234.368 95.3632 234.451H325.03C335.23 234.451 339.997 232.724 335.63 230.564Z" fill="#696969"/>
</g>
</g>
<defs>
<radialGradient id="paint0_radial_3618_15478" cx="0" cy="0" r="1" gradientUnits="userSpaceOnUse" gradientTransform="translate(722.333 450.089) scale(1103.1 1099.65)">
<stop stop-color="#0063B7"/>
<stop offset="0.18" stop-color="#0051B1"/>
<stop offset="0.46" stop-color="#003DAA"/>
<stop offset="0.73" stop-color="#0031A5"/>
<stop offset="1" stop-color="#002DA4"/>
</radialGradient>
</defs>
</svg>
